{
    "asset" : {
        "generator" : "Khronos glTF Blender I/O v1.1.46",
        "version" : "2.0"
    },
    "scene" : 0,
    "scenes" : [
        {
            "name" : "Scene",
            "nodes" : [
                0,
                1,
                2,
                3
            ]
        }
    ],
    "nodes" : [
        {
            "name" : "Light",
            "rotation" : [
                0.16907575726509094,
                0.7558803558349609,
                -0.27217137813568115,
                0.570947527885437
            ],
            "translation" : [
                4.076245307922363,
                5.903861999511719,
                -1.0054539442062378
            ]
        },
        {
            "name" : "Camera",
            "rotation" : [
                0.483536034822464,
                0.33687159419059753,
                -0.20870360732078552,
                0.7804827094078064
            ],
            "translation" : [
                7.358891487121582,
                4.958309173583984,
                6.925790786743164
            ]
        },
        {
            "mesh" : 0,
            "name" : "map",
            "translation" : [
                35.86185073852539,
                0,
                0
            ]
        },
        {
            "mesh" : 1,
            "name" : "Cube",
            "rotation" : [
                0.021444840356707573,
                0.32630911469459534,
                -0.007404989562928677,
                0.9449908137321472
            ],
            "scale" : [
                3.820000648498535,
                5.25,
                43.0099983215332
            ],
            "translation" : [
                -2.5212879180908203,
                2.011570453643799,
                -0.06956338882446289
            ]
        }
    ],
    "materials" : [
        {
            "doubleSided" : true,
            "emissiveFactor" : [
                0,
                0,
                0
            ],
            "name" : "Material.001",
            "pbrMetallicRoughness" : {
                "baseColorTexture" : {
                    "index" : 0,
                    "texCoord" : 0
                },
                "metallicFactor" : 0,
                "roughnessFactor" : 0.5
            }
        }
    ],
    "meshes" : [
        {
            "name" : "Plane",
            "primitives" : [
                {
                    "attributes" : {
                        "POSITION" : 0,
                        "NORMAL" : 1,
                        "TEXCOORD_0" : 2
                    },
                    "indices" : 3,
                    "material" : 0
                }
            ]
        },
        {
            "name" : "Cube",
            "primitives" : [
                {
                    "attributes" : {
                        "POSITION" : 4,
                        "NORMAL" : 5,
                        "TEXCOORD_0" : 6
                    },
                    "indices" : 7,
                    "material" : 0
                }
            ]
        }
    ],
    "textures" : [
        {
            "source" : 0
        }
    ],
    "images" : [
        {
            "mimeType" : "image/png",
            "name" : "Block",
            "uri" : "Block.png"
        }
    ],
    "accessors" : [
        {
            "bufferView" : 0,
            "componentType" : 5126,
            "count" : 63940,
            "max" : [
                63,
                32.60871887207031,
                115
            ],
            "min" : [
                -135,
                0,
                -115
            ],
            "type" : "VEC3"
        },
        {
            "bufferView" : 1,
            "componentType" : 5126,
            "count" : 63940,
            "type" : "VEC3"
        },
        {
            "bufferView" : 2,
            "componentType" : 5126,
            "count" : 63940,
            "type" : "VEC2"
        },
        {
            "bufferView" : 3,
            "componentType" : 5123,
            "count" : 97950,
            "type" : "SCALAR"
        },
        {
            "bufferView" : 4,
            "componentType" : 5126,
            "count" : 24,
            "max" : [
                1,
                1,
                1
            ],
            "min" : [
                -1,
                -1,
                -1
            ],
            "type" : "VEC3"
        },
        {
            "bufferView" : 5,
            "componentType" : 5126,
            "count" : 24,
            "type" : "VEC3"
        },
        {
            "bufferView" : 6,
            "componentType" : 5126,
            "count" : 24,
            "type" : "VEC2"
        },
        {
            "bufferView" : 7,
            "componentType" : 5123,
            "count" : 36,
            "type" : "SCALAR"
        }
    ],
    "bufferViews" : [
        {
            "buffer" : 0,
            "byteLength" : 767280,
            "byteOffset" : 0
        },
        {
            "buffer" : 0,
            "byteLength" : 767280,
            "byteOffset" : 767280
        },
        {
            "buffer" : 0,
            "byteLength" : 511520,
            "byteOffset" : 1534560
        },
        {
            "buffer" : 0,
            "byteLength" : 195900,
            "byteOffset" : 2046080
        },
        {
            "buffer" : 0,
            "byteLength" : 288,
            "byteOffset" : 2241980
        },
        {
            "buffer" : 0,
            "byteLength" : 288,
            "byteOffset" : 2242268
        },
        {
            "buffer" : 0,
            "byteLength" : 192,
            "byteOffset" : 2242556
        },
        {
            "buffer" : 0,
            "byteLength" : 72,
            "byteOffset" : 2242748
        }
    ],
    "buffers" : [
        {
            "byteLength" : 2242820,
            "uri" : "aaa.bin"
        }
    ]
}
