{
    "asset" : {
        "generator" : "Khronos glTF Blender I/O v1.1.46",
        "version" : "2.0"
    },
    "scene" : 0,
    "scenes" : [
        {
            "name" : "Scene",
            "nodes" : [
                0,
                1,
                2,
                3,
                4,
                5,
                6,
                7
            ]
        }
    ],
    "nodes" : [
        {
            "name" : "Light",
            "rotation" : [
                0.16907575726509094,
                0.7558803558349609,
                -0.27217137813568115,
                0.570947527885437
            ],
            "translation" : [
                4.076245307922363,
                5.903861999511719,
                -1.0054539442062378
            ]
        },
        {
            "name" : "Camera",
            "rotation" : [
                0.483536034822464,
                0.33687159419059753,
                -0.20870360732078552,
                0.7804827094078064
            ],
            "translation" : [
                7.358891487121582,
                4.958309173583984,
                6.925790786743164
            ]
        },
        {
            "mesh" : 0,
            "name" : "\u4f53",
            "scale" : [
                1.8399999141693115,
                1.2699999809265137,
                1.4299999475479126
            ]
        },
        {
            "mesh" : 1,
            "name" : "\u5de6\u8db3",
            "rotation" : [
                -0.129409521818161,
                0.01703708805143833,
                -0.129409521818161,
                0.9829629063606262
            ],
            "scale" : [
                0.10000000149011612,
                0.30000001192092896,
                0.10000000149011612
            ],
            "translation" : [
                -1,
                -0.75,
                0.75
            ]
        },
        {
            "mesh" : 2,
            "name" : "\u53f3\u8db3",
            "rotation" : [
                0.129409521818161,
                -0.01703708805143833,
                -0.129409521818161,
                0.9829629063606262
            ],
            "scale" : [
                0.10000000149011612,
                0.30000001192092896,
                0.10000000149011612
            ],
            "translation" : [
                -1,
                -0.75,
                -0.75
            ]
        },
        {
            "mesh" : 3,
            "name" : "\u5de6\u8db3\u5f8c\u308d",
            "rotation" : [
                -0.129409521818161,
                -0.01703708805143833,
                0.129409521818161,
                0.9829629063606262
            ],
            "scale" : [
                0.10000000149011612,
                0.30000001192092896,
                0.10000000149011612
            ],
            "translation" : [
                1,
                -0.75,
                0.75
            ]
        },
        {
            "mesh" : 4,
            "name" : "\u53f3\u8db3\u5f8c\u308d",
            "rotation" : [
                0.129409521818161,
                0.01703708805143833,
                0.129409521818161,
                0.9829629063606262
            ],
            "scale" : [
                0.10000000149011612,
                0.30000001192092896,
                0.10000000149011612
            ],
            "translation" : [
                1,
                -0.75,
                -0.75
            ]
        },
        {
            "mesh" : 5,
            "name" : "\u7259",
            "rotation" : [
                0.6087614297866821,
                0,
                0,
                0.7933533191680908
            ],
            "scale" : [
                0.5,
                0.5,
                0.5
            ],
            "translation" : [
                1.7000000476837158,
                0.25,
                -0.6000000238418579
            ]
        }
    ],
    "materials" : [
        {
            "doubleSided" : true,
            "emissiveFactor" : [
                0,
                0,
                0
            ],
            "name" : "Material.001",
            "pbrMetallicRoughness" : {
                "baseColorTexture" : {
                    "index" : 0,
                    "texCoord" : 0
                },
                "metallicFactor" : 0,
                "roughnessFactor" : 0.5
            }
        },
        {
            "doubleSided" : true,
            "emissiveFactor" : [
                0,
                0,
                0
            ],
            "name" : "Material.003",
            "pbrMetallicRoughness" : {
                "baseColorFactor" : [
                    0.27145150303840637,
                    0.10968244075775146,
                    0.02139183133840561,
                    1
                ],
                "metallicFactor" : 0,
                "roughnessFactor" : 0.5
            }
        },
        {
            "doubleSided" : true,
            "emissiveFactor" : [
                0,
                0,
                0
            ],
            "name" : "Material",
            "pbrMetallicRoughness" : {
                "baseColorFactor" : [
                    0.800000011920929,
                    0.800000011920929,
                    0.800000011920929,
                    1
                ],
                "metallicFactor" : 0,
                "roughnessFactor" : 0.4000000059604645
            }
        }
    ],
    "meshes" : [
        {
            "name" : "Sphere",
            "primitives" : [
                {
                    "attributes" : {
                        "POSITION" : 0,
                        "NORMAL" : 1,
                        "TEXCOORD_0" : 2
                    },
                    "indices" : 3,
                    "material" : 0
                }
            ]
        },
        {
            "name" : "Cube.001",
            "primitives" : [
                {
                    "attributes" : {
                        "POSITION" : 4,
                        "NORMAL" : 5,
                        "TEXCOORD_0" : 6
                    },
                    "indices" : 7,
                    "material" : 1
                }
            ]
        },
        {
            "name" : "Cube.002",
            "primitives" : [
                {
                    "attributes" : {
                        "POSITION" : 8,
                        "NORMAL" : 9,
                        "TEXCOORD_0" : 10
                    },
                    "indices" : 7,
                    "material" : 1
                }
            ]
        },
        {
            "name" : "Cube.003",
            "primitives" : [
                {
                    "attributes" : {
                        "POSITION" : 11,
                        "NORMAL" : 12,
                        "TEXCOORD_0" : 13
                    },
                    "indices" : 7,
                    "material" : 1
                }
            ]
        },
        {
            "name" : "Cube.004",
            "primitives" : [
                {
                    "attributes" : {
                        "POSITION" : 14,
                        "NORMAL" : 15,
                        "TEXCOORD_0" : 16
                    },
                    "indices" : 7,
                    "material" : 1
                }
            ]
        },
        {
            "name" : "Torus",
            "primitives" : [
                {
                    "attributes" : {
                        "POSITION" : 17,
                        "NORMAL" : 18,
                        "TEXCOORD_0" : 19
                    },
                    "indices" : 20,
                    "material" : 2
                }
            ]
        }
    ],
    "textures" : [
        {
            "source" : 0
        }
    ],
    "images" : [
        {
            "mimeType" : "image/png",
            "name" : "Boar",
            "uri" : "Boar.png"
        }
    ],
    "accessors" : [
        {
            "bufferView" : 0,
            "componentType" : 5126,
            "count" : 2040,
            "max" : [
                1.0171749591827393,
                1.4373598098754883,
                0.9195170998573303
            ],
            "min" : [
                -1.0894402265548706,
                -0.7957137227058411,
                -0.9195162653923035
            ],
            "type" : "VEC3"
        },
        {
            "bufferView" : 1,
            "componentType" : 5126,
            "count" : 2040,
            "type" : "VEC3"
        },
        {
            "bufferView" : 2,
            "componentType" : 5126,
            "count" : 2040,
            "type" : "VEC2"
        },
        {
            "bufferView" : 3,
            "componentType" : 5123,
            "count" : 2976,
            "type" : "SCALAR"
        },
        {
            "bufferView" : 4,
            "componentType" : 5126,
            "count" : 24,
            "max" : [
                1,
                1,
                1
            ],
            "min" : [
                -1,
                -1,
                -1
            ],
            "type" : "VEC3"
        },
        {
            "bufferView" : 5,
            "componentType" : 5126,
            "count" : 24,
            "type" : "VEC3"
        },
        {
            "bufferView" : 6,
            "componentType" : 5126,
            "count" : 24,
            "type" : "VEC2"
        },
        {
            "bufferView" : 7,
            "componentType" : 5123,
            "count" : 36,
            "type" : "SCALAR"
        },
        {
            "bufferView" : 8,
            "componentType" : 5126,
            "count" : 24,
            "max" : [
                1,
                1,
                1
            ],
            "min" : [
                -1,
                -1,
                -1
            ],
            "type" : "VEC3"
        },
        {
            "bufferView" : 9,
            "componentType" : 5126,
            "count" : 24,
            "type" : "VEC3"
        },
        {
            "bufferView" : 10,
            "componentType" : 5126,
            "count" : 24,
            "type" : "VEC2"
        },
        {
            "bufferView" : 11,
            "componentType" : 5126,
            "count" : 24,
            "max" : [
                1,
                1,
                1
            ],
            "min" : [
                -1,
                -1,
                -1
            ],
            "type" : "VEC3"
        },
        {
            "bufferView" : 12,
            "componentType" : 5126,
            "count" : 24,
            "type" : "VEC3"
        },
        {
            "bufferView" : 13,
            "componentType" : 5126,
            "count" : 24,
            "type" : "VEC2"
        },
        {
            "bufferView" : 14,
            "componentType" : 5126,
            "count" : 24,
            "max" : [
                1,
                1,
                1
            ],
            "min" : [
                -1,
                -1,
                -1
            ],
            "type" : "VEC3"
        },
        {
            "bufferView" : 15,
            "componentType" : 5126,
            "count" : 24,
            "type" : "VEC3"
        },
        {
            "bufferView" : 16,
            "componentType" : 5126,
            "count" : 24,
            "type" : "VEC2"
        },
        {
            "bufferView" : 17,
            "componentType" : 5126,
            "count" : 2328,
            "max" : [
                1.0862536430358887,
                2.577422618865967,
                1.7371912002563477
            ],
            "min" : [
                -1.0825319290161133,
                -0.25,
                -0.5015369653701782
            ],
            "type" : "VEC3"
        },
        {
            "bufferView" : 18,
            "componentType" : 5126,
            "count" : 2328,
            "type" : "VEC3"
        },
        {
            "bufferView" : 19,
            "componentType" : 5126,
            "count" : 2328,
            "type" : "VEC2"
        },
        {
            "bufferView" : 20,
            "componentType" : 5123,
            "count" : 3516,
            "type" : "SCALAR"
        }
    ],
    "bufferViews" : [
        {
            "buffer" : 0,
            "byteLength" : 24480,
            "byteOffset" : 0
        },
        {
            "buffer" : 0,
            "byteLength" : 24480,
            "byteOffset" : 24480
        },
        {
            "buffer" : 0,
            "byteLength" : 16320,
            "byteOffset" : 48960
        },
        {
            "buffer" : 0,
            "byteLength" : 5952,
            "byteOffset" : 65280
        },
        {
            "buffer" : 0,
            "byteLength" : 288,
            "byteOffset" : 71232
        },
        {
            "buffer" : 0,
            "byteLength" : 288,
            "byteOffset" : 71520
        },
        {
            "buffer" : 0,
            "byteLength" : 192,
            "byteOffset" : 71808
        },
        {
            "buffer" : 0,
            "byteLength" : 72,
            "byteOffset" : 72000
        },
        {
            "buffer" : 0,
            "byteLength" : 288,
            "byteOffset" : 72072
        },
        {
            "buffer" : 0,
            "byteLength" : 288,
            "byteOffset" : 72360
        },
        {
            "buffer" : 0,
            "byteLength" : 192,
            "byteOffset" : 72648
        },
        {
            "buffer" : 0,
            "byteLength" : 288,
            "byteOffset" : 72840
        },
        {
            "buffer" : 0,
            "byteLength" : 288,
            "byteOffset" : 73128
        },
        {
            "buffer" : 0,
            "byteLength" : 192,
            "byteOffset" : 73416
        },
        {
            "buffer" : 0,
            "byteLength" : 288,
            "byteOffset" : 73608
        },
        {
            "buffer" : 0,
            "byteLength" : 288,
            "byteOffset" : 73896
        },
        {
            "buffer" : 0,
            "byteLength" : 192,
            "byteOffset" : 74184
        },
        {
            "buffer" : 0,
            "byteLength" : 27936,
            "byteOffset" : 74376
        },
        {
            "buffer" : 0,
            "byteLength" : 27936,
            "byteOffset" : 102312
        },
        {
            "buffer" : 0,
            "byteLength" : 18624,
            "byteOffset" : 130248
        },
        {
            "buffer" : 0,
            "byteLength" : 7032,
            "byteOffset" : 148872
        }
    ],
    "buffers" : [
        {
            "byteLength" : 155904,
            "uri" : "Boar.bin"
        }
    ]
}
