{
    "asset" : {
        "generator" : "Khronos glTF Blender I/O v1.1.46",
        "version" : "2.0"
    },
    "scene" : 0,
    "scenes" : [
        {
            "name" : "Scene",
            "nodes" : [
                0,
                1,
                2,
                3,
                4,
                5,
                6,
                7,
                8,
                9,
                10
            ]
        }
    ],
    "nodes" : [
        {
            "name" : "Light",
            "rotation" : [
                0.16907575726509094,
                0.7558803558349609,
                -0.27217137813568115,
                0.570947527885437
            ],
            "scale" : [
                0.6434007287025452,
                0.6434006690979004,
                0.6434007883071899
            ],
            "translation" : [
                2.595918893814087,
                4.609479904174805,
                -0.6243699789047241
            ]
        },
        {
            "name" : "Camera",
            "rotation" : [
                0.483536034822464,
                0.33687159419059753,
                -0.20870360732078552,
                0.7804827094078064
            ],
            "translation" : [
                7.358891487121582,
                4.958309173583984,
                6.925790786743164
            ]
        },
        {
            "mesh" : 0,
            "name" : "\u7259",
            "rotation" : [
                0.43045932054519653,
                0.5609855651855469,
                -0.4304593503475189,
                0.5609855055809021
            ],
            "scale" : [
                0.3217003643512726,
                0.3217003643512726,
                0.3217003643512726
            ],
            "translation" : [
                -0.480147123336792,
                0.9717808961868286,
                -1.214295744895935
            ]
        },
        {
            "mesh" : 1,
            "name" : "\u7259.001",
            "rotation" : [
                0.5609855651855469,
                0.43045932054519653,
                -0.5609855651855469,
                0.43045929074287415
            ],
            "scale" : [
                0.3217003643512726,
                0.3217003643512726,
                0.3217003643512726
            ],
            "translation" : [
                0.2919337749481201,
                0.9717808961868286,
                -1.214295744895935
            ]
        },
        {
            "mesh" : 2,
            "name" : "Cube",
            "rotation" : [
                0,
                0.7071067690849304,
                0,
                0.7071067690849304
            ],
            "scale" : [
                1.0616111755371094,
                0.6434007287025452,
                0.6434007287025452
            ],
            "translation" : [
                -0.09410660713911057,
                1.0554546117782593,
                0.00816558301448822
            ]
        },
        {
            "mesh" : 3,
            "name" : "Sphere",
            "rotation" : [
                0,
                0.7071067690849304,
                0,
                0.7071067690849304
            ],
            "scale" : [
                0.12868015468120575,
                0.12868010997772217,
                0.12868013978004456
            ],
            "translation" : [
                -0.09410667419433594,
                1.2830443382263184,
                -1.0416271686553955
            ]
        },
        {
            "mesh" : 4,
            "name" : "Cylinder",
            "rotation" : [
                -0.5026837587356567,
                0.5688323378562927,
                -0.37229347229003906,
                0.5339816212654114
            ],
            "scale" : [
                0.06434009969234467,
                1.1581213474273682,
                0.06434009969234467
            ],
            "translation" : [
                0.2765634059906006,
                1.6444640159606934,
                0.008165568113327026
            ]
        },
        {
            "mesh" : 5,
            "name" : "Cone",
            "rotation" : [
                0.4894320070743561,
                0.8373798131942749,
                -0.07496006041765213,
                0.2315865457057953
            ],
            "scale" : [
                0.26309734582901,
                0.2630973160266876,
                0.26309734582901
            ],
            "translation" : [
                0.5888112783432007,
                1.4085943698883057,
                0.23108361661434174
            ]
        },
        {
            "mesh" : 6,
            "name" : "Circle",
            "rotation" : [
                -0.5,
                0.5,
                0.5,
                0.4999999701976776
            ],
            "scale" : [
                0.6434007287025452,
                0.6434007287025452,
                0.6434007287025452
            ],
            "translation" : [
                -0.09410660713911057,
                -0.048456788063049316,
                0.00816558301448822
            ]
        },
        {
            "mesh" : 7,
            "name" : "Circle.001",
            "rotation" : [
                -0.5,
                0.5,
                0.5,
                0.4999999701976776
            ],
            "scale" : [
                0.6434007287025452,
                0.6434007287025452,
                0.6434007287025452
            ],
            "translation" : [
                -0.48014700412750244,
                -0.048456788063049316,
                1.4204188585281372
            ]
        },
        {
            "mesh" : 8,
            "name" : "Circle.002",
            "rotation" : [
                -0.5,
                0.5,
                0.5,
                0.4999999701976776
            ],
            "scale" : [
                0.6434007287025452,
                0.6434007287025452,
                0.6434007287025452
            ],
            "translation" : [
                0.29193389415740967,
                -0.048456788063049316,
                1.4204188585281372
            ]
        }
    ],
    "materials" : [
        {
            "doubleSided" : true,
            "emissiveFactor" : [
                0,
                0,
                0
            ],
            "name" : "Material",
            "pbrMetallicRoughness" : {
                "baseColorFactor" : [
                    0.051410943269729614,
                    0.051410943269729614,
                    0.051410943269729614,
                    1
                ],
                "metallicFactor" : 0,
                "roughnessFactor" : 0
            }
        },
        {
            "doubleSided" : true,
            "emissiveFactor" : [
                0,
                0,
                0
            ],
            "name" : "Material.001",
            "pbrMetallicRoughness" : {
                "baseColorTexture" : {
                    "index" : 0,
                    "texCoord" : 0
                },
                "metallicFactor" : 0,
                "roughnessFactor" : 0.5
            }
        }
    ],
    "meshes" : [
        {
            "name" : "Torus",
            "primitives" : [
                {
                    "attributes" : {
                        "POSITION" : 0,
                        "NORMAL" : 1,
                        "TEXCOORD_0" : 2
                    },
                    "indices" : 3,
                    "material" : 0
                }
            ]
        },
        {
            "name" : "Torus.001",
            "primitives" : [
                {
                    "attributes" : {
                        "POSITION" : 4,
                        "NORMAL" : 5,
                        "TEXCOORD_0" : 6
                    },
                    "indices" : 3,
                    "material" : 0
                }
            ]
        },
        {
            "name" : "Cube",
            "primitives" : [
                {
                    "attributes" : {
                        "POSITION" : 7,
                        "NORMAL" : 8,
                        "TEXCOORD_0" : 9
                    },
                    "indices" : 10,
                    "material" : 1
                }
            ]
        },
        {
            "name" : "Sphere.001",
            "primitives" : [
                {
                    "attributes" : {
                        "POSITION" : 11,
                        "NORMAL" : 12,
                        "TEXCOORD_0" : 13
                    },
                    "indices" : 14,
                    "material" : 1
                }
            ]
        },
        {
            "name" : "Cylinder",
            "primitives" : [
                {
                    "attributes" : {
                        "POSITION" : 15,
                        "NORMAL" : 16,
                        "TEXCOORD_0" : 17
                    },
                    "indices" : 18,
                    "material" : 0
                }
            ]
        },
        {
            "name" : "Cone",
            "primitives" : [
                {
                    "attributes" : {
                        "POSITION" : 19,
                        "NORMAL" : 20,
                        "TEXCOORD_0" : 21
                    },
                    "indices" : 22,
                    "material" : 0
                }
            ]
        },
        {
            "name" : "Circle",
            "primitives" : [
                {
                    "attributes" : {
                        "POSITION" : 23,
                        "NORMAL" : 24,
                        "TEXCOORD_0" : 25
                    },
                    "indices" : 26,
                    "material" : 1
                }
            ]
        },
        {
            "name" : "Circle.001",
            "primitives" : [
                {
                    "attributes" : {
                        "POSITION" : 27,
                        "NORMAL" : 28,
                        "TEXCOORD_0" : 29
                    },
                    "indices" : 26,
                    "material" : 1
                }
            ]
        },
        {
            "name" : "Circle.002",
            "primitives" : [
                {
                    "attributes" : {
                        "POSITION" : 30,
                        "NORMAL" : 31,
                        "TEXCOORD_0" : 32
                    },
                    "indices" : 26,
                    "material" : 1
                }
            ]
        }
    ],
    "textures" : [
        {
            "source" : 0
        }
    ],
    "images" : [
        {
            "mimeType" : "image/png",
            "name" : "MetalBoar",
            "uri" : "MetalBoar.png"
        }
    ],
    "accessors" : [
        {
            "bufferView" : 0,
            "componentType" : 5126,
            "count" : 1164,
            "max" : [
                1.0862536430358887,
                0.25,
                1.25
            ],
            "min" : [
                -1.0825319290161133,
                -0.25,
                -0.5015369653701782
            ],
            "type" : "VEC3"
        },
        {
            "bufferView" : 1,
            "componentType" : 5126,
            "count" : 1164,
            "type" : "VEC3"
        },
        {
            "bufferView" : 2,
            "componentType" : 5126,
            "count" : 1164,
            "type" : "VEC2"
        },
        {
            "bufferView" : 3,
            "componentType" : 5123,
            "count" : 1758,
            "type" : "SCALAR"
        },
        {
            "bufferView" : 4,
            "componentType" : 5126,
            "count" : 1164,
            "max" : [
                1.0862536430358887,
                0.25,
                1.25
            ],
            "min" : [
                -1.0825319290161133,
                -0.25,
                -0.5015369653701782
            ],
            "type" : "VEC3"
        },
        {
            "bufferView" : 5,
            "componentType" : 5126,
            "count" : 1164,
            "type" : "VEC3"
        },
        {
            "bufferView" : 6,
            "componentType" : 5126,
            "count" : 1164,
            "type" : "VEC2"
        },
        {
            "bufferView" : 7,
            "componentType" : 5126,
            "count" : 56,
            "max" : [
                1,
                1,
                1
            ],
            "min" : [
                -1,
                -1,
                -1
            ],
            "type" : "VEC3"
        },
        {
            "bufferView" : 8,
            "componentType" : 5126,
            "count" : 56,
            "type" : "VEC3"
        },
        {
            "bufferView" : 9,
            "componentType" : 5126,
            "count" : 56,
            "type" : "VEC2"
        },
        {
            "bufferView" : 10,
            "componentType" : 5123,
            "count" : 96,
            "type" : "SCALAR"
        },
        {
            "bufferView" : 11,
            "componentType" : 5126,
            "count" : 1984,
            "max" : [
                1.000000238418579,
                1,
                1.0000003576278687
            ],
            "min" : [
                -0.9999998211860657,
                -1,
                -1
            ],
            "type" : "VEC3"
        },
        {
            "bufferView" : 12,
            "componentType" : 5126,
            "count" : 1984,
            "type" : "VEC3"
        },
        {
            "bufferView" : 13,
            "componentType" : 5126,
            "count" : 1984,
            "type" : "VEC2"
        },
        {
            "bufferView" : 14,
            "componentType" : 5123,
            "count" : 2880,
            "type" : "SCALAR"
        },
        {
            "bufferView" : 15,
            "componentType" : 5126,
            "count" : 192,
            "max" : [
                1,
                1,
                1
            ],
            "min" : [
                -1,
                -1,
                -1
            ],
            "type" : "VEC3"
        },
        {
            "bufferView" : 16,
            "componentType" : 5126,
            "count" : 192,
            "type" : "VEC3"
        },
        {
            "bufferView" : 17,
            "componentType" : 5126,
            "count" : 192,
            "type" : "VEC2"
        },
        {
            "bufferView" : 18,
            "componentType" : 5123,
            "count" : 372,
            "type" : "SCALAR"
        },
        {
            "bufferView" : 19,
            "componentType" : 5126,
            "count" : 128,
            "max" : [
                1,
                1,
                1
            ],
            "min" : [
                -1,
                -1,
                -1
            ],
            "type" : "VEC3"
        },
        {
            "bufferView" : 20,
            "componentType" : 5126,
            "count" : 128,
            "type" : "VEC3"
        },
        {
            "bufferView" : 21,
            "componentType" : 5126,
            "count" : 128,
            "type" : "VEC2"
        },
        {
            "bufferView" : 22,
            "componentType" : 5123,
            "count" : 186,
            "type" : "SCALAR"
        },
        {
            "bufferView" : 23,
            "componentType" : 5126,
            "count" : 192,
            "max" : [
                1.5086848735809326,
                0.07123870402574539,
                0.7809805870056152
            ],
            "min" : [
                0.8161877393722534,
                -0.06749416142702103,
                0.08848357200622559
            ],
            "type" : "VEC3"
        },
        {
            "bufferView" : 24,
            "componentType" : 5126,
            "count" : 192,
            "type" : "VEC3"
        },
        {
            "bufferView" : 25,
            "componentType" : 5126,
            "count" : 192,
            "type" : "VEC2"
        },
        {
            "bufferView" : 26,
            "componentType" : 5123,
            "count" : 372,
            "type" : "SCALAR"
        },
        {
            "bufferView" : 27,
            "componentType" : 5126,
            "count" : 192,
            "max" : [
                1.5086848735809326,
                0.07123870402574539,
                0.7809805870056152
            ],
            "min" : [
                0.8161877393722534,
                -0.06749416142702103,
                0.08848357200622559
            ],
            "type" : "VEC3"
        },
        {
            "bufferView" : 28,
            "componentType" : 5126,
            "count" : 192,
            "type" : "VEC3"
        },
        {
            "bufferView" : 29,
            "componentType" : 5126,
            "count" : 192,
            "type" : "VEC2"
        },
        {
            "bufferView" : 30,
            "componentType" : 5126,
            "count" : 192,
            "max" : [
                1.5086848735809326,
                0.07123870402574539,
                0.7809805870056152
            ],
            "min" : [
                0.8161877393722534,
                -0.06749416142702103,
                0.08848357200622559
            ],
            "type" : "VEC3"
        },
        {
            "bufferView" : 31,
            "componentType" : 5126,
            "count" : 192,
            "type" : "VEC3"
        },
        {
            "bufferView" : 32,
            "componentType" : 5126,
            "count" : 192,
            "type" : "VEC2"
        }
    ],
    "bufferViews" : [
        {
            "buffer" : 0,
            "byteLength" : 13968,
            "byteOffset" : 0
        },
        {
            "buffer" : 0,
            "byteLength" : 13968,
            "byteOffset" : 13968
        },
        {
            "buffer" : 0,
            "byteLength" : 9312,
            "byteOffset" : 27936
        },
        {
            "buffer" : 0,
            "byteLength" : 3516,
            "byteOffset" : 37248
        },
        {
            "buffer" : 0,
            "byteLength" : 13968,
            "byteOffset" : 40764
        },
        {
            "buffer" : 0,
            "byteLength" : 13968,
            "byteOffset" : 54732
        },
        {
            "buffer" : 0,
            "byteLength" : 9312,
            "byteOffset" : 68700
        },
        {
            "buffer" : 0,
            "byteLength" : 672,
            "byteOffset" : 78012
        },
        {
            "buffer" : 0,
            "byteLength" : 672,
            "byteOffset" : 78684
        },
        {
            "buffer" : 0,
            "byteLength" : 448,
            "byteOffset" : 79356
        },
        {
            "buffer" : 0,
            "byteLength" : 192,
            "byteOffset" : 79804
        },
        {
            "buffer" : 0,
            "byteLength" : 23808,
            "byteOffset" : 79996
        },
        {
            "buffer" : 0,
            "byteLength" : 23808,
            "byteOffset" : 103804
        },
        {
            "buffer" : 0,
            "byteLength" : 15872,
            "byteOffset" : 127612
        },
        {
            "buffer" : 0,
            "byteLength" : 5760,
            "byteOffset" : 143484
        },
        {
            "buffer" : 0,
            "byteLength" : 2304,
            "byteOffset" : 149244
        },
        {
            "buffer" : 0,
            "byteLength" : 2304,
            "byteOffset" : 151548
        },
        {
            "buffer" : 0,
            "byteLength" : 1536,
            "byteOffset" : 153852
        },
        {
            "buffer" : 0,
            "byteLength" : 744,
            "byteOffset" : 155388
        },
        {
            "buffer" : 0,
            "byteLength" : 1536,
            "byteOffset" : 156132
        },
        {
            "buffer" : 0,
            "byteLength" : 1536,
            "byteOffset" : 157668
        },
        {
            "buffer" : 0,
            "byteLength" : 1024,
            "byteOffset" : 159204
        },
        {
            "buffer" : 0,
            "byteLength" : 372,
            "byteOffset" : 160228
        },
        {
            "buffer" : 0,
            "byteLength" : 2304,
            "byteOffset" : 160600
        },
        {
            "buffer" : 0,
            "byteLength" : 2304,
            "byteOffset" : 162904
        },
        {
            "buffer" : 0,
            "byteLength" : 1536,
            "byteOffset" : 165208
        },
        {
            "buffer" : 0,
            "byteLength" : 744,
            "byteOffset" : 166744
        },
        {
            "buffer" : 0,
            "byteLength" : 2304,
            "byteOffset" : 167488
        },
        {
            "buffer" : 0,
            "byteLength" : 2304,
            "byteOffset" : 169792
        },
        {
            "buffer" : 0,
            "byteLength" : 1536,
            "byteOffset" : 172096
        },
        {
            "buffer" : 0,
            "byteLength" : 2304,
            "byteOffset" : 173632
        },
        {
            "buffer" : 0,
            "byteLength" : 2304,
            "byteOffset" : 175936
        },
        {
            "buffer" : 0,
            "byteLength" : 1536,
            "byteOffset" : 178240
        }
    ],
    "buffers" : [
        {
            "byteLength" : 179776,
            "uri" : "MetalBoar.bin"
        }
    ]
}
