{
    "asset" : {
        "generator" : "Khronos glTF Blender I/O v1.1.46",
        "version" : "2.0"
    },
    "scene" : 0,
    "scenes" : [
        {
            "name" : "Scene",
            "nodes" : [
                0,
                1,
                2,
                3,
                4,
                5
            ]
        }
    ],
    "nodes" : [
        {
            "name" : "Light",
            "rotation" : [
                0.5232754945755005,
                0.34203392267227173,
                -0.7269423604011536,
                0.284166157245636
            ],
            "translation" : [
                4.076245307922363,
                5.903862476348877,
                -1.0054532289505005
            ]
        },
        {
            "name" : "Camera",
            "rotation" : [
                0.8937963247299194,
                0.09062855690717697,
                -0.3857799172401428,
                0.20997287333011627
            ],
            "translation" : [
                7.358891487121582,
                4.958308696746826,
                6.925792217254639
            ]
        },
        {
            "mesh" : 0,
            "name" : "Sphere",
            "rotation" : [
                0.5,
                0.4999999701976776,
                -0.5000000596046448,
                0.4999999403953552
            ],
            "translation" : [
                -3.82777738571167,
                0,
                -3.827777624130249
            ]
        },
        {
            "mesh" : 1,
            "name" : "Torus",
            "rotation" : [
                0,
                0,
                -0.7071068286895752,
                0.7071067690849304
            ],
            "scale" : [
                15.017414093017578,
                15.017411231994629,
                1
            ],
            "translation" : [
                -3.8277769088745117,
                0,
                3.0586841106414795
            ]
        },
        {
            "mesh" : 2,
            "name" : "wing_low",
            "rotation" : [
                -0.9871895909309387,
                0,
                0,
                0.1595516800880432
            ],
            "scale" : [
                2.827904462814331,
                2.827904462814331,
                2.827904462814331
            ],
            "translation" : [
                -3.827777862548828,
                -6.316731929779053,
                4.596870422363281
            ]
        },
        {
            "mesh" : 3,
            "name" : "tree",
            "rotation" : [
                0,
                0.7071068286895752,
                0,
                0.7071067690849304
            ],
            "scale" : [
                2.9895431995391846,
                2.989543914794922,
                2.989543914794922
            ],
            "translation" : [
                -3.827777624130249,
                -2.0968337059020996,
                -3.827777624130249
            ]
        }
    ],
    "materials" : [
        {
            "doubleSided" : true,
            "emissiveFactor" : [
                0,
                0,
                0
            ],
            "name" : "Material.001",
            "pbrMetallicRoughness" : {
                "baseColorFactor" : [
                    0.8000000715255737,
                    0.0011918273521587253,
                    0,
                    1
                ],
                "metallicFactor" : 0.7981651425361633,
                "roughnessFactor" : 0
            }
        },
        {
            "doubleSided" : true,
            "emissiveFactor" : [
                0,
                0,
                0
            ],
            "name" : "Material.002",
            "pbrMetallicRoughness" : {
                "baseColorTexture" : {
                    "index" : 0,
                    "texCoord" : 0
                },
                "metallicFactor" : 0,
                "roughnessFactor" : 0.4000000059604645
            }
        },
        {
            "doubleSided" : true,
            "emissiveFactor" : [
                0,
                0,
                0
            ],
            "name" : "Material.010",
            "pbrMetallicRoughness" : {
                "baseColorFactor" : [
                    0.012982097454369068,
                    0.012982097454369068,
                    0.012982097454369068,
                    1
                ],
                "metallicFactor" : 0,
                "roughnessFactor" : 0.5
            }
        },
        {
            "doubleSided" : true,
            "emissiveFactor" : [
                0,
                0,
                0
            ],
            "name" : "None",
            "pbrMetallicRoughness" : {
                "baseColorTexture" : {
                    "index" : 1,
                    "texCoord" : 0
                },
                "metallicFactor" : 0,
                "roughnessFactor" : 0.2546440064907074
            }
        }
    ],
    "meshes" : [
        {
            "name" : "Sphere.001",
            "primitives" : [
                {
                    "attributes" : {
                        "POSITION" : 0,
                        "NORMAL" : 1,
                        "TEXCOORD_0" : 2
                    },
                    "indices" : 3,
                    "material" : 0
                },
                {
                    "attributes" : {
                        "POSITION" : 4,
                        "NORMAL" : 5,
                        "TEXCOORD_0" : 6
                    },
                    "indices" : 7,
                    "material" : 1
                }
            ]
        },
        {
            "name" : "Torus",
            "primitives" : [
                {
                    "attributes" : {
                        "POSITION" : 8,
                        "NORMAL" : 9,
                        "TEXCOORD_0" : 10
                    },
                    "indices" : 11
                }
            ]
        },
        {
            "name" : "wing_low",
            "primitives" : [
                {
                    "attributes" : {
                        "POSITION" : 12,
                        "NORMAL" : 13,
                        "TEXCOORD_0" : 14
                    },
                    "indices" : 15,
                    "material" : 2
                }
            ]
        },
        {
            "name" : "tree",
            "primitives" : [
                {
                    "attributes" : {
                        "POSITION" : 16,
                        "NORMAL" : 17,
                        "TEXCOORD_0" : 18
                    },
                    "indices" : 19,
                    "material" : 3
                }
            ]
        }
    ],
    "textures" : [
        {
            "source" : 0
        },
        {
            "source" : 1
        }
    ],
    "images" : [
        {
            "mimeType" : "image/png",
            "name" : "Metal",
            "uri" : "Metal.png"
        },
        {
            "mimeType" : "image/png",
            "name" : "WoodFence",
            "uri" : "WoodFence.png"
        }
    ],
    "accessors" : [
        {
            "bufferView" : 0,
            "componentType" : 5126,
            "count" : 2870,
            "max" : [
                1.000000238418579,
                1.0000003576278687,
                1
            ],
            "min" : [
                -0.9999998211860657,
                -1,
                -1
            ],
            "type" : "VEC3"
        },
        {
            "bufferView" : 1,
            "componentType" : 5126,
            "count" : 2870,
            "type" : "VEC3"
        },
        {
            "bufferView" : 2,
            "componentType" : 5126,
            "count" : 2870,
            "type" : "VEC2"
        },
        {
            "bufferView" : 3,
            "componentType" : 5123,
            "count" : 2880,
            "type" : "SCALAR"
        },
        {
            "bufferView" : 4,
            "componentType" : 5126,
            "count" : 1404,
            "max" : [
                5.724564552307129,
                5.724564552307129,
                5.724564552307129
            ],
            "min" : [
                -5.724564552307129,
                -5.724564552307129,
                -5.724564552307129
            ],
            "type" : "VEC3"
        },
        {
            "bufferView" : 5,
            "componentType" : 5126,
            "count" : 1404,
            "type" : "VEC3"
        },
        {
            "bufferView" : 6,
            "componentType" : 5126,
            "count" : 1404,
            "type" : "VEC2"
        },
        {
            "bufferView" : 7,
            "componentType" : 5123,
            "count" : 3042,
            "type" : "SCALAR"
        },
        {
            "bufferView" : 8,
            "componentType" : 5126,
            "count" : 3416,
            "max" : [
                1.25,
                1.25,
                0.25
            ],
            "min" : [
                -1.25,
                -1.25,
                -0.25
            ],
            "type" : "VEC3"
        },
        {
            "bufferView" : 9,
            "componentType" : 5126,
            "count" : 3416,
            "type" : "VEC3"
        },
        {
            "bufferView" : 10,
            "componentType" : 5126,
            "count" : 3416,
            "type" : "VEC2"
        },
        {
            "bufferView" : 11,
            "componentType" : 5123,
            "count" : 3456,
            "type" : "SCALAR"
        },
        {
            "bufferView" : 12,
            "componentType" : 5126,
            "count" : 23007,
            "max" : [
                10.223794937133789,
                1.56941556930542,
                1.6660501956939697
            ],
            "min" : [
                -10.341853141784668,
                -11.615846633911133,
                -2.880801200866699
            ],
            "type" : "VEC3"
        },
        {
            "bufferView" : 13,
            "componentType" : 5126,
            "count" : 23007,
            "type" : "VEC3"
        },
        {
            "bufferView" : 14,
            "componentType" : 5126,
            "count" : 23007,
            "type" : "VEC2"
        },
        {
            "bufferView" : 15,
            "componentType" : 5123,
            "count" : 31797,
            "type" : "SCALAR"
        },
        {
            "bufferView" : 16,
            "componentType" : 5126,
            "count" : 11634,
            "max" : [
                2.222280979156494,
                0,
                2.5765609741210938
            ],
            "min" : [
                -2.5730080604553223,
                -5.360194206237793,
                -2.3566479682922363
            ],
            "type" : "VEC3"
        },
        {
            "bufferView" : 17,
            "componentType" : 5126,
            "count" : 11634,
            "type" : "VEC3"
        },
        {
            "bufferView" : 18,
            "componentType" : 5126,
            "count" : 11634,
            "type" : "VEC2"
        },
        {
            "bufferView" : 19,
            "componentType" : 5123,
            "count" : 38625,
            "type" : "SCALAR"
        }
    ],
    "bufferViews" : [
        {
            "buffer" : 0,
            "byteLength" : 34440,
            "byteOffset" : 0
        },
        {
            "buffer" : 0,
            "byteLength" : 34440,
            "byteOffset" : 34440
        },
        {
            "buffer" : 0,
            "byteLength" : 22960,
            "byteOffset" : 68880
        },
        {
            "buffer" : 0,
            "byteLength" : 5760,
            "byteOffset" : 91840
        },
        {
            "buffer" : 0,
            "byteLength" : 16848,
            "byteOffset" : 97600
        },
        {
            "buffer" : 0,
            "byteLength" : 16848,
            "byteOffset" : 114448
        },
        {
            "buffer" : 0,
            "byteLength" : 11232,
            "byteOffset" : 131296
        },
        {
            "buffer" : 0,
            "byteLength" : 6084,
            "byteOffset" : 142528
        },
        {
            "buffer" : 0,
            "byteLength" : 40992,
            "byteOffset" : 148612
        },
        {
            "buffer" : 0,
            "byteLength" : 40992,
            "byteOffset" : 189604
        },
        {
            "buffer" : 0,
            "byteLength" : 27328,
            "byteOffset" : 230596
        },
        {
            "buffer" : 0,
            "byteLength" : 6912,
            "byteOffset" : 257924
        },
        {
            "buffer" : 0,
            "byteLength" : 276084,
            "byteOffset" : 264836
        },
        {
            "buffer" : 0,
            "byteLength" : 276084,
            "byteOffset" : 540920
        },
        {
            "buffer" : 0,
            "byteLength" : 184056,
            "byteOffset" : 817004
        },
        {
            "buffer" : 0,
            "byteLength" : 63594,
            "byteOffset" : 1001060
        },
        {
            "buffer" : 0,
            "byteLength" : 139608,
            "byteOffset" : 1064656
        },
        {
            "buffer" : 0,
            "byteLength" : 139608,
            "byteOffset" : 1204264
        },
        {
            "buffer" : 0,
            "byteLength" : 93072,
            "byteOffset" : 1343872
        },
        {
            "buffer" : 0,
            "byteLength" : 77250,
            "byteOffset" : 1436944
        }
    ],
    "buffers" : [
        {
            "byteLength" : 1514196,
            "uri" : "Boss.bin"
        }
    ]
}
