{
    "asset" : {
        "generator" : "Khronos glTF Blender I/O v1.1.46",
        "version" : "2.0"
    },
    "scene" : 0,
    "scenes" : [
        {
            "name" : "Scene",
            "nodes" : [
                0,
                1,
                2
            ]
        }
    ],
    "nodes" : [
        {
            "name" : "Light",
            "rotation" : [
                -0.5709477066993713,
                0.2721712291240692,
                0.7558802962303162,
                0.16907566785812378
            ],
            "translation" : [
                4.076245307922363,
                5.903862953186035,
                -1.0054525136947632
            ]
        },
        {
            "name" : "Camera",
            "rotation" : [
                -0.7804825901985168,
                0.20870345830917358,
                0.33687177300453186,
                0.4835361838340759
            ],
            "translation" : [
                7.358891487121582,
                4.958308219909668,
                6.925793647766113
            ]
        },
        {
            "mesh" : 0,
            "name" : "\u6a4b",
            "rotation" : [
                0.6554000973701477,
                0.7552818655967712,
                0,
                -1.493965129384378e-07
            ],
            "scale" : [
                0.5000002384185791,
                7.090001583099365,
                0.5000002384185791
            ],
            "translation" : [
                -0.28760528564453125,
                9.16932201385498,
                -0.1048923134803772
            ]
        }
    ],
    "materials" : [
        {
            "doubleSided" : true,
            "emissiveFactor" : [
                0,
                0,
                0
            ],
            "name" : "Material.023",
            "pbrMetallicRoughness" : {
                "baseColorTexture" : {
                    "index" : 0,
                    "texCoord" : 0
                },
                "metallicFactor" : 0,
                "roughnessFactor" : 0.5
            }
        },
        {
            "doubleSided" : true,
            "emissiveFactor" : [
                0,
                0,
                0
            ],
            "name" : "Material.024",
            "pbrMetallicRoughness" : {
                "baseColorTexture" : {
                    "index" : 1,
                    "texCoord" : 0
                },
                "metallicFactor" : 0,
                "roughnessFactor" : 0.5
            }
        },
        {
            "doubleSided" : true,
            "emissiveFactor" : [
                0,
                0,
                0
            ],
            "name" : "Material.025",
            "pbrMetallicRoughness" : {
                "baseColorTexture" : {
                    "index" : 2,
                    "texCoord" : 0
                },
                "metallicFactor" : 0,
                "roughnessFactor" : 0.5
            }
        },
        {
            "doubleSided" : true,
            "emissiveFactor" : [
                0,
                0,
                0
            ],
            "name" : "Material.026",
            "pbrMetallicRoughness" : {
                "baseColorTexture" : {
                    "index" : 3,
                    "texCoord" : 0
                },
                "metallicFactor" : 0,
                "roughnessFactor" : 0.5
            }
        },
        {
            "doubleSided" : true,
            "emissiveFactor" : [
                0,
                0,
                0
            ],
            "name" : "Material.027",
            "pbrMetallicRoughness" : {
                "baseColorTexture" : {
                    "index" : 4,
                    "texCoord" : 0
                },
                "metallicFactor" : 0,
                "roughnessFactor" : 0.5
            }
        }
    ],
    "meshes" : [
        {
            "name" : "Cylinder.007",
            "primitives" : [
                {
                    "attributes" : {
                        "POSITION" : 0,
                        "NORMAL" : 1,
                        "TEXCOORD_0" : 2
                    },
                    "indices" : 3,
                    "material" : 0
                },
                {
                    "attributes" : {
                        "POSITION" : 4,
                        "NORMAL" : 5,
                        "TEXCOORD_0" : 6
                    },
                    "indices" : 7,
                    "material" : 1
                },
                {
                    "attributes" : {
                        "POSITION" : 8,
                        "NORMAL" : 9,
                        "TEXCOORD_0" : 10
                    },
                    "indices" : 7,
                    "material" : 2
                },
                {
                    "attributes" : {
                        "POSITION" : 11,
                        "NORMAL" : 12,
                        "TEXCOORD_0" : 13
                    },
                    "indices" : 14,
                    "material" : 3
                },
                {
                    "attributes" : {
                        "POSITION" : 15,
                        "NORMAL" : 16,
                        "TEXCOORD_0" : 17
                    },
                    "indices" : 18,
                    "material" : 4
                }
            ]
        }
    ],
    "textures" : [
        {
            "source" : 0
        },
        {
            "source" : 0
        },
        {
            "source" : 0
        },
        {
            "source" : 0
        },
        {
            "source" : 0
        }
    ],
    "images" : [
        {
            "mimeType" : "image/png",
            "name" : "material_tree_trunk_01",
            "uri" : "material_tree_trunk_01.png"
        }
    ],
    "accessors" : [
        {
            "bufferView" : 0,
            "componentType" : 5126,
            "count" : 342,
            "max" : [
                1,
                1,
                1
            ],
            "min" : [
                -1,
                -1,
                -1
            ],
            "type" : "VEC3"
        },
        {
            "bufferView" : 1,
            "componentType" : 5126,
            "count" : 342,
            "type" : "VEC3"
        },
        {
            "bufferView" : 2,
            "componentType" : 5126,
            "count" : 342,
            "type" : "VEC2"
        },
        {
            "bufferView" : 3,
            "componentType" : 5123,
            "count" : 372,
            "type" : "SCALAR"
        },
        {
            "bufferView" : 4,
            "componentType" : 5126,
            "count" : 372,
            "max" : [
                1,
                0.9999999403953552,
                -6.302276611328125
            ],
            "min" : [
                -1,
                -0.9999999403953552,
                -8.302276611328125
            ],
            "type" : "VEC3"
        },
        {
            "bufferView" : 5,
            "componentType" : 5126,
            "count" : 372,
            "type" : "VEC3"
        },
        {
            "bufferView" : 6,
            "componentType" : 5126,
            "count" : 372,
            "type" : "VEC2"
        },
        {
            "bufferView" : 7,
            "componentType" : 5123,
            "count" : 372,
            "type" : "SCALAR"
        },
        {
            "bufferView" : 8,
            "componentType" : 5126,
            "count" : 372,
            "max" : [
                1,
                0.9999999403953552,
                -4.3470611572265625
            ],
            "min" : [
                -1,
                -0.9999999403953552,
                -6.3470611572265625
            ],
            "type" : "VEC3"
        },
        {
            "bufferView" : 9,
            "componentType" : 5126,
            "count" : 372,
            "type" : "VEC3"
        },
        {
            "bufferView" : 10,
            "componentType" : 5126,
            "count" : 372,
            "type" : "VEC2"
        },
        {
            "bufferView" : 11,
            "componentType" : 5126,
            "count" : 368,
            "max" : [
                1,
                0.9999999403953552,
                -2.5937652587890625
            ],
            "min" : [
                -1,
                -0.9999999403953552,
                -4.5937652587890625
            ],
            "type" : "VEC3"
        },
        {
            "bufferView" : 12,
            "componentType" : 5126,
            "count" : 368,
            "type" : "VEC3"
        },
        {
            "bufferView" : 13,
            "componentType" : 5126,
            "count" : 368,
            "type" : "VEC2"
        },
        {
            "bufferView" : 14,
            "componentType" : 5123,
            "count" : 372,
            "type" : "SCALAR"
        },
        {
            "bufferView" : 15,
            "componentType" : 5126,
            "count" : 366,
            "max" : [
                1,
                0.9999999403953552,
                -0.8202057480812073
            ],
            "min" : [
                -1,
                -0.9999999403953552,
                -2.8202056884765625
            ],
            "type" : "VEC3"
        },
        {
            "bufferView" : 16,
            "componentType" : 5126,
            "count" : 366,
            "type" : "VEC3"
        },
        {
            "bufferView" : 17,
            "componentType" : 5126,
            "count" : 366,
            "type" : "VEC2"
        },
        {
            "bufferView" : 18,
            "componentType" : 5123,
            "count" : 372,
            "type" : "SCALAR"
        }
    ],
    "bufferViews" : [
        {
            "buffer" : 0,
            "byteLength" : 4104,
            "byteOffset" : 0
        },
        {
            "buffer" : 0,
            "byteLength" : 4104,
            "byteOffset" : 4104
        },
        {
            "buffer" : 0,
            "byteLength" : 2736,
            "byteOffset" : 8208
        },
        {
            "buffer" : 0,
            "byteLength" : 744,
            "byteOffset" : 10944
        },
        {
            "buffer" : 0,
            "byteLength" : 4464,
            "byteOffset" : 11688
        },
        {
            "buffer" : 0,
            "byteLength" : 4464,
            "byteOffset" : 16152
        },
        {
            "buffer" : 0,
            "byteLength" : 2976,
            "byteOffset" : 20616
        },
        {
            "buffer" : 0,
            "byteLength" : 744,
            "byteOffset" : 23592
        },
        {
            "buffer" : 0,
            "byteLength" : 4464,
            "byteOffset" : 24336
        },
        {
            "buffer" : 0,
            "byteLength" : 4464,
            "byteOffset" : 28800
        },
        {
            "buffer" : 0,
            "byteLength" : 2976,
            "byteOffset" : 33264
        },
        {
            "buffer" : 0,
            "byteLength" : 4416,
            "byteOffset" : 36240
        },
        {
            "buffer" : 0,
            "byteLength" : 4416,
            "byteOffset" : 40656
        },
        {
            "buffer" : 0,
            "byteLength" : 2944,
            "byteOffset" : 45072
        },
        {
            "buffer" : 0,
            "byteLength" : 744,
            "byteOffset" : 48016
        },
        {
            "buffer" : 0,
            "byteLength" : 4392,
            "byteOffset" : 48760
        },
        {
            "buffer" : 0,
            "byteLength" : 4392,
            "byteOffset" : 53152
        },
        {
            "buffer" : 0,
            "byteLength" : 2928,
            "byteOffset" : 57544
        },
        {
            "buffer" : 0,
            "byteLength" : 744,
            "byteOffset" : 60472
        }
    ],
    "buffers" : [
        {
            "byteLength" : 61216,
            "uri" : "Bridge2.bin"
        }
    ]
}
