{
    "asset" : {
        "generator" : "Khronos glTF Blender I/O v1.1.46",
        "version" : "2.0"
    },
    "scene" : 0,
    "scenes" : [
        {
            "name" : "Scene",
            "nodes" : [
                0,
                1,
                2,
                3,
                4,
                5,
                6
            ]
        }
    ],
    "nodes" : [
        {
            "name" : "Light",
            "rotation" : [
                0.16907575726509094,
                0.7558803558349609,
                -0.27217137813568115,
                0.570947527885437
            ],
            "translation" : [
                4.076245307922363,
                5.903861999511719,
                -1.0054539442062378
            ]
        },
        {
            "name" : "Camera",
            "rotation" : [
                0.483536034822464,
                0.33687159419059753,
                -0.20870360732078552,
                0.7804827094078064
            ],
            "translation" : [
                7.358891487121582,
                4.958309173583984,
                6.925790786743164
            ]
        },
        {
            "mesh" : 0,
            "name" : "map",
            "rotation" : [
                0,
                0,
                -0.7071067690849304,
                0.7071067690849304
            ],
            "translation" : [
                -87,
                -40,
                0
            ]
        },
        {
            "mesh" : 1,
            "name" : "map.001",
            "rotation" : [
                0.7071067690849304,
                0,
                0,
                0.7071067690849304
            ],
            "translation" : [
                35.86185073852539,
                -40,
                -124
            ]
        },
        {
            "mesh" : 2,
            "name" : "map.002",
            "rotation" : [
                0.7071068286895752,
                -0.7071067690849304,
                0,
                -3.090862321641907e-08
            ],
            "translation" : [
                87,
                -40,
                0
            ]
        },
        {
            "mesh" : 3,
            "name" : "map.003",
            "translation" : [
                35.86185073852539,
                0,
                0
            ]
        },
        {
            "mesh" : 4,
            "name" : "map.004",
            "rotation" : [
                0,
                -0.7071067690849304,
                0.7071067690849304,
                -3.0908619663705394e-08
            ],
            "translation" : [
                -35,
                -40,
                124
            ]
        }
    ],
    "materials" : [
        {
            "doubleSided" : true,
            "emissiveFactor" : [
                0,
                0,
                0
            ],
            "name" : "Material.001",
            "normalTexture" : {
                "index" : 0,
                "texCoord" : 0
            },
            "pbrMetallicRoughness" : {
                "baseColorTexture" : {
                    "index" : 1,
                    "texCoord" : 0
                },
                "metallicFactor" : 0,
                "roughnessFactor" : 0.5
            }
        },
        {
            "doubleSided" : true,
            "emissiveFactor" : [
                0,
                0,
                0
            ],
            "name" : "Material.010",
            "normalTexture" : {
                "index" : 2,
                "texCoord" : 0
            },
            "pbrMetallicRoughness" : {
                "baseColorTexture" : {
                    "index" : 3,
                    "texCoord" : 0
                },
                "metallicFactor" : 0,
                "roughnessFactor" : 0.5
            }
        },
        {
            "doubleSided" : true,
            "emissiveFactor" : [
                0,
                0,
                0
            ],
            "name" : "Material.011",
            "normalTexture" : {
                "index" : 4,
                "texCoord" : 0
            },
            "pbrMetallicRoughness" : {
                "baseColorTexture" : {
                    "index" : 5,
                    "texCoord" : 0
                },
                "metallicFactor" : 0,
                "roughnessFactor" : 0.5
            }
        },
        {
            "doubleSided" : true,
            "emissiveFactor" : [
                0,
                0,
                0
            ],
            "name" : "Material.012",
            "normalTexture" : {
                "index" : 6,
                "texCoord" : 0
            },
            "pbrMetallicRoughness" : {
                "baseColorTexture" : {
                    "index" : 7,
                    "texCoord" : 0
                },
                "metallicFactor" : 0,
                "roughnessFactor" : 0.5
            }
        },
        {
            "doubleSided" : true,
            "emissiveFactor" : [
                0,
                0,
                0
            ],
            "name" : "Material.013",
            "normalTexture" : {
                "index" : 8,
                "texCoord" : 0
            },
            "pbrMetallicRoughness" : {
                "baseColorTexture" : {
                    "index" : 9,
                    "texCoord" : 0
                },
                "metallicFactor" : 0,
                "roughnessFactor" : 0.5
            }
        }
    ],
    "meshes" : [
        {
            "name" : "Plane",
            "primitives" : [
                {
                    "attributes" : {
                        "POSITION" : 0,
                        "NORMAL" : 1,
                        "TEXCOORD_0" : 2
                    },
                    "indices" : 3,
                    "material" : 0
                }
            ]
        },
        {
            "name" : "Plane.001",
            "primitives" : [
                {
                    "attributes" : {
                        "POSITION" : 4,
                        "NORMAL" : 5,
                        "TEXCOORD_0" : 6
                    },
                    "indices" : 7,
                    "material" : 1
                }
            ]
        },
        {
            "name" : "Plane.002",
            "primitives" : [
                {
                    "attributes" : {
                        "POSITION" : 8,
                        "NORMAL" : 9,
                        "TEXCOORD_0" : 10
                    },
                    "indices" : 11,
                    "material" : 2
                }
            ]
        },
        {
            "name" : "Plane.003",
            "primitives" : [
                {
                    "attributes" : {
                        "POSITION" : 12,
                        "NORMAL" : 13,
                        "TEXCOORD_0" : 14
                    },
                    "indices" : 15,
                    "material" : 3
                }
            ]
        },
        {
            "name" : "Plane.004",
            "primitives" : [
                {
                    "attributes" : {
                        "POSITION" : 16,
                        "NORMAL" : 17,
                        "TEXCOORD_0" : 18
                    },
                    "indices" : 7,
                    "material" : 4
                }
            ]
        }
    ],
    "textures" : [
        {
            "source" : 0
        },
        {
            "source" : 1
        },
        {
            "source" : 0
        },
        {
            "source" : 1
        },
        {
            "source" : 0
        },
        {
            "source" : 1
        },
        {
            "source" : 0
        },
        {
            "source" : 1
        },
        {
            "source" : 0
        },
        {
            "source" : 1
        }
    ],
    "images" : [
        {
            "mimeType" : "image/png",
            "name" : "NormalStone",
            "uri" : "NormalStone.png"
        },
        {
            "mimeType" : "image/png",
            "name" : "Stone",
            "uri" : "Stone.png"
        }
    ],
    "accessors" : [
        {
            "bufferView" : 0,
            "componentType" : 5126,
            "count" : 21004,
            "max" : [
                51,
                0,
                125
            ],
            "min" : [
                -123,
                0,
                -125
            ],
            "type" : "VEC3"
        },
        {
            "bufferView" : 1,
            "componentType" : 5126,
            "count" : 21004,
            "type" : "VEC3"
        },
        {
            "bufferView" : 2,
            "componentType" : 5126,
            "count" : 21004,
            "type" : "VEC2"
        },
        {
            "bufferView" : 3,
            "componentType" : 5123,
            "count" : 31506,
            "type" : "SCALAR"
        },
        {
            "bufferView" : 4,
            "componentType" : 5126,
            "count" : 14964,
            "max" : [
                51,
                0,
                -39
            ],
            "min" : [
                -123,
                0,
                -125
            ],
            "type" : "VEC3"
        },
        {
            "bufferView" : 5,
            "componentType" : 5126,
            "count" : 14964,
            "type" : "VEC3"
        },
        {
            "bufferView" : 6,
            "componentType" : 5126,
            "count" : 14964,
            "type" : "VEC2"
        },
        {
            "bufferView" : 7,
            "componentType" : 5123,
            "count" : 22446,
            "type" : "SCALAR"
        },
        {
            "bufferView" : 8,
            "componentType" : 5126,
            "count" : 21008,
            "max" : [
                51,
                0,
                125
            ],
            "min" : [
                -123,
                0,
                -125
            ],
            "type" : "VEC3"
        },
        {
            "bufferView" : 9,
            "componentType" : 5126,
            "count" : 21008,
            "type" : "VEC3"
        },
        {
            "bufferView" : 10,
            "componentType" : 5126,
            "count" : 21008,
            "type" : "VEC2"
        },
        {
            "bufferView" : 11,
            "componentType" : 5123,
            "count" : 31512,
            "type" : "SCALAR"
        },
        {
            "bufferView" : 12,
            "componentType" : 5126,
            "count" : 43500,
            "max" : [
                51,
                0,
                125
            ],
            "min" : [
                -123,
                0,
                -125
            ],
            "type" : "VEC3"
        },
        {
            "bufferView" : 13,
            "componentType" : 5126,
            "count" : 43500,
            "type" : "VEC3"
        },
        {
            "bufferView" : 14,
            "componentType" : 5126,
            "count" : 43500,
            "type" : "VEC2"
        },
        {
            "bufferView" : 15,
            "componentType" : 5123,
            "count" : 65250,
            "type" : "SCALAR"
        },
        {
            "bufferView" : 16,
            "componentType" : 5126,
            "count" : 14964,
            "max" : [
                51,
                0,
                -39
            ],
            "min" : [
                -123,
                0,
                -125
            ],
            "type" : "VEC3"
        },
        {
            "bufferView" : 17,
            "componentType" : 5126,
            "count" : 14964,
            "type" : "VEC3"
        },
        {
            "bufferView" : 18,
            "componentType" : 5126,
            "count" : 14964,
            "type" : "VEC2"
        }
    ],
    "bufferViews" : [
        {
            "buffer" : 0,
            "byteLength" : 252048,
            "byteOffset" : 0
        },
        {
            "buffer" : 0,
            "byteLength" : 252048,
            "byteOffset" : 252048
        },
        {
            "buffer" : 0,
            "byteLength" : 168032,
            "byteOffset" : 504096
        },
        {
            "buffer" : 0,
            "byteLength" : 63012,
            "byteOffset" : 672128
        },
        {
            "buffer" : 0,
            "byteLength" : 179568,
            "byteOffset" : 735140
        },
        {
            "buffer" : 0,
            "byteLength" : 179568,
            "byteOffset" : 914708
        },
        {
            "buffer" : 0,
            "byteLength" : 119712,
            "byteOffset" : 1094276
        },
        {
            "buffer" : 0,
            "byteLength" : 44892,
            "byteOffset" : 1213988
        },
        {
            "buffer" : 0,
            "byteLength" : 252096,
            "byteOffset" : 1258880
        },
        {
            "buffer" : 0,
            "byteLength" : 252096,
            "byteOffset" : 1510976
        },
        {
            "buffer" : 0,
            "byteLength" : 168064,
            "byteOffset" : 1763072
        },
        {
            "buffer" : 0,
            "byteLength" : 63024,
            "byteOffset" : 1931136
        },
        {
            "buffer" : 0,
            "byteLength" : 522000,
            "byteOffset" : 1994160
        },
        {
            "buffer" : 0,
            "byteLength" : 522000,
            "byteOffset" : 2516160
        },
        {
            "buffer" : 0,
            "byteLength" : 348000,
            "byteOffset" : 3038160
        },
        {
            "buffer" : 0,
            "byteLength" : 130500,
            "byteOffset" : 3386160
        },
        {
            "buffer" : 0,
            "byteLength" : 179568,
            "byteOffset" : 3516660
        },
        {
            "buffer" : 0,
            "byteLength" : 179568,
            "byteOffset" : 3696228
        },
        {
            "buffer" : 0,
            "byteLength" : 119712,
            "byteOffset" : 3875796
        }
    ],
    "buffers" : [
        {
            "byteLength" : 3995508,
            "uri" : "Dungen.bin"
        }
    ]
}
