{
    "asset" : {
        "generator" : "Khronos glTF Blender I/O v1.1.46",
        "version" : "2.0"
    },
    "scene" : 0,
    "scenes" : [
        {
            "name" : "Scene",
            "nodes" : [
                0,
                1,
                2,
                3,
                4,
                5,
                6,
                7,
                8,
                9
            ]
        }
    ],
    "nodes" : [
        {
            "name" : "Light",
            "rotation" : [
                0.16907575726509094,
                0.7558803558349609,
                -0.27217137813568115,
                0.570947527885437
            ],
            "translation" : [
                4.076245307922363,
                5.681874752044678,
                -5.13287353515625
            ]
        },
        {
            "name" : "Camera",
            "rotation" : [
                0.483536034822464,
                0.33687159419059753,
                -0.20870360732078552,
                0.7804827094078064
            ],
            "translation" : [
                7.358891487121582,
                4.736321926116943,
                2.7983713150024414
            ]
        },
        {
            "mesh" : 0,
            "name" : "Body2",
            "rotation" : [
                0,
                0.7071067690849304,
                0,
                0.7071067690849304
            ],
            "scale" : [
                0.2881787121295929,
                0.5187215805053711,
                0.2881787121295929
            ],
            "translation" : [
                0.0009270049631595612,
                0.6708739399909973,
                0.003978118300437927
            ]
        },
        {
            "mesh" : 1,
            "name" : "Head",
            "rotation" : [
                0,
                0.7071067690849304,
                0,
                0.7071067690849304
            ],
            "scale" : [
                0.4610857367515564,
                0.22477935254573822,
                0.46108582615852356
            ],
            "translation" : [
                0.0009270049631595612,
                1.102170467376709,
                0.003978118300437927
            ]
        },
        {
            "mesh" : 2,
            "name" : "Leg",
            "rotation" : [
                0,
                0.7071067690849304,
                0,
                0.7071067690849304
            ],
            "scale" : [
                0.4034501314163208,
                0.08645360916852951,
                0.29970577359199524
            ],
            "translation" : [
                0.0009270049631595612,
                0.2987452745437622,
                0.003978118300437927
            ]
        },
        {
            "mesh" : 3,
            "name" : "Arm.L",
            "rotation" : [
                0,
                0.7071067690849304,
                0,
                0.7071067690849304
            ],
            "scale" : [
                0.02881786786019802,
                0.028817877173423767,
                0.02881786786019802
            ],
            "translation" : [
                -0.2748868465423584,
                0.9868857264518738,
                -0.028907015919685364
            ]
        },
        {
            "mesh" : 4,
            "name" : "Arm.R",
            "rotation" : [
                0,
                0.7071067690849304,
                0,
                0.7071067690849304
            ],
            "scale" : [
                0.02881786786019802,
                0.028817877173423767,
                0.02881786786019802
            ],
            "translation" : [
                0.29008927941322327,
                0.9873356223106384,
                -0.05351167917251587
            ]
        },
        {
            "mesh" : 5,
            "name" : "Hand.L",
            "rotation" : [
                0.10898925364017487,
                0.5248968601226807,
                -0.17162014544010162,
                0.8265296220779419
            ],
            "scale" : [
                0.023054301738739014,
                0.017290722578763962,
                0.023054299876093864
            ],
            "translation" : [
                -0.4024202227592468,
                0.9855652451515198,
                -0.6323907971382141
            ]
        },
        {
            "mesh" : 6,
            "name" : "Hand.R",
            "rotation" : [
                0.6226701140403748,
                0.6144630908966064,
                -0.4067257344722748,
                0.26323217153549194
            ],
            "scale" : [
                0.023054299876093864,
                0.01729072444140911,
                0.023054298013448715
            ],
            "translation" : [
                0.3336312174797058,
                1.0979044437408447,
                -0.7016024589538574
            ]
        },
        {
            "mesh" : 7,
            "name" : "Body",
            "scale" : [
                0.29999998211860657,
                0.44999998807907104,
                0.30000001192092896
            ],
            "translation" : [
                0,
                0.6837570071220398,
                0
            ]
        }
    ],
    "materials" : [
        {
            "doubleSided" : true,
            "emissiveFactor" : [
                0,
                0,
                0
            ],
            "name" : "Meatal",
            "pbrMetallicRoughness" : {
                "baseColorTexture" : {
                    "index" : 0,
                    "texCoord" : 0
                },
                "metallicFactor" : 0,
                "roughnessFactor" : 0.5
            }
        },
        {
            "doubleSided" : true,
            "emissiveFactor" : [
                0,
                0,
                0
            ],
            "name" : "Eye",
            "pbrMetallicRoughness" : {
                "baseColorTexture" : {
                    "index" : 1,
                    "texCoord" : 0
                },
                "metallicFactor" : 0,
                "roughnessFactor" : 0.5
            }
        },
        {
            "doubleSided" : true,
            "emissiveFactor" : [
                0,
                0,
                0
            ],
            "name" : "Leg",
            "pbrMetallicRoughness" : {
                "baseColorTexture" : {
                    "index" : 2,
                    "texCoord" : 0
                },
                "metallicFactor" : 0,
                "roughnessFactor" : 0.5
            }
        }
    ],
    "meshes" : [
        {
            "name" : "Cylinder",
            "primitives" : [
                {
                    "attributes" : {
                        "POSITION" : 0,
                        "NORMAL" : 1,
                        "TEXCOORD_0" : 2
                    },
                    "indices" : 3,
                    "material" : 0
                }
            ]
        },
        {
            "name" : "Cone",
            "primitives" : [
                {
                    "attributes" : {
                        "POSITION" : 4,
                        "NORMAL" : 5,
                        "TEXCOORD_0" : 6
                    },
                    "indices" : 7,
                    "material" : 0
                },
                {
                    "attributes" : {
                        "POSITION" : 8,
                        "NORMAL" : 9,
                        "TEXCOORD_0" : 10
                    },
                    "indices" : 11,
                    "material" : 1
                }
            ]
        },
        {
            "name" : "Cylinder.002",
            "primitives" : [
                {
                    "attributes" : {
                        "POSITION" : 12,
                        "NORMAL" : 13,
                        "TEXCOORD_0" : 14
                    },
                    "indices" : 15,
                    "material" : 0
                },
                {
                    "attributes" : {
                        "POSITION" : 16,
                        "NORMAL" : 17,
                        "TEXCOORD_0" : 18
                    },
                    "indices" : 19,
                    "material" : 2
                }
            ]
        },
        {
            "name" : "Sphere.004",
            "primitives" : [
                {
                    "attributes" : {
                        "POSITION" : 20,
                        "NORMAL" : 21,
                        "TEXCOORD_0" : 22
                    },
                    "indices" : 23,
                    "material" : 0
                }
            ]
        },
        {
            "name" : "Sphere.005",
            "primitives" : [
                {
                    "attributes" : {
                        "POSITION" : 24,
                        "NORMAL" : 25,
                        "TEXCOORD_0" : 26
                    },
                    "indices" : 27,
                    "material" : 0
                }
            ]
        },
        {
            "name" : "Sphere.006",
            "primitives" : [
                {
                    "attributes" : {
                        "POSITION" : 28,
                        "NORMAL" : 29,
                        "TEXCOORD_0" : 30
                    },
                    "indices" : 31,
                    "material" : 0
                }
            ]
        },
        {
            "name" : "Sphere.007",
            "primitives" : [
                {
                    "attributes" : {
                        "POSITION" : 32,
                        "NORMAL" : 33,
                        "TEXCOORD_0" : 34
                    },
                    "indices" : 31,
                    "material" : 0
                }
            ]
        },
        {
            "name" : "Torus",
            "primitives" : [
                {
                    "attributes" : {
                        "POSITION" : 35,
                        "NORMAL" : 36,
                        "TEXCOORD_0" : 37
                    },
                    "indices" : 38,
                    "material" : 0
                }
            ]
        }
    ],
    "textures" : [
        {
            "source" : 0
        },
        {
            "source" : 1
        },
        {
            "source" : 2
        }
    ],
    "images" : [
        {
            "mimeType" : "image/png",
            "name" : "Metal",
            "uri" : "Metal.png"
        },
        {
            "mimeType" : "image/png",
            "name" : "Eye",
            "uri" : "Eye.png"
        },
        {
            "mimeType" : "image/png",
            "name" : "Leg",
            "uri" : "Leg.png"
        }
    ],
    "accessors" : [
        {
            "bufferView" : 0,
            "componentType" : 5126,
            "count" : 252,
            "max" : [
                1,
                1.3296875953674316,
                1
            ],
            "min" : [
                -1,
                -0.6703124642372131,
                -1
            ],
            "type" : "VEC3"
        },
        {
            "bufferView" : 1,
            "componentType" : 5126,
            "count" : 252,
            "type" : "VEC3"
        },
        {
            "bufferView" : 2,
            "componentType" : 5126,
            "count" : 252,
            "type" : "VEC2"
        },
        {
            "bufferView" : 3,
            "componentType" : 5123,
            "count" : 504,
            "type" : "SCALAR"
        },
        {
            "bufferView" : 4,
            "componentType" : 5126,
            "count" : 396,
            "max" : [
                1,
                2.7951059341430664,
                1
            ],
            "min" : [
                -1,
                -0.09074974060058594,
                -1
            ],
            "type" : "VEC3"
        },
        {
            "bufferView" : 5,
            "componentType" : 5126,
            "count" : 396,
            "type" : "VEC3"
        },
        {
            "bufferView" : 6,
            "componentType" : 5126,
            "count" : 396,
            "type" : "VEC2"
        },
        {
            "bufferView" : 7,
            "componentType" : 5123,
            "count" : 768,
            "type" : "SCALAR"
        },
        {
            "bufferView" : 8,
            "componentType" : 5126,
            "count" : 3968,
            "max" : [
                0.8249696493148804,
                1.1417279243469238,
                0.43750014901161194
            ],
            "min" : [
                0.574969470500946,
                0.6289076805114746,
                -0.43750011920928955
            ],
            "type" : "VEC3"
        },
        {
            "bufferView" : 9,
            "componentType" : 5126,
            "count" : 3968,
            "type" : "VEC3"
        },
        {
            "bufferView" : 10,
            "componentType" : 5126,
            "count" : 3968,
            "type" : "VEC2"
        },
        {
            "bufferView" : 11,
            "componentType" : 5123,
            "count" : 5760,
            "type" : "SCALAR"
        },
        {
            "bufferView" : 12,
            "componentType" : 5126,
            "count" : 192,
            "max" : [
                1,
                1.3663471937179565,
                1
            ],
            "min" : [
                -1,
                -0.6336528062820435,
                -1
            ],
            "type" : "VEC3"
        },
        {
            "bufferView" : 13,
            "componentType" : 5126,
            "count" : 192,
            "type" : "VEC3"
        },
        {
            "bufferView" : 14,
            "componentType" : 5126,
            "count" : 192,
            "type" : "VEC2"
        },
        {
            "bufferView" : 15,
            "componentType" : 5123,
            "count" : 372,
            "type" : "SCALAR"
        },
        {
            "bufferView" : 16,
            "componentType" : 5126,
            "count" : 704,
            "max" : [
                1.2142856121063232,
                1.6764124631881714,
                1.5771870613098145
            ],
            "min" : [
                -1.2142856121063232,
                -3.256920576095581,
                -1.5811097621917725
            ],
            "type" : "VEC3"
        },
        {
            "bufferView" : 17,
            "componentType" : 5126,
            "count" : 704,
            "type" : "VEC3"
        },
        {
            "bufferView" : 18,
            "componentType" : 5126,
            "count" : 704,
            "type" : "VEC2"
        },
        {
            "bufferView" : 19,
            "componentType" : 5123,
            "count" : 1320,
            "type" : "SCALAR"
        },
        {
            "bufferView" : 20,
            "componentType" : 5126,
            "count" : 4352,
            "max" : [
                21.488445281982422,
                3.137164354324341,
                0.4603142738342285
            ],
            "min" : [
                -0.24498844146728516,
                -1.106541395187378,
                -10.486587524414062
            ],
            "type" : "VEC3"
        },
        {
            "bufferView" : 21,
            "componentType" : 5126,
            "count" : 4352,
            "type" : "VEC3"
        },
        {
            "bufferView" : 22,
            "componentType" : 5126,
            "count" : 4352,
            "type" : "VEC2"
        },
        {
            "bufferView" : 23,
            "componentType" : 5123,
            "count" : 6504,
            "type" : "SCALAR"
        },
        {
            "bufferView" : 24,
            "componentType" : 5126,
            "count" : 4352,
            "max" : [
                22.81405258178711,
                4.633526802062988,
                8.042070388793945
            ],
            "min" : [
                -0.7625656127929688,
                -1.229365587234497,
                -0.7889556884765625
            ],
            "type" : "VEC3"
        },
        {
            "bufferView" : 25,
            "componentType" : 5126,
            "count" : 4352,
            "type" : "VEC3"
        },
        {
            "bufferView" : 26,
            "componentType" : 5126,
            "count" : 4352,
            "type" : "VEC2"
        },
        {
            "bufferView" : 27,
            "componentType" : 5123,
            "count" : 6504,
            "type" : "SCALAR"
        },
        {
            "bufferView" : 28,
            "componentType" : 5126,
            "count" : 2464,
            "max" : [
                5.49844217300415,
                1,
                1.6617138385772705
            ],
            "min" : [
                -0.9999998211860657,
                -1,
                -1.4251787662506104
            ],
            "type" : "VEC3"
        },
        {
            "bufferView" : 29,
            "componentType" : 5126,
            "count" : 2464,
            "type" : "VEC3"
        },
        {
            "bufferView" : 30,
            "componentType" : 5126,
            "count" : 2464,
            "type" : "VEC2"
        },
        {
            "bufferView" : 31,
            "componentType" : 5123,
            "count" : 3768,
            "type" : "SCALAR"
        },
        {
            "bufferView" : 32,
            "componentType" : 5126,
            "count" : 2464,
            "max" : [
                5.49844217300415,
                1,
                1.6617138385772705
            ],
            "min" : [
                -0.9999998211860657,
                -1,
                -1.4251787662506104
            ],
            "type" : "VEC3"
        },
        {
            "bufferView" : 33,
            "componentType" : 5126,
            "count" : 2464,
            "type" : "VEC3"
        },
        {
            "bufferView" : 34,
            "componentType" : 5126,
            "count" : 2464,
            "type" : "VEC2"
        },
        {
            "bufferView" : 35,
            "componentType" : 5126,
            "count" : 2304,
            "max" : [
                1.25,
                0.25,
                1.25
            ],
            "min" : [
                -1.25,
                -0.25,
                -1.25
            ],
            "type" : "VEC3"
        },
        {
            "bufferView" : 36,
            "componentType" : 5126,
            "count" : 2304,
            "type" : "VEC3"
        },
        {
            "bufferView" : 37,
            "componentType" : 5126,
            "count" : 2304,
            "type" : "VEC2"
        },
        {
            "bufferView" : 38,
            "componentType" : 5123,
            "count" : 3456,
            "type" : "SCALAR"
        }
    ],
    "bufferViews" : [
        {
            "buffer" : 0,
            "byteLength" : 3024,
            "byteOffset" : 0
        },
        {
            "buffer" : 0,
            "byteLength" : 3024,
            "byteOffset" : 3024
        },
        {
            "buffer" : 0,
            "byteLength" : 2016,
            "byteOffset" : 6048
        },
        {
            "buffer" : 0,
            "byteLength" : 1008,
            "byteOffset" : 8064
        },
        {
            "buffer" : 0,
            "byteLength" : 4752,
            "byteOffset" : 9072
        },
        {
            "buffer" : 0,
            "byteLength" : 4752,
            "byteOffset" : 13824
        },
        {
            "buffer" : 0,
            "byteLength" : 3168,
            "byteOffset" : 18576
        },
        {
            "buffer" : 0,
            "byteLength" : 1536,
            "byteOffset" : 21744
        },
        {
            "buffer" : 0,
            "byteLength" : 47616,
            "byteOffset" : 23280
        },
        {
            "buffer" : 0,
            "byteLength" : 47616,
            "byteOffset" : 70896
        },
        {
            "buffer" : 0,
            "byteLength" : 31744,
            "byteOffset" : 118512
        },
        {
            "buffer" : 0,
            "byteLength" : 11520,
            "byteOffset" : 150256
        },
        {
            "buffer" : 0,
            "byteLength" : 2304,
            "byteOffset" : 161776
        },
        {
            "buffer" : 0,
            "byteLength" : 2304,
            "byteOffset" : 164080
        },
        {
            "buffer" : 0,
            "byteLength" : 1536,
            "byteOffset" : 166384
        },
        {
            "buffer" : 0,
            "byteLength" : 744,
            "byteOffset" : 167920
        },
        {
            "buffer" : 0,
            "byteLength" : 8448,
            "byteOffset" : 168664
        },
        {
            "buffer" : 0,
            "byteLength" : 8448,
            "byteOffset" : 177112
        },
        {
            "buffer" : 0,
            "byteLength" : 5632,
            "byteOffset" : 185560
        },
        {
            "buffer" : 0,
            "byteLength" : 2640,
            "byteOffset" : 191192
        },
        {
            "buffer" : 0,
            "byteLength" : 52224,
            "byteOffset" : 193832
        },
        {
            "buffer" : 0,
            "byteLength" : 52224,
            "byteOffset" : 246056
        },
        {
            "buffer" : 0,
            "byteLength" : 34816,
            "byteOffset" : 298280
        },
        {
            "buffer" : 0,
            "byteLength" : 13008,
            "byteOffset" : 333096
        },
        {
            "buffer" : 0,
            "byteLength" : 52224,
            "byteOffset" : 346104
        },
        {
            "buffer" : 0,
            "byteLength" : 52224,
            "byteOffset" : 398328
        },
        {
            "buffer" : 0,
            "byteLength" : 34816,
            "byteOffset" : 450552
        },
        {
            "buffer" : 0,
            "byteLength" : 13008,
            "byteOffset" : 485368
        },
        {
            "buffer" : 0,
            "byteLength" : 29568,
            "byteOffset" : 498376
        },
        {
            "buffer" : 0,
            "byteLength" : 29568,
            "byteOffset" : 527944
        },
        {
            "buffer" : 0,
            "byteLength" : 19712,
            "byteOffset" : 557512
        },
        {
            "buffer" : 0,
            "byteLength" : 7536,
            "byteOffset" : 577224
        },
        {
            "buffer" : 0,
            "byteLength" : 29568,
            "byteOffset" : 584760
        },
        {
            "buffer" : 0,
            "byteLength" : 29568,
            "byteOffset" : 614328
        },
        {
            "buffer" : 0,
            "byteLength" : 19712,
            "byteOffset" : 643896
        },
        {
            "buffer" : 0,
            "byteLength" : 27648,
            "byteOffset" : 663608
        },
        {
            "buffer" : 0,
            "byteLength" : 27648,
            "byteOffset" : 691256
        },
        {
            "buffer" : 0,
            "byteLength" : 18432,
            "byteOffset" : 718904
        },
        {
            "buffer" : 0,
            "byteLength" : 6912,
            "byteOffset" : 737336
        }
    ],
    "buffers" : [
        {
            "byteLength" : 744248,
            "uri" : "Lobo.bin"
        }
    ]
}
