{
    "asset" : {
        "generator" : "Khronos glTF Blender I/O v1.1.46",
        "version" : "2.0"
    },
    "scene" : 0,
    "scenes" : [
        {
            "name" : "Scene",
            "nodes" : [
                0,
                1,
                2,
                3
            ]
        }
    ],
    "nodes" : [
        {
            "name" : "Light",
            "rotation" : [
                0.16907575726509094,
                0.7558803558349609,
                -0.27217137813568115,
                0.570947527885437
            ],
            "translation" : [
                4.076245307922363,
                5.903861999511719,
                -1.0054539442062378
            ]
        },
        {
            "name" : "Camera",
            "rotation" : [
                0.483536034822464,
                0.33687159419059753,
                -0.20870360732078552,
                0.7804827094078064
            ],
            "translation" : [
                7.358891487121582,
                4.958309173583984,
                6.925790786743164
            ]
        },
        {
            "mesh" : 0,
            "name" : "map",
            "translation" : [
                35.86185073852539,
                0,
                0
            ]
        },
        {
            "mesh" : 1,
            "name" : "Cube",
            "rotation" : [
                0.12594498693943024,
                0.9820476770401001,
                0.13928772509098053,
                0.017863351851701736
            ],
            "translation" : [
                0,
                27.903432846069336,
                0
            ]
        }
    ],
    "materials" : [
        {
            "doubleSided" : true,
            "emissiveFactor" : [
                0,
                0,
                0
            ],
            "name" : "Material",
            "normalTexture" : {
                "index" : 0,
                "texCoord" : 0
            },
            "pbrMetallicRoughness" : {
                "baseColorTexture" : {
                    "index" : 1,
                    "texCoord" : 0
                },
                "metallicFactor" : 0,
                "roughnessFactor" : 0.5
            }
        },
        {
            "doubleSided" : true,
            "emissiveFactor" : [
                0,
                0,
                0
            ],
            "name" : "Material.001",
            "pbrMetallicRoughness" : {
                "baseColorTexture" : {
                    "index" : 2,
                    "texCoord" : 0
                },
                "metallicFactor" : 0,
                "roughnessFactor" : 0.5
            }
        }
    ],
    "meshes" : [
        {
            "name" : "Plane",
            "primitives" : [
                {
                    "attributes" : {
                        "POSITION" : 0,
                        "NORMAL" : 1,
                        "TEXCOORD_0" : 2
                    },
                    "indices" : 3,
                    "material" : 0
                }
            ]
        },
        {
            "name" : "Cube.001",
            "primitives" : [
                {
                    "attributes" : {
                        "POSITION" : 4,
                        "NORMAL" : 5,
                        "TEXCOORD_0" : 6
                    },
                    "indices" : 7,
                    "material" : 1
                }
            ]
        }
    ],
    "textures" : [
        {
            "source" : 0
        },
        {
            "source" : 1
        },
        {
            "source" : 2
        }
    ],
    "images" : [
        {
            "mimeType" : "image/png",
            "name" : "NormalMapDef2",
            "uri" : "NormalMapDef2.png"
        },
        {
            "mimeType" : "image/png",
            "name" : "mapDef2",
            "uri" : "mapDef2.png"
        },
        {
            "mimeType" : "image/png",
            "name" : "TombStone",
            "uri" : "TombStone.png"
        }
    ],
    "accessors" : [
        {
            "bufferView" : 0,
            "componentType" : 5126,
            "count" : 39996,
            "max" : [
                63,
                25.573575973510742,
                101
            ],
            "min" : [
                -135,
                0,
                -101
            ],
            "type" : "VEC3"
        },
        {
            "bufferView" : 1,
            "componentType" : 5126,
            "count" : 39996,
            "type" : "VEC3"
        },
        {
            "bufferView" : 2,
            "componentType" : 5126,
            "count" : 39996,
            "type" : "VEC2"
        },
        {
            "bufferView" : 3,
            "componentType" : 5123,
            "count" : 59994,
            "type" : "SCALAR"
        },
        {
            "bufferView" : 4,
            "componentType" : 5126,
            "count" : 248,
            "max" : [
                0.6010993719100952,
                2.324073076248169,
                2.1165406703948975
            ],
            "min" : [
                -0.4522080421447754,
                -3.1170835494995117,
                -2.116544008255005
            ],
            "type" : "VEC3"
        },
        {
            "bufferView" : 5,
            "componentType" : 5126,
            "count" : 248,
            "type" : "VEC3"
        },
        {
            "bufferView" : 6,
            "componentType" : 5126,
            "count" : 248,
            "type" : "VEC2"
        },
        {
            "bufferView" : 7,
            "componentType" : 5123,
            "count" : 504,
            "type" : "SCALAR"
        }
    ],
    "bufferViews" : [
        {
            "buffer" : 0,
            "byteLength" : 479952,
            "byteOffset" : 0
        },
        {
            "buffer" : 0,
            "byteLength" : 479952,
            "byteOffset" : 479952
        },
        {
            "buffer" : 0,
            "byteLength" : 319968,
            "byteOffset" : 959904
        },
        {
            "buffer" : 0,
            "byteLength" : 119988,
            "byteOffset" : 1279872
        },
        {
            "buffer" : 0,
            "byteLength" : 2976,
            "byteOffset" : 1399860
        },
        {
            "buffer" : 0,
            "byteLength" : 2976,
            "byteOffset" : 1402836
        },
        {
            "buffer" : 0,
            "byteLength" : 1984,
            "byteOffset" : 1405812
        },
        {
            "buffer" : 0,
            "byteLength" : 1008,
            "byteOffset" : 1407796
        }
    ],
    "buffers" : [
        {
            "byteLength" : 1408804,
            "uri" : "GameOver.bin"
        }
    ]
}
