{
    "asset" : {
        "generator" : "Khronos glTF Blender I/O v1.1.46",
        "version" : "2.0"
    },
    "scene" : 0,
    "scenes" : [
        {
            "name" : "Scene",
            "nodes" : [
                0,
                1,
                2,
                3,
                4,
                5
            ]
        }
    ],
    "nodes" : [
        {
            "name" : "Light",
            "rotation" : [
                0.16907575726509094,
                0.7558803558349609,
                -0.27217137813568115,
                0.570947527885437
            ],
            "translation" : [
                4.076245307922363,
                5.903861999511719,
                -1.0054539442062378
            ]
        },
        {
            "name" : "Camera",
            "rotation" : [
                0.483536034822464,
                0.33687159419059753,
                -0.20870360732078552,
                0.7804827094078064
            ],
            "translation" : [
                7.358891487121582,
                4.958309173583984,
                6.925790786743164
            ]
        },
        {
            "mesh" : 0,
            "name" : "map"
        },
        {
            "mesh" : 1,
            "name" : "Cylinder",
            "rotation" : [
                0,
                0,
                0.7101853489875793,
                0.704014778137207
            ],
            "scale" : [
                1,
                11.319999694824219,
                1
            ],
            "translation" : [
                93.79828643798828,
                0.7351880073547363,
                0
            ]
        },
        {
            "mesh" : 2,
            "name" : "\u6a4b",
            "rotation" : [
                0,
                0,
                0.7552817463874817,
                0.6554002165794373
            ],
            "scale" : [
                0.5,
                7.089999675750732,
                0.5
            ],
            "translation" : [
                93.1906967163086,
                9.169293403625488,
                -100.9744644165039
            ]
        },
        {
            "mesh" : 3,
            "name" : "\u5ddd",
            "scale" : [
                10,
                1,
                200
            ],
            "translation" : [
                95.05256652832031,
                -1.2322678565979004,
                0
            ]
        }
    ],
    "materials" : [
        {
            "doubleSided" : true,
            "emissiveFactor" : [
                0,
                0,
                0
            ],
            "name" : "grass",
            "normalTexture" : {
                "index" : 0,
                "texCoord" : 0
            },
            "pbrMetallicRoughness" : {
                "baseColorTexture" : {
                    "index" : 1,
                    "texCoord" : 0
                },
                "metallicFactor" : 0,
                "roughnessFactor" : 0.5
            }
        },
        {
            "doubleSided" : true,
            "emissiveFactor" : [
                0,
                0,
                0
            ],
            "name" : "sand",
            "normalTexture" : {
                "index" : 2,
                "texCoord" : 0
            },
            "pbrMetallicRoughness" : {
                "baseColorTexture" : {
                    "index" : 3,
                    "texCoord" : 0
                },
                "metallicFactor" : 0,
                "roughnessFactor" : 0.5
            }
        },
        {
            "doubleSided" : true,
            "emissiveFactor" : [
                0,
                0,
                0
            ],
            "name" : "Material.003",
            "pbrMetallicRoughness" : {
                "baseColorTexture" : {
                    "index" : 4,
                    "texCoord" : 0
                },
                "metallicFactor" : 0,
                "roughnessFactor" : 0.5
            }
        },
        {
            "doubleSided" : true,
            "emissiveFactor" : [
                0,
                0,
                0
            ],
            "name" : "Material.008",
            "pbrMetallicRoughness" : {
                "baseColorTexture" : {
                    "index" : 5,
                    "texCoord" : 0
                },
                "metallicFactor" : 0,
                "roughnessFactor" : 0.5
            }
        },
        {
            "doubleSided" : true,
            "emissiveFactor" : [
                0,
                0,
                0
            ],
            "name" : "Material.004",
            "pbrMetallicRoughness" : {
                "baseColorTexture" : {
                    "index" : 6,
                    "texCoord" : 0
                },
                "metallicFactor" : 0,
                "roughnessFactor" : 0.5
            }
        },
        {
            "doubleSided" : true,
            "emissiveFactor" : [
                0,
                0,
                0
            ],
            "name" : "Material.005",
            "pbrMetallicRoughness" : {
                "baseColorTexture" : {
                    "index" : 7,
                    "texCoord" : 0
                },
                "metallicFactor" : 0,
                "roughnessFactor" : 0.5
            }
        },
        {
            "doubleSided" : true,
            "emissiveFactor" : [
                0,
                0,
                0
            ],
            "name" : "Material.006",
            "pbrMetallicRoughness" : {
                "baseColorTexture" : {
                    "index" : 8,
                    "texCoord" : 0
                },
                "metallicFactor" : 0,
                "roughnessFactor" : 0.5
            }
        },
        {
            "doubleSided" : true,
            "emissiveFactor" : [
                0,
                0,
                0
            ],
            "name" : "Material.007",
            "pbrMetallicRoughness" : {
                "baseColorTexture" : {
                    "index" : 9,
                    "texCoord" : 0
                },
                "metallicFactor" : 0,
                "roughnessFactor" : 0.5
            }
        },
        {
            "doubleSided" : true,
            "emissiveFactor" : [
                0,
                0,
                0
            ],
            "name" : "Material.009",
            "pbrMetallicRoughness" : {
                "baseColorTexture" : {
                    "index" : 10,
                    "texCoord" : 0
                },
                "metallicFactor" : 0,
                "roughnessFactor" : 0.5
            }
        }
    ],
    "meshes" : [
        {
            "name" : "Plane",
            "primitives" : [
                {
                    "attributes" : {
                        "POSITION" : 0,
                        "NORMAL" : 1,
                        "TEXCOORD_0" : 2
                    },
                    "indices" : 3,
                    "material" : 0
                },
                {
                    "attributes" : {
                        "POSITION" : 4,
                        "NORMAL" : 5,
                        "TEXCOORD_0" : 6
                    },
                    "indices" : 7,
                    "material" : 1
                }
            ]
        },
        {
            "name" : "Cylinder",
            "primitives" : [
                {
                    "attributes" : {
                        "POSITION" : 8,
                        "NORMAL" : 9,
                        "TEXCOORD_0" : 10
                    },
                    "indices" : 11,
                    "material" : 2
                }
            ]
        },
        {
            "name" : "Cylinder.005",
            "primitives" : [
                {
                    "attributes" : {
                        "POSITION" : 12,
                        "NORMAL" : 13,
                        "TEXCOORD_0" : 14
                    },
                    "indices" : 11,
                    "material" : 3
                },
                {
                    "attributes" : {
                        "POSITION" : 15,
                        "NORMAL" : 16,
                        "TEXCOORD_0" : 17
                    },
                    "indices" : 18,
                    "material" : 4
                },
                {
                    "attributes" : {
                        "POSITION" : 19,
                        "NORMAL" : 20,
                        "TEXCOORD_0" : 21
                    },
                    "indices" : 22,
                    "material" : 5
                },
                {
                    "attributes" : {
                        "POSITION" : 23,
                        "NORMAL" : 24,
                        "TEXCOORD_0" : 25
                    },
                    "indices" : 26,
                    "material" : 6
                },
                {
                    "attributes" : {
                        "POSITION" : 27,
                        "NORMAL" : 28,
                        "TEXCOORD_0" : 29
                    },
                    "indices" : 11,
                    "material" : 7
                }
            ]
        },
        {
            "name" : "Plane.001",
            "primitives" : [
                {
                    "attributes" : {
                        "POSITION" : 30,
                        "NORMAL" : 31,
                        "TEXCOORD_0" : 32
                    },
                    "indices" : 33,
                    "material" : 8
                }
            ]
        }
    ],
    "textures" : [
        {
            "source" : 0
        },
        {
            "source" : 1
        },
        {
            "source" : 2
        },
        {
            "source" : 3
        },
        {
            "source" : 4
        },
        {
            "source" : 4
        },
        {
            "source" : 4
        },
        {
            "source" : 4
        },
        {
            "source" : 4
        },
        {
            "source" : 4
        },
        {
            "source" : 5
        }
    ],
    "images" : [
        {
            "mimeType" : "image/png",
            "name" : "NormalMapDef",
            "uri" : "NormalMapDef.png"
        },
        {
            "mimeType" : "image/png",
            "name" : "MapDef",
            "uri" : "MapDef.png"
        },
        {
            "mimeType" : "image/png",
            "name" : "NormalMapDef2",
            "uri" : "NormalMapDef2.png"
        },
        {
            "mimeType" : "image/png",
            "name" : "mapDef2",
            "uri" : "mapDef2.png"
        },
        {
            "mimeType" : "image/jpeg",
            "name" : "material_tree_trunk_01",
            "uri" : "material_tree_trunk_01.jpg"
        },
        {
            "mimeType" : "image/png",
            "name" : "images",
            "uri" : "images.png"
        }
    ],
    "accessors" : [
        {
            "bufferView" : 0,
            "componentType" : 5126,
            "count" : 36180,
            "max" : [
                135,
                9.839065551757812,
                135
            ],
            "min" : [
                -13,
                0,
                -135
            ],
            "type" : "VEC3"
        },
        {
            "bufferView" : 1,
            "componentType" : 5126,
            "count" : 36180,
            "type" : "VEC3"
        },
        {
            "bufferView" : 2,
            "componentType" : 5126,
            "count" : 36180,
            "type" : "VEC2"
        },
        {
            "bufferView" : 3,
            "componentType" : 5123,
            "count" : 54270,
            "type" : "SCALAR"
        },
        {
            "bufferView" : 4,
            "componentType" : 5126,
            "count" : 3780,
            "max" : [
                101,
                6.14673376083374,
                135.54901123046875
            ],
            "min" : [
                87,
                -3.590874195098877,
                -135
            ],
            "type" : "VEC3"
        },
        {
            "bufferView" : 5,
            "componentType" : 5126,
            "count" : 3780,
            "type" : "VEC3"
        },
        {
            "bufferView" : 6,
            "componentType" : 5126,
            "count" : 3780,
            "type" : "VEC2"
        },
        {
            "bufferView" : 7,
            "componentType" : 5123,
            "count" : 5670,
            "type" : "SCALAR"
        },
        {
            "bufferView" : 8,
            "componentType" : 5126,
            "count" : 192,
            "max" : [
                1,
                1,
                1
            ],
            "min" : [
                -1,
                -1,
                -1
            ],
            "type" : "VEC3"
        },
        {
            "bufferView" : 9,
            "componentType" : 5126,
            "count" : 192,
            "type" : "VEC3"
        },
        {
            "bufferView" : 10,
            "componentType" : 5126,
            "count" : 192,
            "type" : "VEC2"
        },
        {
            "bufferView" : 11,
            "componentType" : 5123,
            "count" : 372,
            "type" : "SCALAR"
        },
        {
            "bufferView" : 12,
            "componentType" : 5126,
            "count" : 192,
            "max" : [
                1,
                1,
                1
            ],
            "min" : [
                -1,
                -1,
                -1
            ],
            "type" : "VEC3"
        },
        {
            "bufferView" : 13,
            "componentType" : 5126,
            "count" : 192,
            "type" : "VEC3"
        },
        {
            "bufferView" : 14,
            "componentType" : 5126,
            "count" : 192,
            "type" : "VEC2"
        },
        {
            "bufferView" : 15,
            "componentType" : 5126,
            "count" : 192,
            "max" : [
                1,
                0.9999999403953552,
                8.302276611328125
            ],
            "min" : [
                -1,
                -0.9999999403953552,
                6.302276611328125
            ],
            "type" : "VEC3"
        },
        {
            "bufferView" : 16,
            "componentType" : 5126,
            "count" : 192,
            "type" : "VEC3"
        },
        {
            "bufferView" : 17,
            "componentType" : 5126,
            "count" : 192,
            "type" : "VEC2"
        },
        {
            "bufferView" : 18,
            "componentType" : 5123,
            "count" : 372,
            "type" : "SCALAR"
        },
        {
            "bufferView" : 19,
            "componentType" : 5126,
            "count" : 192,
            "max" : [
                1,
                0.9999999403953552,
                6.3470611572265625
            ],
            "min" : [
                -1,
                -0.9999999403953552,
                4.3470611572265625
            ],
            "type" : "VEC3"
        },
        {
            "bufferView" : 20,
            "componentType" : 5126,
            "count" : 192,
            "type" : "VEC3"
        },
        {
            "bufferView" : 21,
            "componentType" : 5126,
            "count" : 192,
            "type" : "VEC2"
        },
        {
            "bufferView" : 22,
            "componentType" : 5123,
            "count" : 372,
            "type" : "SCALAR"
        },
        {
            "bufferView" : 23,
            "componentType" : 5126,
            "count" : 192,
            "max" : [
                1,
                0.9999999403953552,
                4.5937652587890625
            ],
            "min" : [
                -1,
                -0.9999999403953552,
                2.5937652587890625
            ],
            "type" : "VEC3"
        },
        {
            "bufferView" : 24,
            "componentType" : 5126,
            "count" : 192,
            "type" : "VEC3"
        },
        {
            "bufferView" : 25,
            "componentType" : 5126,
            "count" : 192,
            "type" : "VEC2"
        },
        {
            "bufferView" : 26,
            "componentType" : 5123,
            "count" : 372,
            "type" : "SCALAR"
        },
        {
            "bufferView" : 27,
            "componentType" : 5126,
            "count" : 192,
            "max" : [
                1,
                0.9999999403953552,
                2.8202056884765625
            ],
            "min" : [
                -1,
                -0.9999999403953552,
                0.8202057480812073
            ],
            "type" : "VEC3"
        },
        {
            "bufferView" : 28,
            "componentType" : 5126,
            "count" : 192,
            "type" : "VEC3"
        },
        {
            "bufferView" : 29,
            "componentType" : 5126,
            "count" : 192,
            "type" : "VEC2"
        },
        {
            "bufferView" : 30,
            "componentType" : 5126,
            "count" : 4,
            "max" : [
                1,
                0,
                1
            ],
            "min" : [
                -1,
                0,
                -1
            ],
            "type" : "VEC3"
        },
        {
            "bufferView" : 31,
            "componentType" : 5126,
            "count" : 4,
            "type" : "VEC3"
        },
        {
            "bufferView" : 32,
            "componentType" : 5126,
            "count" : 4,
            "type" : "VEC2"
        },
        {
            "bufferView" : 33,
            "componentType" : 5123,
            "count" : 6,
            "type" : "SCALAR"
        }
    ],
    "bufferViews" : [
        {
            "buffer" : 0,
            "byteLength" : 434160,
            "byteOffset" : 0
        },
        {
            "buffer" : 0,
            "byteLength" : 434160,
            "byteOffset" : 434160
        },
        {
            "buffer" : 0,
            "byteLength" : 289440,
            "byteOffset" : 868320
        },
        {
            "buffer" : 0,
            "byteLength" : 108540,
            "byteOffset" : 1157760
        },
        {
            "buffer" : 0,
            "byteLength" : 45360,
            "byteOffset" : 1266300
        },
        {
            "buffer" : 0,
            "byteLength" : 45360,
            "byteOffset" : 1311660
        },
        {
            "buffer" : 0,
            "byteLength" : 30240,
            "byteOffset" : 1357020
        },
        {
            "buffer" : 0,
            "byteLength" : 11340,
            "byteOffset" : 1387260
        },
        {
            "buffer" : 0,
            "byteLength" : 2304,
            "byteOffset" : 1398600
        },
        {
            "buffer" : 0,
            "byteLength" : 2304,
            "byteOffset" : 1400904
        },
        {
            "buffer" : 0,
            "byteLength" : 1536,
            "byteOffset" : 1403208
        },
        {
            "buffer" : 0,
            "byteLength" : 744,
            "byteOffset" : 1404744
        },
        {
            "buffer" : 0,
            "byteLength" : 2304,
            "byteOffset" : 1405488
        },
        {
            "buffer" : 0,
            "byteLength" : 2304,
            "byteOffset" : 1407792
        },
        {
            "buffer" : 0,
            "byteLength" : 1536,
            "byteOffset" : 1410096
        },
        {
            "buffer" : 0,
            "byteLength" : 2304,
            "byteOffset" : 1411632
        },
        {
            "buffer" : 0,
            "byteLength" : 2304,
            "byteOffset" : 1413936
        },
        {
            "buffer" : 0,
            "byteLength" : 1536,
            "byteOffset" : 1416240
        },
        {
            "buffer" : 0,
            "byteLength" : 744,
            "byteOffset" : 1417776
        },
        {
            "buffer" : 0,
            "byteLength" : 2304,
            "byteOffset" : 1418520
        },
        {
            "buffer" : 0,
            "byteLength" : 2304,
            "byteOffset" : 1420824
        },
        {
            "buffer" : 0,
            "byteLength" : 1536,
            "byteOffset" : 1423128
        },
        {
            "buffer" : 0,
            "byteLength" : 744,
            "byteOffset" : 1424664
        },
        {
            "buffer" : 0,
            "byteLength" : 2304,
            "byteOffset" : 1425408
        },
        {
            "buffer" : 0,
            "byteLength" : 2304,
            "byteOffset" : 1427712
        },
        {
            "buffer" : 0,
            "byteLength" : 1536,
            "byteOffset" : 1430016
        },
        {
            "buffer" : 0,
            "byteLength" : 744,
            "byteOffset" : 1431552
        },
        {
            "buffer" : 0,
            "byteLength" : 2304,
            "byteOffset" : 1432296
        },
        {
            "buffer" : 0,
            "byteLength" : 2304,
            "byteOffset" : 1434600
        },
        {
            "buffer" : 0,
            "byteLength" : 1536,
            "byteOffset" : 1436904
        },
        {
            "buffer" : 0,
            "byteLength" : 48,
            "byteOffset" : 1438440
        },
        {
            "buffer" : 0,
            "byteLength" : 48,
            "byteOffset" : 1438488
        },
        {
            "buffer" : 0,
            "byteLength" : 32,
            "byteOffset" : 1438536
        },
        {
            "buffer" : 0,
            "byteLength" : 12,
            "byteOffset" : 1438568
        }
    ],
    "buffers" : [
        {
            "byteLength" : 1438580,
            "uri" : "Map1.bin"
        }
    ]
}
