{
    "asset" : {
        "generator" : "Khronos glTF Blender I/O v1.1.46",
        "version" : "2.0"
    },
    "scene" : 0,
    "scenes" : [
        {
            "name" : "Scene",
            "nodes" : [
                0,
                1,
                2,
                3,
                4,
                5
            ]
        }
    ],
    "nodes" : [
        {
            "name" : "Light",
            "rotation" : [
                0.16907575726509094,
                0.7558803558349609,
                -0.27217137813568115,
                0.570947527885437
            ],
            "translation" : [
                4.076245307922363,
                5.903861999511719,
                -1.0054539442062378
            ]
        },
        {
            "name" : "Camera",
            "rotation" : [
                0.483536034822464,
                0.33687159419059753,
                -0.20870360732078552,
                0.7804827094078064
            ],
            "translation" : [
                7.358891487121582,
                4.958309173583984,
                6.925790786743164
            ]
        },
        {
            "mesh" : 0,
            "name" : "map"
        },
        {
            "mesh" : 1,
            "name" : "ForestWall",
            "rotation" : [
                0.7071067690849304,
                0,
                0,
                0.7071067690849304
            ],
            "scale" : [
                3,
                1,
                3
            ],
            "translation" : [
                -72,
                7.892275810241699,
                -132.95953369140625
            ]
        },
        {
            "mesh" : 2,
            "name" : "Plane.001",
            "rotation" : [
                0.7071067690849304,
                -0.7071067690849304,
                0,
                -3.0908619663705394e-08
            ],
            "scale" : [
                3,
                1,
                0.5
            ],
            "translation" : [
                132.7846221923828,
                2.490501880645752,
                -10.115169525146484
            ]
        },
        {
            "mesh" : 3,
            "name" : "ForestWall.001",
            "rotation" : [
                0,
                -0.7071067690849304,
                0.7071067690849304,
                -3.0908619663705394e-08
            ],
            "scale" : [
                3,
                1,
                3
            ],
            "translation" : [
                16.457778930664062,
                7.892275810241699,
                53.3909912109375
            ]
        }
    ],
    "materials" : [
        {
            "doubleSided" : true,
            "emissiveFactor" : [
                0,
                0,
                0
            ],
            "name" : "grass",
            "normalTexture" : {
                "index" : 0,
                "texCoord" : 0
            },
            "pbrMetallicRoughness" : {
                "baseColorTexture" : {
                    "index" : 1,
                    "texCoord" : 0
                },
                "metallicFactor" : 0,
                "roughnessFactor" : 0.5
            }
        },
        {
            "doubleSided" : true,
            "emissiveFactor" : [
                0,
                0,
                0
            ],
            "name" : "sand",
            "normalTexture" : {
                "index" : 2,
                "texCoord" : 0
            },
            "pbrMetallicRoughness" : {
                "baseColorTexture" : {
                    "index" : 3,
                    "texCoord" : 0
                },
                "metallicFactor" : 0,
                "roughnessFactor" : 0.5
            }
        },
        {
            "doubleSided" : true,
            "emissiveFactor" : [
                0,
                0,
                0
            ],
            "name" : "WoodWall",
            "pbrMetallicRoughness" : {
                "baseColorTexture" : {
                    "index" : 4,
                    "texCoord" : 0
                },
                "metallicFactor" : 0,
                "roughnessFactor" : 0.5
            }
        },
        {
            "doubleSided" : true,
            "emissiveFactor" : [
                0,
                0,
                0
            ],
            "name" : "Fence",
            "pbrMetallicRoughness" : {
                "baseColorTexture" : {
                    "index" : 5,
                    "texCoord" : 0
                },
                "metallicFactor" : 0,
                "roughnessFactor" : 0.5
            }
        },
        {
            "doubleSided" : true,
            "emissiveFactor" : [
                0,
                0,
                0
            ],
            "name" : "WoodWall.009",
            "pbrMetallicRoughness" : {
                "baseColorTexture" : {
                    "index" : 6,
                    "texCoord" : 0
                },
                "metallicFactor" : 0,
                "roughnessFactor" : 0.5
            }
        }
    ],
    "meshes" : [
        {
            "name" : "Plane",
            "primitives" : [
                {
                    "attributes" : {
                        "POSITION" : 0,
                        "NORMAL" : 1,
                        "TEXCOORD_0" : 2
                    },
                    "indices" : 3,
                    "material" : 0
                },
                {
                    "attributes" : {
                        "POSITION" : 4,
                        "NORMAL" : 5,
                        "TEXCOORD_0" : 6
                    },
                    "indices" : 7,
                    "material" : 1
                }
            ]
        },
        {
            "name" : "Plane.007",
            "primitives" : [
                {
                    "attributes" : {
                        "POSITION" : 8,
                        "NORMAL" : 9,
                        "TEXCOORD_0" : 10
                    },
                    "indices" : 11,
                    "material" : 2
                }
            ]
        },
        {
            "name" : "Plane.026",
            "primitives" : [
                {
                    "attributes" : {
                        "POSITION" : 12,
                        "NORMAL" : 13,
                        "TEXCOORD_0" : 14
                    },
                    "indices" : 15,
                    "material" : 3
                }
            ]
        },
        {
            "name" : "Plane.001",
            "primitives" : [
                {
                    "attributes" : {
                        "POSITION" : 16,
                        "NORMAL" : 17,
                        "TEXCOORD_0" : 18
                    },
                    "indices" : 11,
                    "material" : 4
                }
            ]
        }
    ],
    "textures" : [
        {
            "source" : 0
        },
        {
            "source" : 1
        },
        {
            "source" : 2
        },
        {
            "source" : 3
        },
        {
            "source" : 4
        },
        {
            "source" : 5
        },
        {
            "source" : 4
        }
    ],
    "images" : [
        {
            "mimeType" : "image/png",
            "name" : "NormalMapDef",
            "uri" : "NormalMapDef.png"
        },
        {
            "mimeType" : "image/png",
            "name" : "MapDef",
            "uri" : "MapDef.png"
        },
        {
            "mimeType" : "image/png",
            "name" : "NormalMapDef2",
            "uri" : "NormalMapDef2.png"
        },
        {
            "mimeType" : "image/png",
            "name" : "mapDef2",
            "uri" : "mapDef2.png"
        },
        {
            "mimeType" : "image/png",
            "name" : "WoodWall2",
            "uri" : "WoodWall2.png"
        },
        {
            "mimeType" : "image/png",
            "name" : "WoodFence",
            "uri" : "WoodFence.png"
        }
    ],
    "accessors" : [
        {
            "bufferView" : 0,
            "componentType" : 5126,
            "count" : 33672,
            "max" : [
                135,
                42.389007568359375,
                55
            ],
            "min" : [
                -135,
                -3.296762704849243,
                -135
            ],
            "type" : "VEC3"
        },
        {
            "bufferView" : 1,
            "componentType" : 5126,
            "count" : 33672,
            "type" : "VEC3"
        },
        {
            "bufferView" : 2,
            "componentType" : 5126,
            "count" : 33672,
            "type" : "VEC2"
        },
        {
            "bufferView" : 3,
            "componentType" : 5123,
            "count" : 50508,
            "type" : "SCALAR"
        },
        {
            "bufferView" : 4,
            "componentType" : 5126,
            "count" : 17628,
            "max" : [
                135,
                17.758337020874023,
                55.54899978637695
            ],
            "min" : [
                -129,
                -6.785898685455322,
                -135
            ],
            "type" : "VEC3"
        },
        {
            "bufferView" : 5,
            "componentType" : 5126,
            "count" : 17628,
            "type" : "VEC3"
        },
        {
            "bufferView" : 6,
            "componentType" : 5126,
            "count" : 17628,
            "type" : "VEC2"
        },
        {
            "bufferView" : 7,
            "componentType" : 5123,
            "count" : 26442,
            "type" : "SCALAR"
        },
        {
            "bufferView" : 8,
            "componentType" : 5126,
            "count" : 144,
            "max" : [
                51,
                0.0099945068359375,
                1
            ],
            "min" : [
                -21,
                0,
                -1
            ],
            "type" : "VEC3"
        },
        {
            "bufferView" : 9,
            "componentType" : 5126,
            "count" : 144,
            "type" : "VEC3"
        },
        {
            "bufferView" : 10,
            "componentType" : 5126,
            "count" : 144,
            "type" : "VEC2"
        },
        {
            "bufferView" : 11,
            "componentType" : 5123,
            "count" : 216,
            "type" : "SCALAR"
        },
        {
            "bufferView" : 12,
            "componentType" : 5126,
            "count" : 676,
            "max" : [
                1.0000005960464478,
                0,
                243
            ],
            "min" : [
                -1,
                -0.004638671875,
                -125
            ],
            "type" : "VEC3"
        },
        {
            "bufferView" : 13,
            "componentType" : 5126,
            "count" : 676,
            "type" : "VEC3"
        },
        {
            "bufferView" : 14,
            "componentType" : 5126,
            "count" : 676,
            "type" : "VEC2"
        },
        {
            "bufferView" : 15,
            "componentType" : 5123,
            "count" : 1014,
            "type" : "SCALAR"
        },
        {
            "bufferView" : 16,
            "componentType" : 5126,
            "count" : 144,
            "max" : [
                51,
                0.0099945068359375,
                1
            ],
            "min" : [
                -21,
                0,
                -1
            ],
            "type" : "VEC3"
        },
        {
            "bufferView" : 17,
            "componentType" : 5126,
            "count" : 144,
            "type" : "VEC3"
        },
        {
            "bufferView" : 18,
            "componentType" : 5126,
            "count" : 144,
            "type" : "VEC2"
        }
    ],
    "bufferViews" : [
        {
            "buffer" : 0,
            "byteLength" : 404064,
            "byteOffset" : 0
        },
        {
            "buffer" : 0,
            "byteLength" : 404064,
            "byteOffset" : 404064
        },
        {
            "buffer" : 0,
            "byteLength" : 269376,
            "byteOffset" : 808128
        },
        {
            "buffer" : 0,
            "byteLength" : 101016,
            "byteOffset" : 1077504
        },
        {
            "buffer" : 0,
            "byteLength" : 211536,
            "byteOffset" : 1178520
        },
        {
            "buffer" : 0,
            "byteLength" : 211536,
            "byteOffset" : 1390056
        },
        {
            "buffer" : 0,
            "byteLength" : 141024,
            "byteOffset" : 1601592
        },
        {
            "buffer" : 0,
            "byteLength" : 52884,
            "byteOffset" : 1742616
        },
        {
            "buffer" : 0,
            "byteLength" : 1728,
            "byteOffset" : 1795500
        },
        {
            "buffer" : 0,
            "byteLength" : 1728,
            "byteOffset" : 1797228
        },
        {
            "buffer" : 0,
            "byteLength" : 1152,
            "byteOffset" : 1798956
        },
        {
            "buffer" : 0,
            "byteLength" : 432,
            "byteOffset" : 1800108
        },
        {
            "buffer" : 0,
            "byteLength" : 8112,
            "byteOffset" : 1800540
        },
        {
            "buffer" : 0,
            "byteLength" : 8112,
            "byteOffset" : 1808652
        },
        {
            "buffer" : 0,
            "byteLength" : 5408,
            "byteOffset" : 1816764
        },
        {
            "buffer" : 0,
            "byteLength" : 2028,
            "byteOffset" : 1822172
        },
        {
            "buffer" : 0,
            "byteLength" : 1728,
            "byteOffset" : 1824200
        },
        {
            "buffer" : 0,
            "byteLength" : 1728,
            "byteOffset" : 1825928
        },
        {
            "buffer" : 0,
            "byteLength" : 1152,
            "byteOffset" : 1827656
        }
    ],
    "buffers" : [
        {
            "byteLength" : 1828808,
            "uri" : "Map1.bin"
        }
    ]
}
