{
    "asset" : {
        "generator" : "Khronos glTF Blender I/O v1.1.46",
        "version" : "2.0"
    },
    "scene" : 0,
    "scenes" : [
        {
            "name" : "Scene",
            "nodes" : [
                0,
                1,
                2,
                3,
                4
            ]
        }
    ],
    "nodes" : [
        {
            "name" : "Light",
            "rotation" : [
                0.16907575726509094,
                0.7558803558349609,
                -0.27217137813568115,
                0.570947527885437
            ],
            "translation" : [
                4.076245307922363,
                5.903861999511719,
                -1.0054539442062378
            ]
        },
        {
            "name" : "Camera",
            "rotation" : [
                0.483536034822464,
                0.33687159419059753,
                -0.20870360732078552,
                0.7804827094078064
            ],
            "translation" : [
                7.358891487121582,
                4.958309173583984,
                6.925790786743164
            ]
        },
        {
            "mesh" : 0,
            "name" : "Body",
            "scale" : [
                0.5009979605674744,
                0.5009979605674744,
                0.5009979605674744
            ],
            "translation" : [
                0,
                -0.29868826270103455,
                0
            ]
        },
        {
            "mesh" : 1,
            "name" : "WingL",
            "scale" : [
                0.5009979605674744,
                0.5009979605674744,
                0.5009979605674744
            ],
            "translation" : [
                0,
                -0.30369824171066284,
                0
            ]
        },
        {
            "mesh" : 2,
            "name" : "WingR",
            "rotation" : [
                0,
                1,
                0,
                7.549790126404332e-08
            ],
            "scale" : [
                0.5009979605674744,
                0.5009979605674744,
                0.5009979605674744
            ],
            "translation" : [
                0,
                -0.30369824171066284,
                0
            ]
        }
    ],
    "materials" : [
        {
            "doubleSided" : true,
            "emissiveFactor" : [
                0,
                0,
                0
            ],
            "name" : "BatBody",
            "pbrMetallicRoughness" : {
                "baseColorTexture" : {
                    "index" : 0,
                    "texCoord" : 0
                },
                "metallicFactor" : 0,
                "roughnessFactor" : 0.5
            }
        },
        {
            "doubleSided" : true,
            "emissiveFactor" : [
                0,
                0,
                0
            ],
            "name" : "Wing",
            "pbrMetallicRoughness" : {
                "baseColorTexture" : {
                    "index" : 1,
                    "texCoord" : 0
                },
                "metallicFactor" : 0,
                "roughnessFactor" : 0.5
            }
        },
        {
            "doubleSided" : true,
            "emissiveFactor" : [
                0,
                0,
                0
            ],
            "name" : "Wing.001",
            "pbrMetallicRoughness" : {
                "baseColorTexture" : {
                    "index" : 2,
                    "texCoord" : 0
                },
                "metallicFactor" : 0,
                "roughnessFactor" : 0.5
            }
        }
    ],
    "meshes" : [
        {
            "name" : "Plane",
            "primitives" : [
                {
                    "attributes" : {
                        "POSITION" : 0,
                        "NORMAL" : 1,
                        "TEXCOORD_0" : 2
                    },
                    "indices" : 3,
                    "material" : 0
                }
            ]
        },
        {
            "name" : "Cube.001",
            "primitives" : [
                {
                    "attributes" : {
                        "POSITION" : 4,
                        "NORMAL" : 5,
                        "TEXCOORD_0" : 6
                    },
                    "indices" : 7,
                    "material" : 1
                }
            ]
        },
        {
            "name" : "Cube.003",
            "primitives" : [
                {
                    "attributes" : {
                        "POSITION" : 8,
                        "NORMAL" : 9,
                        "TEXCOORD_0" : 10
                    },
                    "indices" : 7,
                    "material" : 2
                }
            ]
        }
    ],
    "textures" : [
        {
            "source" : 0
        },
        {
            "source" : 1
        },
        {
            "source" : 1
        }
    ],
    "images" : [
        {
            "mimeType" : "image/png",
            "name" : "Bat",
            "uri" : "Bat.png"
        },
        {
            "mimeType" : "image/png",
            "name" : "Wing",
            "uri" : "Wing.png"
        }
    ],
    "accessors" : [
        {
            "bufferView" : 0,
            "componentType" : 5126,
            "count" : 452,
            "max" : [
                0.6972459554672241,
                1.626832127571106,
                0.299570769071579
            ],
            "min" : [
                -0.6961860656738281,
                -0.7392992973327637,
                -0.299570769071579
            ],
            "type" : "VEC3"
        },
        {
            "bufferView" : 1,
            "componentType" : 5126,
            "count" : 452,
            "type" : "VEC3"
        },
        {
            "bufferView" : 2,
            "componentType" : 5126,
            "count" : 452,
            "type" : "VEC2"
        },
        {
            "bufferView" : 3,
            "componentType" : 5123,
            "count" : 744,
            "type" : "SCALAR"
        },
        {
            "bufferView" : 4,
            "componentType" : 5126,
            "count" : 152,
            "max" : [
                -0.08385038375854492,
                1.228252649307251,
                0.02000008523464203
            ],
            "min" : [
                -2.8138158321380615,
                -0.7072886228561401,
                -0.019999980926513672
            ],
            "type" : "VEC3"
        },
        {
            "bufferView" : 5,
            "componentType" : 5126,
            "count" : 152,
            "type" : "VEC3"
        },
        {
            "bufferView" : 6,
            "componentType" : 5126,
            "count" : 152,
            "type" : "VEC2"
        },
        {
            "bufferView" : 7,
            "componentType" : 5123,
            "count" : 240,
            "type" : "SCALAR"
        },
        {
            "bufferView" : 8,
            "componentType" : 5126,
            "count" : 152,
            "max" : [
                -0.08385038375854492,
                1.228252649307251,
                0.02000008523464203
            ],
            "min" : [
                -2.8138158321380615,
                -0.7072886228561401,
                -0.019999980926513672
            ],
            "type" : "VEC3"
        },
        {
            "bufferView" : 9,
            "componentType" : 5126,
            "count" : 152,
            "type" : "VEC3"
        },
        {
            "bufferView" : 10,
            "componentType" : 5126,
            "count" : 152,
            "type" : "VEC2"
        }
    ],
    "bufferViews" : [
        {
            "buffer" : 0,
            "byteLength" : 5424,
            "byteOffset" : 0
        },
        {
            "buffer" : 0,
            "byteLength" : 5424,
            "byteOffset" : 5424
        },
        {
            "buffer" : 0,
            "byteLength" : 3616,
            "byteOffset" : 10848
        },
        {
            "buffer" : 0,
            "byteLength" : 1488,
            "byteOffset" : 14464
        },
        {
            "buffer" : 0,
            "byteLength" : 1824,
            "byteOffset" : 15952
        },
        {
            "buffer" : 0,
            "byteLength" : 1824,
            "byteOffset" : 17776
        },
        {
            "buffer" : 0,
            "byteLength" : 1216,
            "byteOffset" : 19600
        },
        {
            "buffer" : 0,
            "byteLength" : 480,
            "byteOffset" : 20816
        },
        {
            "buffer" : 0,
            "byteLength" : 1824,
            "byteOffset" : 21296
        },
        {
            "buffer" : 0,
            "byteLength" : 1824,
            "byteOffset" : 23120
        },
        {
            "buffer" : 0,
            "byteLength" : 1216,
            "byteOffset" : 24944
        }
    ],
    "buffers" : [
        {
            "byteLength" : 26160,
            "uri" : "Bat.bin"
        }
    ]
}
