{
    "asset" : {
        "generator" : "Khronos glTF Blender I/O v1.1.46",
        "version" : "2.0"
    },
    "scene" : 0,
    "scenes" : [
        {
            "name" : "Scene",
            "nodes" : [
                0,
                1,
                2,
                3
            ]
        }
    ],
    "nodes" : [
        {
            "mesh" : 0,
            "name" : "Cube",
            "rotation" : [
                0,
                0.7071067690849304,
                0,
                0.7071067690849304
            ],
            "scale" : [
                0.10000000149011612,
                0.10000000149011612,
                0.10000000149011612
            ],
            "translation" : [
                0.008290126919746399,
                0,
                0.0029219388961791992
            ]
        },
        {
            "name" : "Light",
            "rotation" : [
                -0.07289964705705643,
                0.9382089376449585,
                -0.3120088279247284,
                -0.13076737523078918
            ],
            "translation" : [
                -1.3655023574829102,
                5.9038615226745605,
                -3.0526480674743652
            ]
        },
        {
            "name" : "Camera",
            "rotation" : [
                0.483536034822464,
                0.33687159419059753,
                -0.20870360732078552,
                0.7804827094078064
            ],
            "translation" : [
                7.358891487121582,
                4.958309173583984,
                6.925790786743164
            ]
        },
        {
            "mesh" : 1,
            "name" : "Cylinder",
            "rotation" : [
                0,
                0.7071067690849304,
                0,
                0.7071067690849304
            ],
            "scale" : [
                0.10000000149011612,
                0.10000000149011612,
                0.10000000149011612
            ],
            "translation" : [
                0.014344288967549801,
                0,
                0.006640356034040451
            ]
        }
    ],
    "materials" : [
        {
            "doubleSided" : true,
            "emissiveFactor" : [
                0,
                0,
                0
            ],
            "name" : "Wood",
            "pbrMetallicRoughness" : {
                "baseColorTexture" : {
                    "index" : 0,
                    "texCoord" : 0
                },
                "metallicFactor" : 0,
                "roughnessFactor" : 0.4000000059604645
            }
        },
        {
            "doubleSided" : true,
            "emissiveFactor" : [
                0,
                0,
                0
            ],
            "name" : "Material",
            "pbrMetallicRoughness" : {
                "baseColorFactor" : [
                    0.800000011920929,
                    0.800000011920929,
                    0.800000011920929,
                    1
                ],
                "metallicFactor" : 0,
                "roughnessFactor" : 0.5
            }
        }
    ],
    "meshes" : [
        {
            "name" : "Cube",
            "primitives" : [
                {
                    "attributes" : {
                        "POSITION" : 0,
                        "NORMAL" : 1,
                        "TEXCOORD_0" : 2
                    },
                    "indices" : 3,
                    "material" : 0
                }
            ]
        },
        {
            "name" : "Cylinder",
            "primitives" : [
                {
                    "attributes" : {
                        "POSITION" : 4,
                        "NORMAL" : 5,
                        "TEXCOORD_0" : 6
                    },
                    "indices" : 7,
                    "material" : 1
                }
            ]
        }
    ],
    "textures" : [
        {
            "source" : 0
        }
    ],
    "images" : [
        {
            "mimeType" : "image/png",
            "name" : "Arrow",
            "uri" : "Arrow.png"
        }
    ],
    "accessors" : [
        {
            "bufferView" : 0,
            "componentType" : 5126,
            "count" : 571,
            "max" : [
                8.899189949035645,
                0.6257350444793701,
                6.991910934448242
            ],
            "min" : [
                -8.02668571472168,
                -2.111752510070801,
                -6.97842264175415
            ],
            "type" : "VEC3"
        },
        {
            "bufferView" : 1,
            "componentType" : 5126,
            "count" : 571,
            "type" : "VEC3"
        },
        {
            "bufferView" : 2,
            "componentType" : 5126,
            "count" : 571,
            "type" : "VEC2"
        },
        {
            "bufferView" : 3,
            "componentType" : 5123,
            "count" : 933,
            "type" : "SCALAR"
        },
        {
            "bufferView" : 4,
            "componentType" : 5126,
            "count" : 192,
            "max" : [
                6.044618606567383,
                0.3171965479850769,
                6.999999523162842
            ],
            "min" : [
                6.024618625640869,
                0.29719609022140503,
                -7.000000953674316
            ],
            "type" : "VEC3"
        },
        {
            "bufferView" : 5,
            "componentType" : 5126,
            "count" : 192,
            "type" : "VEC3"
        },
        {
            "bufferView" : 6,
            "componentType" : 5126,
            "count" : 192,
            "type" : "VEC2"
        },
        {
            "bufferView" : 7,
            "componentType" : 5123,
            "count" : 372,
            "type" : "SCALAR"
        }
    ],
    "bufferViews" : [
        {
            "buffer" : 0,
            "byteLength" : 6852,
            "byteOffset" : 0
        },
        {
            "buffer" : 0,
            "byteLength" : 6852,
            "byteOffset" : 6852
        },
        {
            "buffer" : 0,
            "byteLength" : 4568,
            "byteOffset" : 13704
        },
        {
            "buffer" : 0,
            "byteLength" : 1866,
            "byteOffset" : 18272
        },
        {
            "buffer" : 0,
            "byteLength" : 2304,
            "byteOffset" : 20140
        },
        {
            "buffer" : 0,
            "byteLength" : 2304,
            "byteOffset" : 22444
        },
        {
            "buffer" : 0,
            "byteLength" : 1536,
            "byteOffset" : 24748
        },
        {
            "buffer" : 0,
            "byteLength" : 744,
            "byteOffset" : 26284
        }
    ],
    "buffers" : [
        {
            "byteLength" : 27028,
            "uri" : "CrossBow.bin"
        }
    ]
}
