{
    "asset" : {
        "generator" : "Khronos glTF Blender I/O v1.1.46",
        "version" : "2.0"
    },
    "scene" : 0,
    "scenes" : [
        {
            "name" : "Scene",
            "nodes" : [
                0,
                1,
                2
            ]
        }
    ],
    "nodes" : [
        {
            "name" : "Light",
            "rotation" : [
                0.16907575726509094,
                0.7558803558349609,
                -0.27217137813568115,
                0.570947527885437
            ],
            "translation" : [
                4.076245307922363,
                -30.3699951171875,
                -1.0054539442062378
            ]
        },
        {
            "name" : "Camera",
            "rotation" : [
                0.483536034822464,
                0.33687159419059753,
                -0.20870360732078552,
                0.7804827094078064
            ],
            "translation" : [
                7.358891487121582,
                -31.315547943115234,
                6.925790786743164
            ]
        },
        {
            "mesh" : 0,
            "name" : "map",
            "translation" : [
                35.86185073852539,
                -36.27385711669922,
                0
            ]
        }
    ],
    "materials" : [
        {
            "doubleSided" : true,
            "emissiveFactor" : [
                0,
                0,
                0
            ],
            "name" : "Material",
            "normalTexture" : {
                "index" : 0,
                "texCoord" : 0
            },
            "pbrMetallicRoughness" : {
                "baseColorTexture" : {
                    "index" : 1,
                    "texCoord" : 0
                },
                "metallicFactor" : 0,
                "roughnessFactor" : 0.5
            }
        },
        {
            "doubleSided" : true,
            "emissiveFactor" : [
                0,
                0,
                0
            ],
            "name" : "Material.001",
            "normalTexture" : {
                "index" : 2,
                "texCoord" : 0
            },
            "pbrMetallicRoughness" : {
                "baseColorTexture" : {
                    "index" : 3,
                    "texCoord" : 0
                },
                "metallicFactor" : 0,
                "roughnessFactor" : 0.5
            }
        }
    ],
    "meshes" : [
        {
            "name" : "Plane",
            "primitives" : [
                {
                    "attributes" : {
                        "POSITION" : 0,
                        "NORMAL" : 1,
                        "TEXCOORD_0" : 2
                    },
                    "indices" : 3,
                    "material" : 0
                },
                {
                    "attributes" : {
                        "POSITION" : 4,
                        "NORMAL" : 5,
                        "TEXCOORD_0" : 6
                    },
                    "indices" : 7,
                    "material" : 1
                }
            ]
        }
    ],
    "textures" : [
        {
            "source" : 0
        },
        {
            "source" : 1
        },
        {
            "source" : 2
        },
        {
            "source" : 3
        }
    ],
    "images" : [
        {
            "mimeType" : "image/png",
            "name" : "NormalMapDef",
            "uri" : "NormalMapDef.png"
        },
        {
            "mimeType" : "image/png",
            "name" : "MapDef",
            "uri" : "MapDef.png"
        },
        {
            "mimeType" : "image/png",
            "name" : "NormalMapDef2",
            "uri" : "NormalMapDef2.png"
        },
        {
            "mimeType" : "image/png",
            "name" : "MapDef2",
            "uri" : "MapDef2.png"
        }
    ],
    "accessors" : [
        {
            "bufferView" : 0,
            "componentType" : 5126,
            "count" : 15024,
            "max" : [
                49,
                51.26713180541992,
                95
            ],
            "min" : [
                -123,
                25.37179946899414,
                -95
            ],
            "type" : "VEC3"
        },
        {
            "bufferView" : 1,
            "componentType" : 5126,
            "count" : 15024,
            "type" : "VEC3"
        },
        {
            "bufferView" : 2,
            "componentType" : 5126,
            "count" : 15024,
            "type" : "VEC2"
        },
        {
            "bufferView" : 3,
            "componentType" : 5123,
            "count" : 22536,
            "type" : "SCALAR"
        },
        {
            "bufferView" : 4,
            "componentType" : 5126,
            "count" : 24972,
            "max" : [
                63,
                46.25589370727539,
                101
            ],
            "min" : [
                -135,
                21.978483200073242,
                -101
            ],
            "type" : "VEC3"
        },
        {
            "bufferView" : 5,
            "componentType" : 5126,
            "count" : 24972,
            "type" : "VEC3"
        },
        {
            "bufferView" : 6,
            "componentType" : 5126,
            "count" : 24972,
            "type" : "VEC2"
        },
        {
            "bufferView" : 7,
            "componentType" : 5123,
            "count" : 37458,
            "type" : "SCALAR"
        }
    ],
    "bufferViews" : [
        {
            "buffer" : 0,
            "byteLength" : 180288,
            "byteOffset" : 0
        },
        {
            "buffer" : 0,
            "byteLength" : 180288,
            "byteOffset" : 180288
        },
        {
            "buffer" : 0,
            "byteLength" : 120192,
            "byteOffset" : 360576
        },
        {
            "buffer" : 0,
            "byteLength" : 45072,
            "byteOffset" : 480768
        },
        {
            "buffer" : 0,
            "byteLength" : 299664,
            "byteOffset" : 525840
        },
        {
            "buffer" : 0,
            "byteLength" : 299664,
            "byteOffset" : 825504
        },
        {
            "buffer" : 0,
            "byteLength" : 199776,
            "byteOffset" : 1125168
        },
        {
            "buffer" : 0,
            "byteLength" : 74916,
            "byteOffset" : 1324944
        }
    ],
    "buffers" : [
        {
            "byteLength" : 1399860,
            "uri" : "OPMap.bin"
        }
    ]
}
