{
    "asset" : {
        "generator" : "Khronos glTF Blender I/O v1.1.46",
        "version" : "2.0"
    },
    "scene" : 0,
    "scenes" : [
        {
            "name" : "Scene",
            "nodes" : [
                0,
                1,
                2,
                3,
                4,
                5,
                6,
                7,
                8
            ]
        }
    ],
    "nodes" : [
        {
            "mesh" : 0,
            "name" : "Cube",
            "scale" : [
                12.225926399230957,
                25.553691864013672,
                12.225926399230957
            ],
            "translation" : [
                -1.5553696155548096,
                34.39112854003906,
                1.5032987594604492
            ]
        },
        {
            "name" : "Light",
            "rotation" : [
                0.16907575726509094,
                0.7558803558349609,
                -0.27217137813568115,
                0.570947527885437
            ],
            "translation" : [
                4.076245307922363,
                5.903861999511719,
                -1.0054539442062378
            ]
        },
        {
            "name" : "Camera",
            "rotation" : [
                0.483536034822464,
                0.33687159419059753,
                -0.20870360732078552,
                0.7804827094078064
            ],
            "translation" : [
                7.358891487121582,
                4.958309173583984,
                6.925790786743164
            ]
        },
        {
            "mesh" : 1,
            "name" : "Cylinder",
            "scale" : [
                0.8909531831741333,
                5.110738754272461,
                0.8909531831741333
            ],
            "translation" : [
                8.666107177734375,
                64.63182067871094,
                -8.37598705291748
            ]
        },
        {
            "mesh" : 2,
            "name" : "Cylinder.004",
            "scale" : [
                10.469738960266113,
                0.13697190582752228,
                10.469738960266113
            ],
            "translation" : [
                -1.5553696155548096,
                59.8936767578125,
                1.5032987594604492
            ]
        },
        {
            "mesh" : 3,
            "name" : "Cube.002",
            "scale" : [
                1.0255146026611328,
                1.0255146026611328,
                1.0255146026611328
            ],
            "translation" : [
                -1.5553696155548096,
                61.215328216552734,
                1.5032987594604492
            ]
        },
        {
            "name" : "Light.001",
            "rotation" : [
                0.5232754945755005,
                0.34203392267227173,
                -0.7269423604011536,
                0.284166157245636
            ],
            "translation" : [
                4.076245307922363,
                -30.369998931884766,
                -1.005458116531372
            ]
        },
        {
            "name" : "Camera.001",
            "rotation" : [
                0.8937963247299194,
                0.09062855690717697,
                -0.3857799172401428,
                0.20997287333011627
            ],
            "translation" : [
                7.358891487121582,
                -31.3155517578125,
                6.925787448883057
            ]
        },
        {
            "mesh" : 4,
            "name" : "map",
            "rotation" : [
                0.7071068286895752,
                0,
                0,
                0.7071067094802856
            ],
            "translation" : [
                35.86185073852539,
                -36.273860931396484,
                -4.873713805864099e-06
            ]
        }
    ],
    "materials" : [
        {
            "doubleSided" : true,
            "emissiveFactor" : [
                0,
                0,
                0
            ],
            "name" : "Material",
            "pbrMetallicRoughness" : {
                "baseColorTexture" : {
                    "index" : 0,
                    "texCoord" : 0
                },
                "metallicFactor" : 0,
                "roughnessFactor" : 0.4000000059604645
            }
        },
        {
            "doubleSided" : true,
            "emissiveFactor" : [
                0,
                0,
                0
            ],
            "name" : "Material.001",
            "pbrMetallicRoughness" : {
                "baseColorTexture" : {
                    "index" : 1,
                    "texCoord" : 0
                },
                "metallicFactor" : 0,
                "roughnessFactor" : 0.5
            }
        },
        {
            "doubleSided" : true,
            "emissiveFactor" : [
                0,
                0,
                0
            ],
            "name" : "Material.002",
            "normalTexture" : {
                "index" : 2,
                "texCoord" : 0
            },
            "pbrMetallicRoughness" : {
                "baseColorTexture" : {
                    "index" : 3,
                    "texCoord" : 0
                },
                "metallicFactor" : 0,
                "roughnessFactor" : 0.5
            }
        },
        {
            "doubleSided" : true,
            "emissiveFactor" : [
                0,
                0,
                0
            ],
            "name" : "Material.003",
            "normalTexture" : {
                "index" : 4,
                "texCoord" : 0
            },
            "pbrMetallicRoughness" : {
                "baseColorTexture" : {
                    "index" : 5,
                    "texCoord" : 0
                },
                "metallicFactor" : 0,
                "roughnessFactor" : 0.5
            }
        }
    ],
    "meshes" : [
        {
            "name" : "Cube",
            "primitives" : [
                {
                    "attributes" : {
                        "POSITION" : 0,
                        "NORMAL" : 1,
                        "TEXCOORD_0" : 2
                    },
                    "indices" : 3,
                    "material" : 0
                }
            ]
        },
        {
            "name" : "Cylinder",
            "primitives" : [
                {
                    "attributes" : {
                        "POSITION" : 4,
                        "NORMAL" : 5,
                        "TEXCOORD_0" : 6
                    },
                    "indices" : 7,
                    "material" : 0
                }
            ]
        },
        {
            "name" : "Cylinder.004",
            "primitives" : [
                {
                    "attributes" : {
                        "POSITION" : 8,
                        "NORMAL" : 9,
                        "TEXCOORD_0" : 10
                    },
                    "indices" : 11
                }
            ]
        },
        {
            "name" : "Cube.002",
            "primitives" : [
                {
                    "attributes" : {
                        "POSITION" : 12,
                        "NORMAL" : 13,
                        "TEXCOORD_0" : 14
                    },
                    "indices" : 15,
                    "material" : 1
                }
            ]
        },
        {
            "name" : "Plane",
            "primitives" : [
                {
                    "attributes" : {
                        "POSITION" : 16,
                        "NORMAL" : 17,
                        "TEXCOORD_0" : 18
                    },
                    "indices" : 19,
                    "material" : 2
                },
                {
                    "attributes" : {
                        "POSITION" : 20,
                        "NORMAL" : 21,
                        "TEXCOORD_0" : 22
                    },
                    "indices" : 23,
                    "material" : 3
                }
            ]
        }
    ],
    "textures" : [
        {
            "source" : 0
        },
        {
            "source" : 1
        },
        {
            "source" : 2
        },
        {
            "source" : 3
        },
        {
            "source" : 4
        },
        {
            "source" : 5
        }
    ],
    "images" : [
        {
            "mimeType" : "image/png",
            "name" : "WallStone",
            "uri" : "WallStone.png"
        },
        {
            "mimeType" : "image/png",
            "name" : "Metal",
            "uri" : "Metal.png"
        },
        {
            "mimeType" : "image/png",
            "name" : "NormalMapDef",
            "uri" : "NormalMapDef.png"
        },
        {
            "mimeType" : "image/png",
            "name" : "MapDef",
            "uri" : "MapDef.png"
        },
        {
            "mimeType" : "image/png",
            "name" : "NormalMapDef2",
            "uri" : "NormalMapDef2.png"
        },
        {
            "mimeType" : "image/png",
            "name" : "MapDef2",
            "uri" : "MapDef2.png"
        }
    ],
    "accessors" : [
        {
            "bufferView" : 0,
            "componentType" : 5126,
            "count" : 48,
            "max" : [
                1,
                1.503760814666748,
                1
            ],
            "min" : [
                -1,
                -1,
                -1
            ],
            "type" : "VEC3"
        },
        {
            "bufferView" : 1,
            "componentType" : 5126,
            "count" : 48,
            "type" : "VEC3"
        },
        {
            "bufferView" : 2,
            "componentType" : 5126,
            "count" : 48,
            "type" : "VEC2"
        },
        {
            "bufferView" : 3,
            "componentType" : 5123,
            "count" : 72,
            "type" : "SCALAR"
        },
        {
            "bufferView" : 4,
            "componentType" : 5126,
            "count" : 768,
            "max" : [
                1,
                1.0570402145385742,
                23.945037841796875
            ],
            "min" : [
                -23.945037841796875,
                -1.0025219917297363,
                -1
            ],
            "type" : "VEC3"
        },
        {
            "bufferView" : 5,
            "componentType" : 5126,
            "count" : 768,
            "type" : "VEC3"
        },
        {
            "bufferView" : 6,
            "componentType" : 5126,
            "count" : 768,
            "type" : "VEC2"
        },
        {
            "bufferView" : 7,
            "componentType" : 5123,
            "count" : 1488,
            "type" : "SCALAR"
        },
        {
            "bufferView" : 8,
            "componentType" : 5126,
            "count" : 192,
            "max" : [
                1,
                1,
                1
            ],
            "min" : [
                -1,
                -1,
                -1
            ],
            "type" : "VEC3"
        },
        {
            "bufferView" : 9,
            "componentType" : 5126,
            "count" : 192,
            "type" : "VEC3"
        },
        {
            "bufferView" : 10,
            "componentType" : 5126,
            "count" : 192,
            "type" : "VEC2"
        },
        {
            "bufferView" : 11,
            "componentType" : 5123,
            "count" : 372,
            "type" : "SCALAR"
        },
        {
            "bufferView" : 12,
            "componentType" : 5126,
            "count" : 24,
            "max" : [
                1,
                1,
                1
            ],
            "min" : [
                -1,
                -1,
                -1
            ],
            "type" : "VEC3"
        },
        {
            "bufferView" : 13,
            "componentType" : 5126,
            "count" : 24,
            "type" : "VEC3"
        },
        {
            "bufferView" : 14,
            "componentType" : 5126,
            "count" : 24,
            "type" : "VEC2"
        },
        {
            "bufferView" : 15,
            "componentType" : 5123,
            "count" : 36,
            "type" : "SCALAR"
        },
        {
            "bufferView" : 16,
            "componentType" : 5126,
            "count" : 18168,
            "max" : [
                49,
                95,
                -25.37179946899414
            ],
            "min" : [
                -123,
                -95,
                -51.26713180541992
            ],
            "type" : "VEC3"
        },
        {
            "bufferView" : 17,
            "componentType" : 5126,
            "count" : 18168,
            "type" : "VEC3"
        },
        {
            "bufferView" : 18,
            "componentType" : 5126,
            "count" : 18168,
            "type" : "VEC2"
        },
        {
            "bufferView" : 19,
            "componentType" : 5123,
            "count" : 22536,
            "type" : "SCALAR"
        },
        {
            "bufferView" : 20,
            "componentType" : 5126,
            "count" : 27156,
            "max" : [
                63,
                101,
                -21.978483200073242
            ],
            "min" : [
                -135,
                -101,
                -46.25589370727539
            ],
            "type" : "VEC3"
        },
        {
            "bufferView" : 21,
            "componentType" : 5126,
            "count" : 27156,
            "type" : "VEC3"
        },
        {
            "bufferView" : 22,
            "componentType" : 5126,
            "count" : 27156,
            "type" : "VEC2"
        },
        {
            "bufferView" : 23,
            "componentType" : 5123,
            "count" : 37458,
            "type" : "SCALAR"
        }
    ],
    "bufferViews" : [
        {
            "buffer" : 0,
            "byteLength" : 576,
            "byteOffset" : 0
        },
        {
            "buffer" : 0,
            "byteLength" : 576,
            "byteOffset" : 576
        },
        {
            "buffer" : 0,
            "byteLength" : 384,
            "byteOffset" : 1152
        },
        {
            "buffer" : 0,
            "byteLength" : 144,
            "byteOffset" : 1536
        },
        {
            "buffer" : 0,
            "byteLength" : 9216,
            "byteOffset" : 1680
        },
        {
            "buffer" : 0,
            "byteLength" : 9216,
            "byteOffset" : 10896
        },
        {
            "buffer" : 0,
            "byteLength" : 6144,
            "byteOffset" : 20112
        },
        {
            "buffer" : 0,
            "byteLength" : 2976,
            "byteOffset" : 26256
        },
        {
            "buffer" : 0,
            "byteLength" : 2304,
            "byteOffset" : 29232
        },
        {
            "buffer" : 0,
            "byteLength" : 2304,
            "byteOffset" : 31536
        },
        {
            "buffer" : 0,
            "byteLength" : 1536,
            "byteOffset" : 33840
        },
        {
            "buffer" : 0,
            "byteLength" : 744,
            "byteOffset" : 35376
        },
        {
            "buffer" : 0,
            "byteLength" : 288,
            "byteOffset" : 36120
        },
        {
            "buffer" : 0,
            "byteLength" : 288,
            "byteOffset" : 36408
        },
        {
            "buffer" : 0,
            "byteLength" : 192,
            "byteOffset" : 36696
        },
        {
            "buffer" : 0,
            "byteLength" : 72,
            "byteOffset" : 36888
        },
        {
            "buffer" : 0,
            "byteLength" : 218016,
            "byteOffset" : 36960
        },
        {
            "buffer" : 0,
            "byteLength" : 218016,
            "byteOffset" : 254976
        },
        {
            "buffer" : 0,
            "byteLength" : 145344,
            "byteOffset" : 472992
        },
        {
            "buffer" : 0,
            "byteLength" : 45072,
            "byteOffset" : 618336
        },
        {
            "buffer" : 0,
            "byteLength" : 325872,
            "byteOffset" : 663408
        },
        {
            "buffer" : 0,
            "byteLength" : 325872,
            "byteOffset" : 989280
        },
        {
            "buffer" : 0,
            "byteLength" : 217248,
            "byteOffset" : 1315152
        },
        {
            "buffer" : 0,
            "byteLength" : 74916,
            "byteOffset" : 1532400
        }
    ],
    "buffers" : [
        {
            "byteLength" : 1607316,
            "uri" : "OPMap2.bin"
        }
    ]
}
