{
    "asset" : {
        "generator" : "Khronos glTF Blender I/O v1.1.46",
        "version" : "2.0"
    },
    "scene" : 0,
    "scenes" : [
        {
            "name" : "Scene",
            "nodes" : [
                0,
                1,
                2,
                3
            ]
        }
    ],
    "nodes" : [
        {
            "name" : "Light",
            "rotation" : [
                0.16907575726509094,
                0.7558803558349609,
                -0.27217137813568115,
                0.570947527885437
            ],
            "translation" : [
                4.076245307922363,
                5.903861999511719,
                -1.0054539442062378
            ]
        },
        {
            "name" : "Camera",
            "rotation" : [
                0.483536034822464,
                0.33687159419059753,
                -0.20870360732078552,
                0.7804827094078064
            ],
            "translation" : [
                7.358891487121582,
                4.958309173583984,
                6.925790786743164
            ]
        },
        {
            "mesh" : 0,
            "name" : "map",
            "rotation" : [
                0.33564671874046326,
                0,
                0,
                0.941987931728363
            ],
            "translation" : [
                35.86185073852539,
                -6.874527454376221,
                -5.2939629554748535
            ]
        },
        {
            "mesh" : 1,
            "name" : "Cube"
        }
    ],
    "materials" : [
        {
            "doubleSided" : true,
            "emissiveFactor" : [
                0,
                0,
                0
            ],
            "name" : "Material.001",
            "pbrMetallicRoughness" : {
                "baseColorTexture" : {
                    "index" : 0,
                    "texCoord" : 0
                },
                "metallicFactor" : 0,
                "roughnessFactor" : 0.5
            }
        },
        {
            "doubleSided" : true,
            "emissiveFactor" : [
                0,
                0,
                0
            ],
            "name" : "Material",
            "pbrMetallicRoughness" : {
                "baseColorTexture" : {
                    "index" : 1,
                    "texCoord" : 0
                },
                "metallicFactor" : 0,
                "roughnessFactor" : 0.5
            }
        }
    ],
    "meshes" : [
        {
            "name" : "Plane",
            "primitives" : [
                {
                    "attributes" : {
                        "POSITION" : 0,
                        "NORMAL" : 1,
                        "TEXCOORD_0" : 2
                    },
                    "indices" : 3,
                    "material" : 0
                }
            ]
        },
        {
            "name" : "Cube",
            "primitives" : [
                {
                    "attributes" : {
                        "POSITION" : 4,
                        "NORMAL" : 5,
                        "TEXCOORD_0" : 6
                    },
                    "indices" : 7,
                    "material" : 1
                }
            ]
        }
    ],
    "textures" : [
        {
            "source" : 0
        },
        {
            "source" : 1
        }
    ],
    "images" : [
        {
            "mimeType" : "image/png",
            "name" : "Gold",
            "uri" : "Gold.png"
        },
        {
            "mimeType" : "image/png",
            "name" : "GoalStone",
            "uri" : "GoalStone.png"
        }
    ],
    "accessors" : [
        {
            "bufferView" : 0,
            "componentType" : 5126,
            "count" : 3952,
            "max" : [
                -23.459819793701172,
                2.799396514892578,
                13.772590637207031
            ],
            "min" : [
                -47.610328674316406,
                -6.379157066345215,
                -20.310020446777344
            ],
            "type" : "VEC3"
        },
        {
            "bufferView" : 1,
            "componentType" : 5126,
            "count" : 3952,
            "type" : "VEC3"
        },
        {
            "bufferView" : 2,
            "componentType" : 5126,
            "count" : 3952,
            "type" : "VEC2"
        },
        {
            "bufferView" : 3,
            "componentType" : 5123,
            "count" : 5928,
            "type" : "SCALAR"
        },
        {
            "bufferView" : 4,
            "componentType" : 5126,
            "count" : 24,
            "max" : [
                8.961267471313477,
                8.961267471313477,
                8.961267471313477
            ],
            "min" : [
                -8.961267471313477,
                -8.961267471313477,
                -8.961267471313477
            ],
            "type" : "VEC3"
        },
        {
            "bufferView" : 5,
            "componentType" : 5126,
            "count" : 24,
            "type" : "VEC3"
        },
        {
            "bufferView" : 6,
            "componentType" : 5126,
            "count" : 24,
            "type" : "VEC2"
        },
        {
            "bufferView" : 7,
            "componentType" : 5123,
            "count" : 36,
            "type" : "SCALAR"
        }
    ],
    "bufferViews" : [
        {
            "buffer" : 0,
            "byteLength" : 47424,
            "byteOffset" : 0
        },
        {
            "buffer" : 0,
            "byteLength" : 47424,
            "byteOffset" : 47424
        },
        {
            "buffer" : 0,
            "byteLength" : 31616,
            "byteOffset" : 94848
        },
        {
            "buffer" : 0,
            "byteLength" : 11856,
            "byteOffset" : 126464
        },
        {
            "buffer" : 0,
            "byteLength" : 288,
            "byteOffset" : 138320
        },
        {
            "buffer" : 0,
            "byteLength" : 288,
            "byteOffset" : 138608
        },
        {
            "buffer" : 0,
            "byteLength" : 192,
            "byteOffset" : 138896
        },
        {
            "buffer" : 0,
            "byteLength" : 72,
            "byteOffset" : 139088
        }
    ],
    "buffers" : [
        {
            "byteLength" : 139160,
            "uri" : "GameClear.bin"
        }
    ]
}
