{
    "asset" : {
        "generator" : "Khronos glTF Blender I/O v1.1.46",
        "version" : "2.0"
    },
    "scene" : 0,
    "scenes" : [
        {
            "name" : "Scene",
            "nodes" : [
                0,
                1,
                2,
                3,
                4,
                5,
                6,
                7,
                8
            ]
        }
    ],
    "nodes" : [
        {
            "name" : "Light",
            "rotation" : [
                0.16907575726509094,
                0.7558803558349609,
                -0.27217137813568115,
                0.570947527885437
            ],
            "translation" : [
                4.076245307922363,
                5.903861999511719,
                -1.0054539442062378
            ]
        },
        {
            "name" : "Camera",
            "rotation" : [
                0.483536034822464,
                0.33687159419059753,
                -0.20870360732078552,
                0.7804827094078064
            ],
            "translation" : [
                7.358891487121582,
                4.958309173583984,
                6.925790786743164
            ]
        },
        {
            "mesh" : 0,
            "name" : "Body",
            "rotation" : [
                0,
                0,
                -0.7071067690849304,
                0.7071067690849304
            ],
            "scale" : [
                1.3700000047683716,
                1,
                1.6800000667572021
            ],
            "translation" : [
                0.15116548538208008,
                0,
                0
            ]
        },
        {
            "mesh" : 1,
            "name" : "Plane",
            "rotation" : [
                0,
                0,
                0.7217602133750916,
                0.6921431422233582
            ],
            "translation" : [
                -8.38759708404541,
                0.7349595427513123,
                0
            ]
        },
        {
            "mesh" : 2,
            "name" : "Plane.001",
            "rotation" : [
                0,
                0,
                0.7071067690849304,
                0.7071067690849304
            ],
            "scale" : [
                1.0700000524520874,
                0.6299999952316284,
                0.8800000548362732
            ],
            "translation" : [
                -9.489319801330566,
                0.26250603795051575,
                0
            ]
        },
        {
            "mesh" : 3,
            "name" : "Cube",
            "rotation" : [
                0.47485634684562683,
                0,
                0,
                0.8800632953643799
            ],
            "scale" : [
                0.27000004053115845,
                1,
                0.26999998092651367
            ],
            "translation" : [
                -6.328871726989746,
                0,
                -1.9171396493911743
            ]
        },
        {
            "mesh" : 4,
            "name" : "Cube.001",
            "rotation" : [
                -0.4748563766479492,
                0,
                0,
                0.8800632953643799
            ],
            "scale" : [
                0.27000004053115845,
                1,
                0.26999998092651367
            ],
            "translation" : [
                -6.328871726989746,
                0,
                1.917140007019043
            ]
        },
        {
            "mesh" : 5,
            "name" : "Cube.002",
            "rotation" : [
                -0.4748563766479492,
                0,
                0,
                0.8800632953643799
            ],
            "scale" : [
                0.27000004053115845,
                1,
                0.26999998092651367
            ],
            "translation" : [
                4,
                0,
                1.917140007019043
            ]
        },
        {
            "mesh" : 6,
            "name" : "Cube.003",
            "rotation" : [
                0.47485634684562683,
                0,
                0,
                0.8800632953643799
            ],
            "scale" : [
                0.27000004053115845,
                1,
                0.26999998092651367
            ],
            "translation" : [
                4,
                0,
                -1.9171396493911743
            ]
        }
    ],
    "materials" : [
        {
            "doubleSided" : true,
            "emissiveFactor" : [
                0,
                0,
                0
            ],
            "name" : "body",
            "pbrMetallicRoughness" : {
                "baseColorFactor" : [
                    0.003926959820091724,
                    0.04321236163377762,
                    0,
                    1
                ],
                "metallicFactor" : 0,
                "roughnessFactor" : 0.5
            }
        }
    ],
    "meshes" : [
        {
            "name" : "Plane",
            "primitives" : [
                {
                    "attributes" : {
                        "POSITION" : 0,
                        "NORMAL" : 1,
                        "TEXCOORD_0" : 2
                    },
                    "indices" : 3,
                    "material" : 0
                }
            ]
        },
        {
            "name" : "Plane.001",
            "primitives" : [
                {
                    "attributes" : {
                        "POSITION" : 4,
                        "NORMAL" : 5,
                        "TEXCOORD_0" : 6
                    },
                    "indices" : 7,
                    "material" : 0
                }
            ]
        },
        {
            "name" : "Plane.003",
            "primitives" : [
                {
                    "attributes" : {
                        "POSITION" : 8,
                        "NORMAL" : 9,
                        "TEXCOORD_0" : 10
                    },
                    "indices" : 11,
                    "material" : 0
                }
            ]
        },
        {
            "name" : "Cube.001",
            "primitives" : [
                {
                    "attributes" : {
                        "POSITION" : 12,
                        "NORMAL" : 13,
                        "TEXCOORD_0" : 14
                    },
                    "indices" : 15,
                    "material" : 0
                }
            ]
        },
        {
            "name" : "Cube.002",
            "primitives" : [
                {
                    "attributes" : {
                        "POSITION" : 16,
                        "NORMAL" : 17,
                        "TEXCOORD_0" : 18
                    },
                    "indices" : 15,
                    "material" : 0
                }
            ]
        },
        {
            "name" : "Cube.003",
            "primitives" : [
                {
                    "attributes" : {
                        "POSITION" : 19,
                        "NORMAL" : 20,
                        "TEXCOORD_0" : 21
                    },
                    "indices" : 15,
                    "material" : 0
                }
            ]
        },
        {
            "name" : "Cube.004",
            "primitives" : [
                {
                    "attributes" : {
                        "POSITION" : 22,
                        "NORMAL" : 23,
                        "TEXCOORD_0" : 24
                    },
                    "indices" : 15,
                    "material" : 0
                }
            ]
        }
    ],
    "accessors" : [
        {
            "bufferView" : 0,
            "componentType" : 5126,
            "count" : 112,
            "max" : [
                0.1671311855316162,
                16.54205894470215,
                1
            ],
            "min" : [
                -0.9999998211860657,
                -8.604161262512207,
                -1
            ],
            "type" : "VEC3"
        },
        {
            "bufferView" : 1,
            "componentType" : 5126,
            "count" : 112,
            "type" : "VEC3"
        },
        {
            "bufferView" : 2,
            "componentType" : 5126,
            "count" : 112,
            "type" : "VEC2"
        },
        {
            "bufferView" : 3,
            "componentType" : 5123,
            "count" : 180,
            "type" : "SCALAR"
        },
        {
            "bufferView" : 4,
            "componentType" : 5126,
            "count" : 1306,
            "max" : [
                0.9514320492744446,
                10.60598373413086,
                1.6029480695724487
            ],
            "min" : [
                -0.9814941883087158,
                0,
                -1.6029480695724487
            ],
            "type" : "VEC3"
        },
        {
            "bufferView" : 5,
            "componentType" : 5126,
            "count" : 1306,
            "type" : "VEC3"
        },
        {
            "bufferView" : 6,
            "componentType" : 5126,
            "count" : 1306,
            "type" : "VEC2"
        },
        {
            "bufferView" : 7,
            "componentType" : 5123,
            "count" : 2052,
            "type" : "SCALAR"
        },
        {
            "bufferView" : 8,
            "componentType" : 5126,
            "count" : 120,
            "max" : [
                0.015673749148845673,
                14.643167495727539,
                0.9040020108222961
            ],
            "min" : [
                -0.5643249750137329,
                0,
                -0.9040020108222961
            ],
            "type" : "VEC3"
        },
        {
            "bufferView" : 9,
            "componentType" : 5126,
            "count" : 120,
            "type" : "VEC3"
        },
        {
            "bufferView" : 10,
            "componentType" : 5126,
            "count" : 120,
            "type" : "VEC2"
        },
        {
            "bufferView" : 11,
            "componentType" : 5123,
            "count" : 180,
            "type" : "SCALAR"
        },
        {
            "bufferView" : 12,
            "componentType" : 5126,
            "count" : 24,
            "max" : [
                1,
                1,
                1
            ],
            "min" : [
                -1,
                -1,
                -1
            ],
            "type" : "VEC3"
        },
        {
            "bufferView" : 13,
            "componentType" : 5126,
            "count" : 24,
            "type" : "VEC3"
        },
        {
            "bufferView" : 14,
            "componentType" : 5126,
            "count" : 24,
            "type" : "VEC2"
        },
        {
            "bufferView" : 15,
            "componentType" : 5123,
            "count" : 36,
            "type" : "SCALAR"
        },
        {
            "bufferView" : 16,
            "componentType" : 5126,
            "count" : 24,
            "max" : [
                1,
                1,
                1
            ],
            "min" : [
                -1,
                -1,
                -1
            ],
            "type" : "VEC3"
        },
        {
            "bufferView" : 17,
            "componentType" : 5126,
            "count" : 24,
            "type" : "VEC3"
        },
        {
            "bufferView" : 18,
            "componentType" : 5126,
            "count" : 24,
            "type" : "VEC2"
        },
        {
            "bufferView" : 19,
            "componentType" : 5126,
            "count" : 24,
            "max" : [
                1,
                1,
                1
            ],
            "min" : [
                -1,
                -1,
                -1
            ],
            "type" : "VEC3"
        },
        {
            "bufferView" : 20,
            "componentType" : 5126,
            "count" : 24,
            "type" : "VEC3"
        },
        {
            "bufferView" : 21,
            "componentType" : 5126,
            "count" : 24,
            "type" : "VEC2"
        },
        {
            "bufferView" : 22,
            "componentType" : 5126,
            "count" : 24,
            "max" : [
                1,
                1,
                1
            ],
            "min" : [
                -1,
                -1,
                -1
            ],
            "type" : "VEC3"
        },
        {
            "bufferView" : 23,
            "componentType" : 5126,
            "count" : 24,
            "type" : "VEC3"
        },
        {
            "bufferView" : 24,
            "componentType" : 5126,
            "count" : 24,
            "type" : "VEC2"
        }
    ],
    "bufferViews" : [
        {
            "buffer" : 0,
            "byteLength" : 1344,
            "byteOffset" : 0
        },
        {
            "buffer" : 0,
            "byteLength" : 1344,
            "byteOffset" : 1344
        },
        {
            "buffer" : 0,
            "byteLength" : 896,
            "byteOffset" : 2688
        },
        {
            "buffer" : 0,
            "byteLength" : 360,
            "byteOffset" : 3584
        },
        {
            "buffer" : 0,
            "byteLength" : 15672,
            "byteOffset" : 3944
        },
        {
            "buffer" : 0,
            "byteLength" : 15672,
            "byteOffset" : 19616
        },
        {
            "buffer" : 0,
            "byteLength" : 10448,
            "byteOffset" : 35288
        },
        {
            "buffer" : 0,
            "byteLength" : 4104,
            "byteOffset" : 45736
        },
        {
            "buffer" : 0,
            "byteLength" : 1440,
            "byteOffset" : 49840
        },
        {
            "buffer" : 0,
            "byteLength" : 1440,
            "byteOffset" : 51280
        },
        {
            "buffer" : 0,
            "byteLength" : 960,
            "byteOffset" : 52720
        },
        {
            "buffer" : 0,
            "byteLength" : 360,
            "byteOffset" : 53680
        },
        {
            "buffer" : 0,
            "byteLength" : 288,
            "byteOffset" : 54040
        },
        {
            "buffer" : 0,
            "byteLength" : 288,
            "byteOffset" : 54328
        },
        {
            "buffer" : 0,
            "byteLength" : 192,
            "byteOffset" : 54616
        },
        {
            "buffer" : 0,
            "byteLength" : 72,
            "byteOffset" : 54808
        },
        {
            "buffer" : 0,
            "byteLength" : 288,
            "byteOffset" : 54880
        },
        {
            "buffer" : 0,
            "byteLength" : 288,
            "byteOffset" : 55168
        },
        {
            "buffer" : 0,
            "byteLength" : 192,
            "byteOffset" : 55456
        },
        {
            "buffer" : 0,
            "byteLength" : 288,
            "byteOffset" : 55648
        },
        {
            "buffer" : 0,
            "byteLength" : 288,
            "byteOffset" : 55936
        },
        {
            "buffer" : 0,
            "byteLength" : 192,
            "byteOffset" : 56224
        },
        {
            "buffer" : 0,
            "byteLength" : 288,
            "byteOffset" : 56416
        },
        {
            "buffer" : 0,
            "byteLength" : 288,
            "byteOffset" : 56704
        },
        {
            "buffer" : 0,
            "byteLength" : 192,
            "byteOffset" : 56992
        }
    ],
    "buffers" : [
        {
            "byteLength" : 57184,
            "uri" : "Alligator.bin"
        }
    ]
}
