{
    "asset" : {
        "generator" : "Khronos glTF Blender I/O v1.1.46",
        "version" : "2.0"
    },
    "scene" : 0,
    "scenes" : [
        {
            "name" : "Scene",
            "nodes" : [
                0,
                1,
                2,
                3
            ]
        }
    ],
    "nodes" : [
        {
            "name" : "Light",
            "rotation" : [
                0.16907575726509094,
                0.7558803558349609,
                -0.27217137813568115,
                0.570947527885437
            ],
            "translation" : [
                4.076245307922363,
                5.903861999511719,
                -1.0054539442062378
            ]
        },
        {
            "name" : "Camera",
            "rotation" : [
                0.483536034822464,
                0.33687159419059753,
                -0.20870360732078552,
                0.7804827094078064
            ],
            "translation" : [
                7.358891487121582,
                4.958309173583984,
                6.925790786743164
            ]
        },
        {
            "mesh" : 0,
            "name" : "map"
        },
        {
            "mesh" : 1,
            "name" : "Plane",
            "rotation" : [
                -0.7071068286895752,
                0,
                0,
                0.7071068286895752
            ],
            "scale" : [
                51.087894439697266,
                51.0879020690918,
                51.0879020690918
            ],
            "translation" : [
                0,
                14.550722122192383,
                0
            ]
        }
    ],
    "materials" : [
        {
            "doubleSided" : true,
            "emissiveFactor" : [
                0,
                0,
                0
            ],
            "name" : "Material.005",
            "pbrMetallicRoughness" : {
                "baseColorTexture" : {
                    "index" : 0,
                    "texCoord" : 0
                },
                "metallicFactor" : 0,
                "roughnessFactor" : 0.5
            }
        },
        {
            "doubleSided" : true,
            "emissiveFactor" : [
                0,
                0,
                0
            ],
            "name" : "Material.004",
            "pbrMetallicRoughness" : {
                "baseColorTexture" : {
                    "index" : 1,
                    "texCoord" : 0
                },
                "metallicFactor" : 0,
                "roughnessFactor" : 0.5
            }
        },
        {
            "doubleSided" : true,
            "emissiveFactor" : [
                0,
                0,
                0
            ],
            "name" : "Material",
            "pbrMetallicRoughness" : {
                "baseColorTexture" : {
                    "index" : 2,
                    "texCoord" : 0
                },
                "metallicFactor" : 0,
                "roughnessFactor" : 0.5
            }
        },
        {
            "doubleSided" : true,
            "emissiveFactor" : [
                0,
                0,
                0
            ],
            "name" : "Material.001",
            "pbrMetallicRoughness" : {
                "baseColorTexture" : {
                    "index" : 3,
                    "texCoord" : 0
                },
                "metallicFactor" : 0,
                "roughnessFactor" : 0.5
            }
        }
    ],
    "meshes" : [
        {
            "name" : "Plane",
            "primitives" : [
                {
                    "attributes" : {
                        "POSITION" : 0,
                        "NORMAL" : 1,
                        "TEXCOORD_0" : 2
                    },
                    "indices" : 3,
                    "material" : 0
                },
                {
                    "attributes" : {
                        "POSITION" : 4,
                        "NORMAL" : 5,
                        "TEXCOORD_0" : 6
                    },
                    "indices" : 7,
                    "material" : 1
                },
                {
                    "attributes" : {
                        "POSITION" : 8,
                        "NORMAL" : 9,
                        "TEXCOORD_0" : 10
                    },
                    "indices" : 11,
                    "material" : 2
                },
                {
                    "attributes" : {
                        "POSITION" : 12,
                        "NORMAL" : 13,
                        "TEXCOORD_0" : 14
                    },
                    "indices" : 15,
                    "material" : 3
                }
            ]
        },
        {
            "name" : "Plane.002",
            "primitives" : [
                {
                    "attributes" : {
                        "POSITION" : 16,
                        "NORMAL" : 17,
                        "TEXCOORD_0" : 18
                    },
                    "indices" : 19,
                    "material" : 3
                }
            ]
        }
    ],
    "textures" : [
        {
            "source" : 0
        },
        {
            "source" : 1
        },
        {
            "source" : 1
        },
        {
            "source" : 0
        }
    ],
    "images" : [
        {
            "mimeType" : "image/png",
            "name" : "WallStone",
            "uri" : "WallStone.png"
        },
        {
            "mimeType" : "image/png",
            "name" : "FloorStone",
            "uri" : "FloorStone.png"
        }
    ],
    "accessors" : [
        {
            "bufferView" : 0,
            "componentType" : 5126,
            "count" : 6260,
            "max" : [
                47.42146682739258,
                13.858027458190918,
                49.87403106689453
            ],
            "min" : [
                -50.311485290527344,
                0,
                -49.87403106689453
            ],
            "type" : "VEC3"
        },
        {
            "bufferView" : 1,
            "componentType" : 5126,
            "count" : 6260,
            "type" : "VEC3"
        },
        {
            "bufferView" : 2,
            "componentType" : 5126,
            "count" : 6260,
            "type" : "VEC2"
        },
        {
            "bufferView" : 3,
            "componentType" : 5123,
            "count" : 9420,
            "type" : "SCALAR"
        },
        {
            "bufferView" : 4,
            "componentType" : 5126,
            "count" : 16110,
            "max" : [
                47.42146682739258,
                13.858027458190918,
                45.843807220458984
            ],
            "min" : [
                -50.311485290527344,
                0,
                -49.87403106689453
            ],
            "type" : "VEC3"
        },
        {
            "bufferView" : 5,
            "componentType" : 5126,
            "count" : 16110,
            "type" : "VEC3"
        },
        {
            "bufferView" : 6,
            "componentType" : 5126,
            "count" : 16110,
            "type" : "VEC2"
        },
        {
            "bufferView" : 7,
            "componentType" : 5123,
            "count" : 24168,
            "type" : "SCALAR"
        },
        {
            "bufferView" : 8,
            "componentType" : 5126,
            "count" : 216,
            "max" : [
                -25.204486846923828,
                10.552835464477539,
                -34.94828796386719
            ],
            "min" : [
                -29.204486846923828,
                4.298803329467773,
                -38.94828796386719
            ],
            "type" : "VEC3"
        },
        {
            "bufferView" : 9,
            "componentType" : 5126,
            "count" : 216,
            "type" : "VEC3"
        },
        {
            "bufferView" : 10,
            "componentType" : 5126,
            "count" : 216,
            "type" : "VEC2"
        },
        {
            "bufferView" : 11,
            "componentType" : 5123,
            "count" : 408,
            "type" : "SCALAR"
        },
        {
            "bufferView" : 12,
            "componentType" : 5126,
            "count" : 88,
            "max" : [
                -9.042531967163086,
                13.838631629943848,
                -30.50595474243164
            ],
            "min" : [
                -9.542531967163086,
                4.19863224029541,
                -43.605953216552734
            ],
            "type" : "VEC3"
        },
        {
            "bufferView" : 13,
            "componentType" : 5126,
            "count" : 88,
            "type" : "VEC3"
        },
        {
            "bufferView" : 14,
            "componentType" : 5126,
            "count" : 88,
            "type" : "VEC2"
        },
        {
            "bufferView" : 15,
            "componentType" : 5123,
            "count" : 168,
            "type" : "SCALAR"
        },
        {
            "bufferView" : 16,
            "componentType" : 5126,
            "count" : 4,
            "max" : [
                1,
                1,
                -0.015996359288692474
            ],
            "min" : [
                -1,
                -1,
                -0.015996359288692474
            ],
            "type" : "VEC3"
        },
        {
            "bufferView" : 17,
            "componentType" : 5126,
            "count" : 4,
            "type" : "VEC3"
        },
        {
            "bufferView" : 18,
            "componentType" : 5126,
            "count" : 4,
            "type" : "VEC2"
        },
        {
            "bufferView" : 19,
            "componentType" : 5123,
            "count" : 6,
            "type" : "SCALAR"
        }
    ],
    "bufferViews" : [
        {
            "buffer" : 0,
            "byteLength" : 75120,
            "byteOffset" : 0
        },
        {
            "buffer" : 0,
            "byteLength" : 75120,
            "byteOffset" : 75120
        },
        {
            "buffer" : 0,
            "byteLength" : 50080,
            "byteOffset" : 150240
        },
        {
            "buffer" : 0,
            "byteLength" : 18840,
            "byteOffset" : 200320
        },
        {
            "buffer" : 0,
            "byteLength" : 193320,
            "byteOffset" : 219160
        },
        {
            "buffer" : 0,
            "byteLength" : 193320,
            "byteOffset" : 412480
        },
        {
            "buffer" : 0,
            "byteLength" : 128880,
            "byteOffset" : 605800
        },
        {
            "buffer" : 0,
            "byteLength" : 48336,
            "byteOffset" : 734680
        },
        {
            "buffer" : 0,
            "byteLength" : 2592,
            "byteOffset" : 783016
        },
        {
            "buffer" : 0,
            "byteLength" : 2592,
            "byteOffset" : 785608
        },
        {
            "buffer" : 0,
            "byteLength" : 1728,
            "byteOffset" : 788200
        },
        {
            "buffer" : 0,
            "byteLength" : 816,
            "byteOffset" : 789928
        },
        {
            "buffer" : 0,
            "byteLength" : 1056,
            "byteOffset" : 790744
        },
        {
            "buffer" : 0,
            "byteLength" : 1056,
            "byteOffset" : 791800
        },
        {
            "buffer" : 0,
            "byteLength" : 704,
            "byteOffset" : 792856
        },
        {
            "buffer" : 0,
            "byteLength" : 336,
            "byteOffset" : 793560
        },
        {
            "buffer" : 0,
            "byteLength" : 48,
            "byteOffset" : 793896
        },
        {
            "buffer" : 0,
            "byteLength" : 48,
            "byteOffset" : 793944
        },
        {
            "buffer" : 0,
            "byteLength" : 32,
            "byteOffset" : 793992
        },
        {
            "buffer" : 0,
            "byteLength" : 12,
            "byteOffset" : 794024
        }
    ],
    "buffers" : [
        {
            "byteLength" : 794036,
            "uri" : "Dungen2.bin"
        }
    ]
}
