{
    "asset" : {
        "generator" : "Khronos glTF Blender I/O v1.1.46",
        "version" : "2.0"
    },
    "scene" : 0,
    "scenes" : [
        {
            "name" : "Scene",
            "nodes" : [
                0,
                1,
                2
            ]
        }
    ],
    "nodes" : [
        {
            "name" : "Light",
            "rotation" : [
                0.5232754945755005,
                0.34203392267227173,
                -0.7269423604011536,
                0.284166157245636
            ],
            "translation" : [
                4.076245307922363,
                5.903862476348877,
                -1.0054532289505005
            ]
        },
        {
            "name" : "Camera",
            "rotation" : [
                0.8937963247299194,
                0.09062855690717697,
                -0.3857799172401428,
                0.20997287333011627
            ],
            "translation" : [
                7.358891487121582,
                4.958308696746826,
                6.925792217254639
            ]
        },
        {
            "mesh" : 0,
            "name" : "map",
            "rotation" : [
                0.7071068286895752,
                0,
                0,
                0.7071067094802856
            ]
        }
    ],
    "materials" : [
        {
            "doubleSided" : true,
            "emissiveFactor" : [
                0,
                0,
                0
            ],
            "name" : "Material.005",
            "normalTexture" : {
                "index" : 0,
                "texCoord" : 0
            },
            "pbrMetallicRoughness" : {
                "baseColorTexture" : {
                    "index" : 1,
                    "texCoord" : 0
                },
                "metallicFactor" : 0,
                "roughnessFactor" : 0.5
            }
        },
        {
            "doubleSided" : true,
            "emissiveFactor" : [
                0,
                0,
                0
            ],
            "name" : "Material.004",
            "pbrMetallicRoughness" : {
                "baseColorTexture" : {
                    "index" : 2,
                    "texCoord" : 0
                },
                "metallicFactor" : 0,
                "roughnessFactor" : 0.5
            }
        }
    ],
    "meshes" : [
        {
            "name" : "Plane",
            "primitives" : [
                {
                    "attributes" : {
                        "POSITION" : 0,
                        "NORMAL" : 1,
                        "TEXCOORD_0" : 2
                    },
                    "indices" : 3,
                    "material" : 0
                },
                {
                    "attributes" : {
                        "POSITION" : 4,
                        "NORMAL" : 5,
                        "TEXCOORD_0" : 6
                    },
                    "indices" : 7,
                    "material" : 1
                }
            ]
        }
    ],
    "textures" : [
        {
            "source" : 0
        },
        {
            "source" : 1
        },
        {
            "source" : 2
        }
    ],
    "images" : [
        {
            "mimeType" : "image/png",
            "name" : "WallStoneNormal",
            "uri" : "WallStoneNormal.png"
        },
        {
            "mimeType" : "image/png",
            "name" : "WallStone",
            "uri" : "WallStone.png"
        },
        {
            "mimeType" : "image/png",
            "name" : "FloorStone",
            "uri" : "FloorStone.png"
        }
    ],
    "accessors" : [
        {
            "bufferView" : 0,
            "componentType" : 5126,
            "count" : 1414,
            "max" : [
                47.024696350097656,
                0.030889511108398438,
                0
            ],
            "min" : [
                -0.3304431438446045,
                -60.4224853515625,
                -13.858028411865234
            ],
            "type" : "VEC3"
        },
        {
            "bufferView" : 1,
            "componentType" : 5126,
            "count" : 1414,
            "type" : "VEC3"
        },
        {
            "bufferView" : 2,
            "componentType" : 5126,
            "count" : 1414,
            "type" : "VEC2"
        },
        {
            "bufferView" : 3,
            "componentType" : 5123,
            "count" : 2094,
            "type" : "SCALAR"
        },
        {
            "bufferView" : 4,
            "componentType" : 5126,
            "count" : 4134,
            "max" : [
                47.024696350097656,
                0.030889511108398438,
                0
            ],
            "min" : [
                -0.3304483890533447,
                -56.39226150512695,
                -4.71079158782959
            ],
            "type" : "VEC3"
        },
        {
            "bufferView" : 5,
            "componentType" : 5126,
            "count" : 4134,
            "type" : "VEC3"
        },
        {
            "bufferView" : 6,
            "componentType" : 5126,
            "count" : 4134,
            "type" : "VEC2"
        },
        {
            "bufferView" : 7,
            "componentType" : 5123,
            "count" : 6042,
            "type" : "SCALAR"
        }
    ],
    "bufferViews" : [
        {
            "buffer" : 0,
            "byteLength" : 16968,
            "byteOffset" : 0
        },
        {
            "buffer" : 0,
            "byteLength" : 16968,
            "byteOffset" : 16968
        },
        {
            "buffer" : 0,
            "byteLength" : 11312,
            "byteOffset" : 33936
        },
        {
            "buffer" : 0,
            "byteLength" : 4188,
            "byteOffset" : 45248
        },
        {
            "buffer" : 0,
            "byteLength" : 49608,
            "byteOffset" : 49436
        },
        {
            "buffer" : 0,
            "byteLength" : 49608,
            "byteOffset" : 99044
        },
        {
            "buffer" : 0,
            "byteLength" : 33072,
            "byteOffset" : 148652
        },
        {
            "buffer" : 0,
            "byteLength" : 12084,
            "byteOffset" : 181724
        }
    ],
    "buffers" : [
        {
            "byteLength" : 193808,
            "uri" : "Part0.bin"
        }
    ]
}
