{
    "asset" : {
        "generator" : "Khronos glTF Blender I/O v1.1.46",
        "version" : "2.0"
    },
    "scene" : 0,
    "scenes" : [
        {
            "name" : "Scene",
            "nodes" : [
                0,
                1,
                2
            ]
        }
    ],
    "nodes" : [
        {
            "name" : "Light",
            "rotation" : [
                0.5232754945755005,
                0.34203392267227173,
                -0.7269423604011536,
                0.284166157245636
            ],
            "translation" : [
                4.076245307922363,
                5.903862476348877,
                -1.0054532289505005
            ]
        },
        {
            "name" : "Camera",
            "rotation" : [
                0.8937963247299194,
                0.09062855690717697,
                -0.3857799172401428,
                0.20997287333011627
            ],
            "translation" : [
                7.358891487121582,
                4.958308696746826,
                6.925792217254639
            ]
        },
        {
            "mesh" : 0,
            "name" : "map",
            "rotation" : [
                0.7071068286895752,
                0,
                0,
                0.7071067094802856
            ]
        }
    ],
    "materials" : [
        {
            "doubleSided" : true,
            "emissiveFactor" : [
                0,
                0,
                0
            ],
            "name" : "Material.003",
            "normalTexture" : {
                "index" : 0,
                "texCoord" : 0
            },
            "pbrMetallicRoughness" : {
                "baseColorTexture" : {
                    "index" : 1,
                    "texCoord" : 0
                },
                "metallicFactor" : 0,
                "roughnessFactor" : 0.5
            }
        },
        {
            "doubleSided" : true,
            "emissiveFactor" : [
                0,
                0,
                0
            ],
            "name" : "Material.006",
            "pbrMetallicRoughness" : {
                "baseColorTexture" : {
                    "index" : 2,
                    "texCoord" : 0
                },
                "metallicFactor" : 0,
                "roughnessFactor" : 0.5
            }
        },
        {
            "doubleSided" : true,
            "emissiveFactor" : [
                0,
                0,
                0
            ],
            "name" : "Material.007",
            "normalTexture" : {
                "index" : 3,
                "texCoord" : 0
            },
            "pbrMetallicRoughness" : {
                "baseColorTexture" : {
                    "index" : 4,
                    "texCoord" : 0
                },
                "metallicFactor" : 0,
                "roughnessFactor" : 0.5
            }
        }
    ],
    "meshes" : [
        {
            "name" : "Plane.002",
            "primitives" : [
                {
                    "attributes" : {
                        "POSITION" : 0,
                        "NORMAL" : 1,
                        "TEXCOORD_0" : 2
                    },
                    "indices" : 3,
                    "material" : 0
                },
                {
                    "attributes" : {
                        "POSITION" : 4,
                        "NORMAL" : 5,
                        "TEXCOORD_0" : 6
                    },
                    "indices" : 7,
                    "material" : 1
                },
                {
                    "attributes" : {
                        "POSITION" : 8,
                        "NORMAL" : 9,
                        "TEXCOORD_0" : 10
                    },
                    "indices" : 11,
                    "material" : 2
                }
            ]
        }
    ],
    "textures" : [
        {
            "source" : 0
        },
        {
            "source" : 1
        },
        {
            "source" : 2
        },
        {
            "source" : 0
        },
        {
            "source" : 1
        }
    ],
    "images" : [
        {
            "mimeType" : "image/png",
            "name" : "WallStoneNormal",
            "uri" : "WallStoneNormal.png"
        },
        {
            "mimeType" : "image/png",
            "name" : "WallStone.png",
            "uri" : "WallStone_png.png"
        },
        {
            "mimeType" : "image/png",
            "name" : "FloorStone",
            "uri" : "FloorStone.png"
        }
    ],
    "accessors" : [
        {
            "bufferView" : 0,
            "componentType" : 5126,
            "count" : 926,
            "max" : [
                47.024696350097656,
                39.325584411621094,
                0
            ],
            "min" : [
                -0.33045196533203125,
                0.030887603759765625,
                -13.858028411865234
            ],
            "type" : "VEC3"
        },
        {
            "bufferView" : 1,
            "componentType" : 5126,
            "count" : 926,
            "type" : "VEC3"
        },
        {
            "bufferView" : 2,
            "componentType" : 5126,
            "count" : 926,
            "type" : "VEC2"
        },
        {
            "bufferView" : 3,
            "componentType" : 5123,
            "count" : 1374,
            "type" : "SCALAR"
        },
        {
            "bufferView" : 4,
            "componentType" : 5126,
            "count" : 4312,
            "max" : [
                37.956695556640625,
                39.325584411621094,
                -4.71079158782959
            ],
            "min" : [
                -0.33045101165771484,
                0.030885696411132812,
                -4.71079158782959
            ],
            "type" : "VEC3"
        },
        {
            "bufferView" : 5,
            "componentType" : 5126,
            "count" : 4312,
            "type" : "VEC3"
        },
        {
            "bufferView" : 6,
            "componentType" : 5126,
            "count" : 4312,
            "type" : "VEC2"
        },
        {
            "bufferView" : 7,
            "componentType" : 5123,
            "count" : 6330,
            "type" : "SCALAR"
        },
        {
            "bufferView" : 8,
            "componentType" : 5126,
            "count" : 140,
            "max" : [
                6.2557373046875,
                33.057498931884766,
                -4.19863224029541
            ],
            "min" : [
                5.755735397338867,
                19.957500457763672,
                -13.838632583618164
            ],
            "type" : "VEC3"
        },
        {
            "bufferView" : 9,
            "componentType" : 5126,
            "count" : 140,
            "type" : "VEC3"
        },
        {
            "bufferView" : 10,
            "componentType" : 5126,
            "count" : 140,
            "type" : "VEC2"
        },
        {
            "bufferView" : 11,
            "componentType" : 5123,
            "count" : 156,
            "type" : "SCALAR"
        }
    ],
    "bufferViews" : [
        {
            "buffer" : 0,
            "byteLength" : 11112,
            "byteOffset" : 0
        },
        {
            "buffer" : 0,
            "byteLength" : 11112,
            "byteOffset" : 11112
        },
        {
            "buffer" : 0,
            "byteLength" : 7408,
            "byteOffset" : 22224
        },
        {
            "buffer" : 0,
            "byteLength" : 2748,
            "byteOffset" : 29632
        },
        {
            "buffer" : 0,
            "byteLength" : 51744,
            "byteOffset" : 32380
        },
        {
            "buffer" : 0,
            "byteLength" : 51744,
            "byteOffset" : 84124
        },
        {
            "buffer" : 0,
            "byteLength" : 34496,
            "byteOffset" : 135868
        },
        {
            "buffer" : 0,
            "byteLength" : 12660,
            "byteOffset" : 170364
        },
        {
            "buffer" : 0,
            "byteLength" : 1680,
            "byteOffset" : 183024
        },
        {
            "buffer" : 0,
            "byteLength" : 1680,
            "byteOffset" : 184704
        },
        {
            "buffer" : 0,
            "byteLength" : 1120,
            "byteOffset" : 186384
        },
        {
            "buffer" : 0,
            "byteLength" : 312,
            "byteOffset" : 187504
        }
    ],
    "buffers" : [
        {
            "byteLength" : 187816,
            "uri" : "Part2.bin"
        }
    ]
}
