{
    "asset" : {
        "generator" : "Khronos glTF Blender I/O v1.1.46",
        "version" : "2.0"
    },
    "scene" : 0,
    "scenes" : [
        {
            "name" : "Scene",
            "nodes" : [
                0,
                1,
                2
            ]
        }
    ],
    "nodes" : [
        {
            "name" : "Light",
            "rotation" : [
                0.16907575726509094,
                0.7558803558349609,
                -0.27217137813568115,
                0.570947527885437
            ],
            "translation" : [
                4.076245307922363,
                5.903861999511719,
                -1.0054539442062378
            ]
        },
        {
            "name" : "Camera",
            "rotation" : [
                0.483536034822464,
                0.33687159419059753,
                -0.20870360732078552,
                0.7804827094078064
            ],
            "translation" : [
                7.358891487121582,
                4.958309173583984,
                6.925790786743164
            ]
        },
        {
            "mesh" : 0,
            "name" : "map"
        }
    ],
    "materials" : [
        {
            "doubleSided" : true,
            "emissiveFactor" : [
                0,
                0,
                0
            ],
            "name" : "Material.005",
            "pbrMetallicRoughness" : {
                "baseColorTexture" : {
                    "index" : 0,
                    "texCoord" : 0
                },
                "metallicFactor" : 0,
                "roughnessFactor" : 0.5
            }
        },
        {
            "doubleSided" : true,
            "emissiveFactor" : [
                0,
                0,
                0
            ],
            "name" : "Material.004",
            "pbrMetallicRoughness" : {
                "baseColorTexture" : {
                    "index" : 1,
                    "texCoord" : 0
                },
                "metallicFactor" : 0,
                "roughnessFactor" : 0.5
            }
        },
        {
            "doubleSided" : true,
            "emissiveFactor" : [
                0,
                0,
                0
            ],
            "name" : "Material.001",
            "pbrMetallicRoughness" : {
                "baseColorTexture" : {
                    "index" : 2,
                    "texCoord" : 0
                },
                "metallicFactor" : 0,
                "roughnessFactor" : 0.5
            }
        }
    ],
    "meshes" : [
        {
            "name" : "Plane",
            "primitives" : [
                {
                    "attributes" : {
                        "POSITION" : 0,
                        "NORMAL" : 1,
                        "TEXCOORD_0" : 2
                    },
                    "indices" : 3,
                    "material" : 0
                },
                {
                    "attributes" : {
                        "POSITION" : 4,
                        "NORMAL" : 5,
                        "TEXCOORD_0" : 6
                    },
                    "indices" : 7,
                    "material" : 1
                },
                {
                    "attributes" : {
                        "POSITION" : 8,
                        "NORMAL" : 9,
                        "TEXCOORD_0" : 10
                    },
                    "indices" : 11,
                    "material" : 2
                }
            ]
        }
    ],
    "textures" : [
        {
            "source" : 0
        },
        {
            "source" : 1
        },
        {
            "source" : 0
        }
    ],
    "images" : [
        {
            "mimeType" : "image/png",
            "name" : "WallStone",
            "uri" : "WallStone.png"
        },
        {
            "mimeType" : "image/png",
            "name" : "FloorStone",
            "uri" : "FloorStone.png"
        }
    ],
    "accessors" : [
        {
            "bufferView" : 0,
            "componentType" : 5126,
            "count" : 910,
            "max" : [
                47.024696350097656,
                13.858028411865234,
                39.325584411621094
            ],
            "min" : [
                -0.33045196533203125,
                0,
                0.030887603759765625
            ],
            "type" : "VEC3"
        },
        {
            "bufferView" : 1,
            "componentType" : 5126,
            "count" : 910,
            "type" : "VEC3"
        },
        {
            "bufferView" : 2,
            "componentType" : 5126,
            "count" : 910,
            "type" : "VEC2"
        },
        {
            "bufferView" : 3,
            "componentType" : 5123,
            "count" : 1374,
            "type" : "SCALAR"
        },
        {
            "bufferView" : 4,
            "componentType" : 5126,
            "count" : 4220,
            "max" : [
                37.956695556640625,
                4.71079158782959,
                39.325584411621094
            ],
            "min" : [
                -0.33045101165771484,
                4.71079158782959,
                0.030885696411132812
            ],
            "type" : "VEC3"
        },
        {
            "bufferView" : 5,
            "componentType" : 5126,
            "count" : 4220,
            "type" : "VEC3"
        },
        {
            "bufferView" : 6,
            "componentType" : 5126,
            "count" : 4220,
            "type" : "VEC2"
        },
        {
            "bufferView" : 7,
            "componentType" : 5123,
            "count" : 6330,
            "type" : "SCALAR"
        },
        {
            "bufferView" : 8,
            "componentType" : 5126,
            "count" : 84,
            "max" : [
                6.2557373046875,
                13.838632583618164,
                33.057498931884766
            ],
            "min" : [
                5.755735397338867,
                4.19863224029541,
                19.957500457763672
            ],
            "type" : "VEC3"
        },
        {
            "bufferView" : 9,
            "componentType" : 5126,
            "count" : 84,
            "type" : "VEC3"
        },
        {
            "bufferView" : 10,
            "componentType" : 5126,
            "count" : 84,
            "type" : "VEC2"
        },
        {
            "bufferView" : 11,
            "componentType" : 5123,
            "count" : 156,
            "type" : "SCALAR"
        }
    ],
    "bufferViews" : [
        {
            "buffer" : 0,
            "byteLength" : 10920,
            "byteOffset" : 0
        },
        {
            "buffer" : 0,
            "byteLength" : 10920,
            "byteOffset" : 10920
        },
        {
            "buffer" : 0,
            "byteLength" : 7280,
            "byteOffset" : 21840
        },
        {
            "buffer" : 0,
            "byteLength" : 2748,
            "byteOffset" : 29120
        },
        {
            "buffer" : 0,
            "byteLength" : 50640,
            "byteOffset" : 31868
        },
        {
            "buffer" : 0,
            "byteLength" : 50640,
            "byteOffset" : 82508
        },
        {
            "buffer" : 0,
            "byteLength" : 33760,
            "byteOffset" : 133148
        },
        {
            "buffer" : 0,
            "byteLength" : 12660,
            "byteOffset" : 166908
        },
        {
            "buffer" : 0,
            "byteLength" : 1008,
            "byteOffset" : 179568
        },
        {
            "buffer" : 0,
            "byteLength" : 1008,
            "byteOffset" : 180576
        },
        {
            "buffer" : 0,
            "byteLength" : 672,
            "byteOffset" : 181584
        },
        {
            "buffer" : 0,
            "byteLength" : 312,
            "byteOffset" : 182256
        }
    ],
    "buffers" : [
        {
            "byteLength" : 182568,
            "uri" : "Part2.bin"
        }
    ]
}
