{
    "asset" : {
        "generator" : "Khronos glTF Blender I/O v1.1.46",
        "version" : "2.0"
    },
    "scene" : 0,
    "scenes" : [
        {
            "name" : "Scene",
            "nodes" : [
                0,
                1,
                2,
                3,
                4
            ]
        }
    ],
    "nodes" : [
        {
            "name" : "Light",
            "rotation" : [
                0.5232754945755005,
                0.34203392267227173,
                -0.7269423604011536,
                0.284166157245636
            ],
            "translation" : [
                4.076245307922363,
                5.903862476348877,
                -1.0054532289505005
            ]
        },
        {
            "name" : "Camera",
            "rotation" : [
                0.8937963247299194,
                0.09062855690717697,
                -0.3857799172401428,
                0.20997287333011627
            ],
            "translation" : [
                7.358891487121582,
                4.958308696746826,
                6.925792217254639
            ]
        },
        {
            "mesh" : 0,
            "name" : "Body",
            "scale" : [
                0.22192208468914032,
                0.2219221293926239,
                0.2219221293926239
            ],
            "translation" : [
                0,
                0.0025841277092695236,
                -0.0014794910093769431
            ]
        },
        {
            "mesh" : 1,
            "name" : "WingL",
            "scale" : [
                0.22192208468914032,
                0.2219221293926239,
                0.2219221293926239
            ],
            "translation" : [
                0,
                0.0025841277092695236,
                0.0007397461449727416
            ]
        },
        {
            "mesh" : 2,
            "name" : "WingR",
            "rotation" : [
                0,
                0,
                -1,
                1.5893260041366375e-08
            ],
            "scale" : [
                0.2219221293926239,
                0.2219221293926239,
                0.2219221293926239
            ],
            "translation" : [
                0,
                0.0025841277092695236,
                0.0007397461449727416
            ]
        }
    ],
    "materials" : [
        {
            "doubleSided" : true,
            "emissiveFactor" : [
                0,
                0,
                0
            ],
            "name" : "Material.002",
            "pbrMetallicRoughness" : {
                "baseColorFactor" : [
                    0.800000011920929,
                    0.800000011920929,
                    0.800000011920929,
                    1
                ],
                "metallicFactor" : 0,
                "roughnessFactor" : 0.5
            }
        }
    ],
    "meshes" : [
        {
            "name" : "Plane",
            "primitives" : [
                {
                    "attributes" : {
                        "POSITION" : 0,
                        "NORMAL" : 1,
                        "TEXCOORD_0" : 2
                    },
                    "indices" : 3,
                    "material" : 0
                }
            ]
        },
        {
            "name" : "Cube.001",
            "primitives" : [
                {
                    "attributes" : {
                        "POSITION" : 4,
                        "NORMAL" : 5,
                        "TEXCOORD_0" : 6
                    },
                    "indices" : 7,
                    "material" : 0
                }
            ]
        },
        {
            "name" : "Cube.003",
            "primitives" : [
                {
                    "attributes" : {
                        "POSITION" : 8,
                        "NORMAL" : 9,
                        "TEXCOORD_0" : 10
                    },
                    "indices" : 7,
                    "material" : 0
                }
            ]
        }
    ],
    "accessors" : [
        {
            "bufferView" : 0,
            "componentType" : 5126,
            "count" : 522,
            "max" : [
                0.6972459554672241,
                0.299570769071579,
                1.2824366092681885
            ],
            "min" : [
                -0.6961860656738281,
                -0.299570769071579,
                -1.0836946964263916
            ],
            "type" : "VEC3"
        },
        {
            "bufferView" : 1,
            "componentType" : 5126,
            "count" : 522,
            "type" : "VEC3"
        },
        {
            "bufferView" : 2,
            "componentType" : 5126,
            "count" : 522,
            "type" : "VEC2"
        },
        {
            "bufferView" : 3,
            "componentType" : 5123,
            "count" : 612,
            "type" : "SCALAR"
        },
        {
            "bufferView" : 4,
            "componentType" : 5126,
            "count" : 202,
            "max" : [
                -0.08385038375854492,
                0.02000008523464203,
                1.2504260540008545
            ],
            "min" : [
                -2.8138158321380615,
                -0.019999980926513672,
                -0.6851152777671814
            ],
            "type" : "VEC3"
        },
        {
            "bufferView" : 5,
            "componentType" : 5126,
            "count" : 202,
            "type" : "VEC3"
        },
        {
            "bufferView" : 6,
            "componentType" : 5126,
            "count" : 202,
            "type" : "VEC2"
        },
        {
            "bufferView" : 7,
            "componentType" : 5123,
            "count" : 228,
            "type" : "SCALAR"
        },
        {
            "bufferView" : 8,
            "componentType" : 5126,
            "count" : 202,
            "max" : [
                -0.08385038375854492,
                0.02000008523464203,
                1.2504260540008545
            ],
            "min" : [
                -2.8138158321380615,
                -0.019999980926513672,
                -0.6851152777671814
            ],
            "type" : "VEC3"
        },
        {
            "bufferView" : 9,
            "componentType" : 5126,
            "count" : 202,
            "type" : "VEC3"
        },
        {
            "bufferView" : 10,
            "componentType" : 5126,
            "count" : 202,
            "type" : "VEC2"
        }
    ],
    "bufferViews" : [
        {
            "buffer" : 0,
            "byteLength" : 6264,
            "byteOffset" : 0
        },
        {
            "buffer" : 0,
            "byteLength" : 6264,
            "byteOffset" : 6264
        },
        {
            "buffer" : 0,
            "byteLength" : 4176,
            "byteOffset" : 12528
        },
        {
            "buffer" : 0,
            "byteLength" : 1224,
            "byteOffset" : 16704
        },
        {
            "buffer" : 0,
            "byteLength" : 2424,
            "byteOffset" : 17928
        },
        {
            "buffer" : 0,
            "byteLength" : 2424,
            "byteOffset" : 20352
        },
        {
            "buffer" : 0,
            "byteLength" : 1616,
            "byteOffset" : 22776
        },
        {
            "buffer" : 0,
            "byteLength" : 456,
            "byteOffset" : 24392
        },
        {
            "buffer" : 0,
            "byteLength" : 2424,
            "byteOffset" : 24848
        },
        {
            "buffer" : 0,
            "byteLength" : 2424,
            "byteOffset" : 27272
        },
        {
            "buffer" : 0,
            "byteLength" : 1616,
            "byteOffset" : 29696
        }
    ],
    "buffers" : [
        {
            "byteLength" : 31312,
            "uri" : "EnemyMetalBullet.bin"
        }
    ]
}
