{
    "asset" : {
        "generator" : "Khronos glTF Blender I/O v1.1.46",
        "version" : "2.0"
    },
    "scene" : 0,
    "scenes" : [
        {
            "name" : "Scene",
            "nodes" : [
                0,
                1,
                2,
                3
            ]
        }
    ],
    "nodes" : [
        {
            "name" : "Light",
            "rotation" : [
                0.16907575726509094,
                0.7558803558349609,
                -0.27217137813568115,
                0.570947527885437
            ],
            "scale" : [
                0.3730226755142212,
                0.3730226755142212,
                0.3730226755142212
            ],
            "translation" : [
                8.934066772460938,
                9.268620491027832,
                0.5529221296310425
            ]
        },
        {
            "name" : "Camera",
            "rotation" : [
                0.483536034822464,
                0.33687159419059753,
                -0.20870360732078552,
                0.7804827094078064
            ],
            "scale" : [
                0.3730226755142212,
                0.3730226755142212,
                0.3730226755142212
            ],
            "translation" : [
                10.158568382263184,
                8.915907859802246,
                3.511456251144409
            ]
        },
        {
            "mesh" : 0,
            "name" : "map",
            "scale" : [
                0.3730226755142212,
                0.3730226755142212,
                0.3730226755142212
            ]
        },
        {
            "mesh" : 1,
            "name" : "Plane",
            "rotation" : [
                1,
                0,
                0,
                7.549790126404332e-08
            ],
            "scale" : [
                51.087894439697266,
                51.087894439697266,
                51.087894439697266
            ],
            "translation" : [
                0,
                13.711956977844238,
                0
            ]
        }
    ],
    "materials" : [
        {
            "doubleSided" : true,
            "emissiveFactor" : [
                0,
                0,
                0
            ],
            "name" : "Material.002",
            "pbrMetallicRoughness" : {
                "baseColorTexture" : {
                    "index" : 0,
                    "texCoord" : 0
                },
                "metallicFactor" : 0,
                "roughnessFactor" : 0.5
            }
        },
        {
            "doubleSided" : true,
            "emissiveFactor" : [
                0,
                0,
                0
            ],
            "name" : "Material",
            "pbrMetallicRoughness" : {
                "baseColorTexture" : {
                    "index" : 1,
                    "texCoord" : 0
                },
                "metallicFactor" : 0,
                "roughnessFactor" : 0.5
            }
        },
        {
            "doubleSided" : true,
            "emissiveFactor" : [
                0,
                0,
                0
            ],
            "name" : "Material.001",
            "pbrMetallicRoughness" : {
                "baseColorFactor" : [
                    0,
                    0,
                    0,
                    1
                ],
                "metallicFactor" : 0,
                "roughnessFactor" : 0.5
            }
        }
    ],
    "meshes" : [
        {
            "name" : "Plane",
            "primitives" : [
                {
                    "attributes" : {
                        "POSITION" : 0,
                        "NORMAL" : 1,
                        "TEXCOORD_0" : 2
                    },
                    "indices" : 3,
                    "material" : 0
                },
                {
                    "attributes" : {
                        "POSITION" : 4,
                        "NORMAL" : 5,
                        "TEXCOORD_0" : 6
                    },
                    "indices" : 7,
                    "material" : 1
                },
                {
                    "attributes" : {
                        "POSITION" : 8,
                        "NORMAL" : 9,
                        "TEXCOORD_0" : 10
                    },
                    "indices" : 11,
                    "material" : 2
                }
            ]
        },
        {
            "name" : "Plane.001",
            "primitives" : [
                {
                    "attributes" : {
                        "POSITION" : 12,
                        "NORMAL" : 13,
                        "TEXCOORD_0" : 14
                    },
                    "indices" : 15,
                    "material" : 0
                }
            ]
        }
    ],
    "textures" : [
        {
            "source" : 0
        },
        {
            "source" : 1
        }
    ],
    "images" : [
        {
            "mimeType" : "image/png",
            "name" : "WallStone",
            "uri" : "WallStone.png"
        },
        {
            "mimeType" : "image/png",
            "name" : "FloorStone",
            "uri" : "FloorStone.png"
        }
    ],
    "accessors" : [
        {
            "bufferView" : 0,
            "componentType" : 5126,
            "count" : 4718,
            "max" : [
                61,
                36.24622344970703,
                119
            ],
            "min" : [
                -133,
                0,
                -119
            ],
            "type" : "VEC3"
        },
        {
            "bufferView" : 1,
            "componentType" : 5126,
            "count" : 4718,
            "type" : "VEC3"
        },
        {
            "bufferView" : 2,
            "componentType" : 5126,
            "count" : 4718,
            "type" : "VEC2"
        },
        {
            "bufferView" : 3,
            "componentType" : 5123,
            "count" : 7212,
            "type" : "SCALAR"
        },
        {
            "bufferView" : 4,
            "componentType" : 5126,
            "count" : 13504,
            "max" : [
                59,
                13.628665924072266,
                89
            ],
            "min" : [
                -133,
                0,
                -119
            ],
            "type" : "VEC3"
        },
        {
            "bufferView" : 5,
            "componentType" : 5126,
            "count" : 13504,
            "type" : "VEC3"
        },
        {
            "bufferView" : 6,
            "componentType" : 5126,
            "count" : 13504,
            "type" : "VEC2"
        },
        {
            "bufferView" : 7,
            "componentType" : 5123,
            "count" : 20256,
            "type" : "SCALAR"
        },
        {
            "bufferView" : 8,
            "componentType" : 5126,
            "count" : 8,
            "max" : [
                55,
                13.237665176391602,
                5
            ],
            "min" : [
                51,
                0,
                5
            ],
            "type" : "VEC3"
        },
        {
            "bufferView" : 9,
            "componentType" : 5126,
            "count" : 8,
            "type" : "VEC3"
        },
        {
            "bufferView" : 10,
            "componentType" : 5126,
            "count" : 8,
            "type" : "VEC2"
        },
        {
            "bufferView" : 11,
            "componentType" : 5123,
            "count" : 12,
            "type" : "SCALAR"
        },
        {
            "bufferView" : 12,
            "componentType" : 5126,
            "count" : 4,
            "max" : [
                1,
                0.015996359288692474,
                1
            ],
            "min" : [
                -1,
                0.015996359288692474,
                -1
            ],
            "type" : "VEC3"
        },
        {
            "bufferView" : 13,
            "componentType" : 5126,
            "count" : 4,
            "type" : "VEC3"
        },
        {
            "bufferView" : 14,
            "componentType" : 5126,
            "count" : 4,
            "type" : "VEC2"
        },
        {
            "bufferView" : 15,
            "componentType" : 5123,
            "count" : 6,
            "type" : "SCALAR"
        }
    ],
    "bufferViews" : [
        {
            "buffer" : 0,
            "byteLength" : 56616,
            "byteOffset" : 0
        },
        {
            "buffer" : 0,
            "byteLength" : 56616,
            "byteOffset" : 56616
        },
        {
            "buffer" : 0,
            "byteLength" : 37744,
            "byteOffset" : 113232
        },
        {
            "buffer" : 0,
            "byteLength" : 14424,
            "byteOffset" : 150976
        },
        {
            "buffer" : 0,
            "byteLength" : 162048,
            "byteOffset" : 165400
        },
        {
            "buffer" : 0,
            "byteLength" : 162048,
            "byteOffset" : 327448
        },
        {
            "buffer" : 0,
            "byteLength" : 108032,
            "byteOffset" : 489496
        },
        {
            "buffer" : 0,
            "byteLength" : 40512,
            "byteOffset" : 597528
        },
        {
            "buffer" : 0,
            "byteLength" : 96,
            "byteOffset" : 638040
        },
        {
            "buffer" : 0,
            "byteLength" : 96,
            "byteOffset" : 638136
        },
        {
            "buffer" : 0,
            "byteLength" : 64,
            "byteOffset" : 638232
        },
        {
            "buffer" : 0,
            "byteLength" : 24,
            "byteOffset" : 638296
        },
        {
            "buffer" : 0,
            "byteLength" : 48,
            "byteOffset" : 638320
        },
        {
            "buffer" : 0,
            "byteLength" : 48,
            "byteOffset" : 638368
        },
        {
            "buffer" : 0,
            "byteLength" : 32,
            "byteOffset" : 638416
        },
        {
            "buffer" : 0,
            "byteLength" : 12,
            "byteOffset" : 638448
        }
    ],
    "buffers" : [
        {
            "byteLength" : 638460,
            "uri" : "Dungen.bin"
        }
    ]
}
