{
    "asset" : {
        "generator" : "Khronos glTF Blender I/O v1.1.46",
        "version" : "2.0"
    },
    "scene" : 0,
    "scenes" : [
        {
            "name" : "Scene",
            "nodes" : [
                0,
                1,
                2,
                3,
                4,
                5,
                6,
                7
            ]
        }
    ],
    "nodes" : [
        {
            "name" : "Light",
            "rotation" : [
                0.16907575726509094,
                0.7558803558349609,
                -0.27217137813568115,
                0.570947527885437
            ],
            "translation" : [
                4.076245307922363,
                5.903861999511719,
                -1.0054539442062378
            ]
        },
        {
            "name" : "Camera",
            "rotation" : [
                0.483536034822464,
                0.33687159419059753,
                -0.20870360732078552,
                0.7804827094078064
            ],
            "translation" : [
                7.358891487121582,
                4.958309173583984,
                6.925790786743164
            ]
        },
        {
            "mesh" : 0,
            "name" : "Body",
            "rotation" : [
                0.7071067690849304,
                0,
                0,
                0.7071067690849304
            ],
            "scale" : [
                0.20000000298023224,
                0.20000000298023224,
                0.20000000298023224
            ]
        },
        {
            "mesh" : 1,
            "name" : "RightWing",
            "rotation" : [
                0,
                0,
                -0.7071067690849304,
                0.7071067690849304
            ],
            "scale" : [
                0.05000000074505806,
                0.03999999910593033,
                0.03999999910593033
            ],
            "translation" : [
                0.15000000596046448,
                0,
                0.47999998927116394
            ]
        },
        {
            "mesh" : 2,
            "name" : "LeftWing",
            "rotation" : [
                0,
                0,
                0.7071067690849304,
                0.7071067690849304
            ],
            "scale" : [
                0.05000000074505806,
                0.03999999910593033,
                0.03999999910593033
            ],
            "translation" : [
                -0.15000000596046448,
                0,
                0.47999998927116394
            ]
        },
        {
            "mesh" : 3,
            "name" : "Head",
            "rotation" : [
                0.10626403242349625,
                0,
                0,
                0.9943379759788513
            ],
            "scale" : [
                0.10000000149011612,
                1,
                0.10000000149011612
            ],
            "translation" : [
                0,
                0.1250685602426529,
                0.9954937696456909
            ]
        },
        {
            "mesh" : 4,
            "name" : "kutibasi",
            "rotation" : [
                0.8256062269210815,
                0,
                0,
                0.5642467141151428
            ],
            "scale" : [
                0.10000000149011612,
                0.10000000149011612,
                0.10000000149011612
            ],
            "translation" : [
                0,
                0.21860794723033905,
                1.3009932041168213
            ]
        },
        {
            "mesh" : 5,
            "name" : "kutibasisita",
            "rotation" : [
                0,
                -0.6858183145523071,
                -0.7277727723121643,
                -3.181196106538664e-08
            ],
            "scale" : [
                0.10000000149011612,
                0.10000000149011612,
                0.10000000149011612
            ],
            "translation" : [
                0,
                0.22017115354537964,
                1.2832270860671997
            ]
        }
    ],
    "materials" : [
        {
            "doubleSided" : true,
            "emissiveFactor" : [
                0,
                0,
                0
            ],
            "name" : "Body",
            "pbrMetallicRoughness" : {
                "baseColorFactor" : [
                    0.07264706492424011,
                    0.013241130858659744,
                    0.003657531924545765,
                    1
                ],
                "metallicFactor" : 0,
                "roughnessFactor" : 0.5
            }
        },
        {
            "doubleSided" : true,
            "emissiveFactor" : [
                0,
                0,
                0
            ],
            "name" : "Wing",
            "pbrMetallicRoughness" : {
                "baseColorFactor" : [
                    0.09681244194507599,
                    0.027774427086114883,
                    0.005664377938956022,
                    1
                ],
                "metallicFactor" : 0,
                "roughnessFactor" : 0.5
            }
        },
        {
            "doubleSided" : true,
            "emissiveFactor" : [
                0,
                0,
                0
            ],
            "name" : "Head",
            "pbrMetallicRoughness" : {
                "baseColorFactor" : [
                    0.800000011920929,
                    0.800000011920929,
                    0.800000011920929,
                    1
                ],
                "metallicFactor" : 0,
                "roughnessFactor" : 0.5
            }
        },
        {
            "doubleSided" : true,
            "emissiveFactor" : [
                0,
                0,
                0
            ],
            "name" : "kutibasi",
            "pbrMetallicRoughness" : {
                "baseColorFactor" : [
                    0.2670433521270752,
                    0.27504056692123413,
                    0.007601385470479727,
                    1
                ],
                "metallicFactor" : 0,
                "roughnessFactor" : 0.5
            }
        }
    ],
    "meshes" : [
        {
            "name" : "Plane",
            "primitives" : [
                {
                    "attributes" : {
                        "POSITION" : 0,
                        "NORMAL" : 1,
                        "TEXCOORD_0" : 2
                    },
                    "indices" : 3,
                    "material" : 0
                }
            ]
        },
        {
            "name" : "Plane.001",
            "primitives" : [
                {
                    "attributes" : {
                        "POSITION" : 4,
                        "NORMAL" : 5,
                        "TEXCOORD_0" : 6
                    },
                    "indices" : 7,
                    "material" : 1
                }
            ]
        },
        {
            "name" : "Plane.002",
            "primitives" : [
                {
                    "attributes" : {
                        "POSITION" : 8,
                        "NORMAL" : 9,
                        "TEXCOORD_0" : 10
                    },
                    "indices" : 7,
                    "material" : 1
                }
            ]
        },
        {
            "name" : "Plane.003",
            "primitives" : [
                {
                    "attributes" : {
                        "POSITION" : 11,
                        "NORMAL" : 12,
                        "TEXCOORD_0" : 13
                    },
                    "indices" : 14,
                    "material" : 2
                }
            ]
        },
        {
            "name" : "Plane.004",
            "primitives" : [
                {
                    "attributes" : {
                        "POSITION" : 15,
                        "NORMAL" : 16,
                        "TEXCOORD_0" : 17
                    },
                    "indices" : 18,
                    "material" : 3
                }
            ]
        },
        {
            "name" : "Plane.006",
            "primitives" : [
                {
                    "attributes" : {
                        "POSITION" : 19,
                        "NORMAL" : 20,
                        "TEXCOORD_0" : 21
                    },
                    "indices" : 22,
                    "material" : 3
                }
            ]
        }
    ],
    "accessors" : [
        {
            "bufferView" : 0,
            "componentType" : 5126,
            "count" : 350,
            "max" : [
                4.048258304595947,
                4.459086894989014,
                1.000000238418579
            ],
            "min" : [
                -4.048258304595947,
                -8.08755111694336,
                -1.1696674823760986
            ],
            "type" : "VEC3"
        },
        {
            "bufferView" : 1,
            "componentType" : 5126,
            "count" : 350,
            "type" : "VEC3"
        },
        {
            "bufferView" : 2,
            "componentType" : 5126,
            "count" : 350,
            "type" : "VEC2"
        },
        {
            "bufferView" : 3,
            "componentType" : 5123,
            "count" : 540,
            "type" : "SCALAR"
        },
        {
            "bufferView" : 4,
            "componentType" : 5126,
            "count" : 1083,
            "max" : [
                1,
                90.8311538696289,
                1.0045576095581055
            ],
            "min" : [
                -1,
                -0.04010963439941406,
                -85.04254913330078
            ],
            "type" : "VEC3"
        },
        {
            "bufferView" : 5,
            "componentType" : 5126,
            "count" : 1083,
            "type" : "VEC3"
        },
        {
            "bufferView" : 6,
            "componentType" : 5126,
            "count" : 1083,
            "type" : "VEC2"
        },
        {
            "bufferView" : 7,
            "componentType" : 5123,
            "count" : 1740,
            "type" : "SCALAR"
        },
        {
            "bufferView" : 8,
            "componentType" : 5126,
            "count" : 1083,
            "max" : [
                1,
                90.8311538696289,
                1.0045576095581055
            ],
            "min" : [
                -1,
                -0.04010963439941406,
                -85.04254913330078
            ],
            "type" : "VEC3"
        },
        {
            "bufferView" : 9,
            "componentType" : 5126,
            "count" : 1083,
            "type" : "VEC3"
        },
        {
            "bufferView" : 10,
            "componentType" : 5126,
            "count" : 1083,
            "type" : "VEC2"
        },
        {
            "bufferView" : 11,
            "componentType" : 5126,
            "count" : 250,
            "max" : [
                1,
                0.2630850672721863,
                2.300011396408081
            ],
            "min" : [
                -1,
                -0.01828029751777649,
                -1.8454976081848145
            ],
            "type" : "VEC3"
        },
        {
            "bufferView" : 12,
            "componentType" : 5126,
            "count" : 250,
            "type" : "VEC3"
        },
        {
            "bufferView" : 13,
            "componentType" : 5126,
            "count" : 250,
            "type" : "VEC2"
        },
        {
            "bufferView" : 14,
            "componentType" : 5123,
            "count" : 396,
            "type" : "SCALAR"
        },
        {
            "bufferView" : 15,
            "componentType" : 5126,
            "count" : 184,
            "max" : [
                0.5450312495231628,
                3.060109853744507,
                0.25473958253860474
            ],
            "min" : [
                -0.5450312495231628,
                -0.6525279879570007,
                -0.5833981037139893
            ],
            "type" : "VEC3"
        },
        {
            "bufferView" : 16,
            "componentType" : 5126,
            "count" : 184,
            "type" : "VEC3"
        },
        {
            "bufferView" : 17,
            "componentType" : 5126,
            "count" : 184,
            "type" : "VEC2"
        },
        {
            "bufferView" : 18,
            "componentType" : 5123,
            "count" : 276,
            "type" : "SCALAR"
        },
        {
            "bufferView" : 19,
            "componentType" : 5126,
            "count" : 168,
            "max" : [
                0.4113934636116028,
                3.060109853744507,
                -0.05048882216215134
            ],
            "min" : [
                -0.4113934636116028,
                -0.5113083124160767,
                -0.5833981037139893
            ],
            "type" : "VEC3"
        },
        {
            "bufferView" : 20,
            "componentType" : 5126,
            "count" : 168,
            "type" : "VEC3"
        },
        {
            "bufferView" : 21,
            "componentType" : 5126,
            "count" : 168,
            "type" : "VEC2"
        },
        {
            "bufferView" : 22,
            "componentType" : 5123,
            "count" : 252,
            "type" : "SCALAR"
        }
    ],
    "bufferViews" : [
        {
            "buffer" : 0,
            "byteLength" : 4200,
            "byteOffset" : 0
        },
        {
            "buffer" : 0,
            "byteLength" : 4200,
            "byteOffset" : 4200
        },
        {
            "buffer" : 0,
            "byteLength" : 2800,
            "byteOffset" : 8400
        },
        {
            "buffer" : 0,
            "byteLength" : 1080,
            "byteOffset" : 11200
        },
        {
            "buffer" : 0,
            "byteLength" : 12996,
            "byteOffset" : 12280
        },
        {
            "buffer" : 0,
            "byteLength" : 12996,
            "byteOffset" : 25276
        },
        {
            "buffer" : 0,
            "byteLength" : 8664,
            "byteOffset" : 38272
        },
        {
            "buffer" : 0,
            "byteLength" : 3480,
            "byteOffset" : 46936
        },
        {
            "buffer" : 0,
            "byteLength" : 12996,
            "byteOffset" : 50416
        },
        {
            "buffer" : 0,
            "byteLength" : 12996,
            "byteOffset" : 63412
        },
        {
            "buffer" : 0,
            "byteLength" : 8664,
            "byteOffset" : 76408
        },
        {
            "buffer" : 0,
            "byteLength" : 3000,
            "byteOffset" : 85072
        },
        {
            "buffer" : 0,
            "byteLength" : 3000,
            "byteOffset" : 88072
        },
        {
            "buffer" : 0,
            "byteLength" : 2000,
            "byteOffset" : 91072
        },
        {
            "buffer" : 0,
            "byteLength" : 792,
            "byteOffset" : 93072
        },
        {
            "buffer" : 0,
            "byteLength" : 2208,
            "byteOffset" : 93864
        },
        {
            "buffer" : 0,
            "byteLength" : 2208,
            "byteOffset" : 96072
        },
        {
            "buffer" : 0,
            "byteLength" : 1472,
            "byteOffset" : 98280
        },
        {
            "buffer" : 0,
            "byteLength" : 552,
            "byteOffset" : 99752
        },
        {
            "buffer" : 0,
            "byteLength" : 2016,
            "byteOffset" : 100304
        },
        {
            "buffer" : 0,
            "byteLength" : 2016,
            "byteOffset" : 102320
        },
        {
            "buffer" : 0,
            "byteLength" : 1344,
            "byteOffset" : 104336
        },
        {
            "buffer" : 0,
            "byteLength" : 504,
            "byteOffset" : 105680
        }
    ],
    "buffers" : [
        {
            "byteLength" : 106184,
            "uri" : "Eagle.bin"
        }
    ]
}
