{
    "asset" : {
        "generator" : "Khronos glTF Blender I/O v1.1.46",
        "version" : "2.0"
    },
    "scene" : 0,
    "scenes" : [
        {
            "name" : "Scene",
            "nodes" : [
                0,
                1,
                2,
                3
            ]
        }
    ],
    "nodes" : [
        {
            "name" : "Light",
            "rotation" : [
                -0.5709479451179504,
                0.2721711993217468,
                0.7558801770210266,
                0.16907544434070587
            ],
            "scale" : [
                0.3730228543281555,
                0.37302273511886597,
                0.37302279472351074
            ],
            "translation" : [
                8.934066772460938,
                9.268622398376465,
                0.5529247522354126
            ]
        },
        {
            "name" : "Camera",
            "rotation" : [
                -0.7804826498031616,
                0.20870338380336761,
                0.3368716835975647,
                0.4835363030433655
            ],
            "scale" : [
                0.37302273511886597,
                0.37302279472351074,
                0.3730228841304779
            ],
            "translation" : [
                10.158568382263184,
                8.915909767150879,
                3.5114595890045166
            ]
        },
        {
            "mesh" : 0,
            "name" : "map",
            "rotation" : [
                1,
                0,
                0,
                -1.3435885648505064e-07
            ],
            "scale" : [
                0.3730226755142212,
                0.37302276492118835,
                0.37302276492118835
            ]
        },
        {
            "mesh" : 1,
            "name" : "Plane",
            "scale" : [
                51.087894439697266,
                51.08791732788086,
                51.08791732788086
            ],
            "translation" : [
                0,
                13.711960792541504,
                0
            ]
        }
    ],
    "materials" : [
        {
            "doubleSided" : true,
            "emissiveFactor" : [
                0,
                0,
                0
            ],
            "name" : "Material.008",
            "normalTexture" : {
                "index" : 0,
                "texCoord" : 0
            },
            "pbrMetallicRoughness" : {
                "baseColorTexture" : {
                    "index" : 1,
                    "texCoord" : 0
                },
                "metallicFactor" : 0,
                "roughnessFactor" : 0.5
            }
        },
        {
            "doubleSided" : true,
            "emissiveFactor" : [
                0,
                0,
                0
            ],
            "name" : "Material.009",
            "pbrMetallicRoughness" : {
                "baseColorTexture" : {
                    "index" : 2,
                    "texCoord" : 0
                },
                "metallicFactor" : 0,
                "roughnessFactor" : 0.5
            }
        },
        {
            "doubleSided" : true,
            "emissiveFactor" : [
                0,
                0,
                0
            ],
            "name" : "Material.010",
            "pbrMetallicRoughness" : {
                "baseColorFactor" : [
                    0,
                    0,
                    0,
                    1
                ],
                "metallicFactor" : 0,
                "roughnessFactor" : 0.5
            }
        }
    ],
    "meshes" : [
        {
            "name" : "Plane.003",
            "primitives" : [
                {
                    "attributes" : {
                        "POSITION" : 0,
                        "NORMAL" : 1,
                        "TEXCOORD_0" : 2
                    },
                    "indices" : 3,
                    "material" : 0
                },
                {
                    "attributes" : {
                        "POSITION" : 4,
                        "NORMAL" : 5,
                        "TEXCOORD_0" : 6
                    },
                    "indices" : 7,
                    "material" : 1
                },
                {
                    "attributes" : {
                        "POSITION" : 8,
                        "NORMAL" : 9,
                        "TEXCOORD_0" : 10
                    },
                    "indices" : 11,
                    "material" : 2
                }
            ]
        },
        {
            "name" : "Plane.004",
            "primitives" : [
                {
                    "attributes" : {
                        "POSITION" : 12,
                        "NORMAL" : 13,
                        "TEXCOORD_0" : 14
                    },
                    "indices" : 15,
                    "material" : 0
                }
            ]
        }
    ],
    "textures" : [
        {
            "source" : 0
        },
        {
            "source" : 1
        },
        {
            "source" : 2
        }
    ],
    "images" : [
        {
            "mimeType" : "image/png",
            "name" : "WallStoneNormal.png",
            "uri" : "WallStoneNormal_png.png"
        },
        {
            "mimeType" : "image/png",
            "name" : "WallStone.png",
            "uri" : "WallStone_png.png"
        },
        {
            "mimeType" : "image/png",
            "name" : "FloorStone",
            "uri" : "FloorStone.png"
        }
    ],
    "accessors" : [
        {
            "bufferView" : 0,
            "componentType" : 5126,
            "count" : 4782,
            "max" : [
                61,
                0,
                119
            ],
            "min" : [
                -133,
                -36.24622344970703,
                -119
            ],
            "type" : "VEC3"
        },
        {
            "bufferView" : 1,
            "componentType" : 5126,
            "count" : 4782,
            "type" : "VEC3"
        },
        {
            "bufferView" : 2,
            "componentType" : 5126,
            "count" : 4782,
            "type" : "VEC2"
        },
        {
            "bufferView" : 3,
            "componentType" : 5123,
            "count" : 6942,
            "type" : "SCALAR"
        },
        {
            "bufferView" : 4,
            "componentType" : 5126,
            "count" : 13506,
            "max" : [
                59,
                0,
                119
            ],
            "min" : [
                -133,
                -13.628665924072266,
                -89
            ],
            "type" : "VEC3"
        },
        {
            "bufferView" : 5,
            "componentType" : 5126,
            "count" : 13506,
            "type" : "VEC3"
        },
        {
            "bufferView" : 6,
            "componentType" : 5126,
            "count" : 13506,
            "type" : "VEC2"
        },
        {
            "bufferView" : 7,
            "componentType" : 5123,
            "count" : 20256,
            "type" : "SCALAR"
        },
        {
            "bufferView" : 8,
            "componentType" : 5126,
            "count" : 8,
            "max" : [
                55,
                0,
                -5
            ],
            "min" : [
                51,
                -13.237665176391602,
                -5
            ],
            "type" : "VEC3"
        },
        {
            "bufferView" : 9,
            "componentType" : 5126,
            "count" : 8,
            "type" : "VEC3"
        },
        {
            "bufferView" : 10,
            "componentType" : 5126,
            "count" : 8,
            "type" : "VEC2"
        },
        {
            "bufferView" : 11,
            "componentType" : 5123,
            "count" : 12,
            "type" : "SCALAR"
        },
        {
            "bufferView" : 12,
            "componentType" : 5126,
            "count" : 4,
            "max" : [
                1,
                -0.015996359288692474,
                1
            ],
            "min" : [
                -1,
                -0.015996359288692474,
                -1
            ],
            "type" : "VEC3"
        },
        {
            "bufferView" : 13,
            "componentType" : 5126,
            "count" : 4,
            "type" : "VEC3"
        },
        {
            "bufferView" : 14,
            "componentType" : 5126,
            "count" : 4,
            "type" : "VEC2"
        },
        {
            "bufferView" : 15,
            "componentType" : 5123,
            "count" : 6,
            "type" : "SCALAR"
        }
    ],
    "bufferViews" : [
        {
            "buffer" : 0,
            "byteLength" : 57384,
            "byteOffset" : 0
        },
        {
            "buffer" : 0,
            "byteLength" : 57384,
            "byteOffset" : 57384
        },
        {
            "buffer" : 0,
            "byteLength" : 38256,
            "byteOffset" : 114768
        },
        {
            "buffer" : 0,
            "byteLength" : 13884,
            "byteOffset" : 153024
        },
        {
            "buffer" : 0,
            "byteLength" : 162072,
            "byteOffset" : 166908
        },
        {
            "buffer" : 0,
            "byteLength" : 162072,
            "byteOffset" : 328980
        },
        {
            "buffer" : 0,
            "byteLength" : 108048,
            "byteOffset" : 491052
        },
        {
            "buffer" : 0,
            "byteLength" : 40512,
            "byteOffset" : 599100
        },
        {
            "buffer" : 0,
            "byteLength" : 96,
            "byteOffset" : 639612
        },
        {
            "buffer" : 0,
            "byteLength" : 96,
            "byteOffset" : 639708
        },
        {
            "buffer" : 0,
            "byteLength" : 64,
            "byteOffset" : 639804
        },
        {
            "buffer" : 0,
            "byteLength" : 24,
            "byteOffset" : 639868
        },
        {
            "buffer" : 0,
            "byteLength" : 48,
            "byteOffset" : 639892
        },
        {
            "buffer" : 0,
            "byteLength" : 48,
            "byteOffset" : 639940
        },
        {
            "buffer" : 0,
            "byteLength" : 32,
            "byteOffset" : 639988
        },
        {
            "buffer" : 0,
            "byteLength" : 12,
            "byteOffset" : 640020
        }
    ],
    "buffers" : [
        {
            "byteLength" : 640032,
            "uri" : "Dungen2.bin"
        }
    ]
}
