{
    "asset" : {
        "generator" : "Khronos glTF Blender I/O v1.1.46",
        "version" : "2.0"
    },
    "scene" : 0,
    "scenes" : [
        {
            "name" : "Scene",
            "nodes" : [
                0,
                1,
                2,
                3
            ]
        }
    ],
    "nodes" : [
        {
            "name" : "Light",
            "rotation" : [
                0.16907575726509094,
                0.7558803558349609,
                -0.27217137813568115,
                0.570947527885437
            ],
            "scale" : [
                0.3730226755142212,
                0.3730226755142212,
                0.3730226755142212
            ],
            "translation" : [
                8.934066772460938,
                9.268620491027832,
                0.5529221296310425
            ]
        },
        {
            "name" : "Camera",
            "rotation" : [
                0.483536034822464,
                0.33687159419059753,
                -0.20870360732078552,
                0.7804827094078064
            ],
            "scale" : [
                0.3730226755142212,
                0.3730226755142212,
                0.3730226755142212
            ],
            "translation" : [
                10.158568382263184,
                8.915907859802246,
                3.511456251144409
            ]
        },
        {
            "mesh" : 0,
            "name" : "map",
            "scale" : [
                0.3730226755142212,
                0.3730226755142212,
                0.3730226755142212
            ]
        },
        {
            "mesh" : 1,
            "name" : "Plane",
            "rotation" : [
                1,
                0,
                0,
                7.549790126404332e-08
            ],
            "scale" : [
                51.087894439697266,
                51.087894439697266,
                51.087894439697266
            ],
            "translation" : [
                0,
                13.711956977844238,
                0
            ]
        }
    ],
    "materials" : [
        {
            "doubleSided" : true,
            "emissiveFactor" : [
                0,
                0,
                0
            ],
            "name" : "Material.002",
            "normalTexture" : {
                "index" : 0,
                "texCoord" : 0
            },
            "pbrMetallicRoughness" : {
                "baseColorTexture" : {
                    "index" : 1,
                    "texCoord" : 0
                },
                "metallicFactor" : 0,
                "roughnessFactor" : 0.5
            }
        },
        {
            "doubleSided" : true,
            "emissiveFactor" : [
                0,
                0,
                0
            ],
            "name" : "Material",
            "pbrMetallicRoughness" : {
                "baseColorTexture" : {
                    "index" : 2,
                    "texCoord" : 0
                },
                "metallicFactor" : 0,
                "roughnessFactor" : 0.5
            }
        }
    ],
    "meshes" : [
        {
            "name" : "Plane",
            "primitives" : [
                {
                    "attributes" : {
                        "POSITION" : 0,
                        "NORMAL" : 1,
                        "TEXCOORD_0" : 2
                    },
                    "indices" : 3,
                    "material" : 0
                },
                {
                    "attributes" : {
                        "POSITION" : 4,
                        "NORMAL" : 5,
                        "TEXCOORD_0" : 6
                    },
                    "indices" : 7,
                    "material" : 1
                }
            ]
        },
        {
            "name" : "Plane.001",
            "primitives" : [
                {
                    "attributes" : {
                        "POSITION" : 8,
                        "NORMAL" : 9,
                        "TEXCOORD_0" : 10
                    },
                    "indices" : 11,
                    "material" : 0
                }
            ]
        }
    ],
    "textures" : [
        {
            "source" : 0
        },
        {
            "source" : 1
        },
        {
            "source" : 2
        }
    ],
    "images" : [
        {
            "mimeType" : "image/png",
            "name" : "WallStoneNormal",
            "uri" : "WallStoneNormal.png"
        },
        {
            "mimeType" : "image/png",
            "name" : "WallStone",
            "uri" : "WallStone.png"
        },
        {
            "mimeType" : "image/png",
            "name" : "FloorStone",
            "uri" : "FloorStone.png"
        }
    ],
    "accessors" : [
        {
            "bufferView" : 0,
            "componentType" : 5126,
            "count" : 1456,
            "max" : [
                -1,
                36.24622344970703,
                -1
            ],
            "min" : [
                -133,
                0,
                -119
            ],
            "type" : "VEC3"
        },
        {
            "bufferView" : 1,
            "componentType" : 5126,
            "count" : 1456,
            "type" : "VEC3"
        },
        {
            "bufferView" : 2,
            "componentType" : 5126,
            "count" : 1456,
            "type" : "VEC2"
        },
        {
            "bufferView" : 3,
            "componentType" : 5123,
            "count" : 2184,
            "type" : "SCALAR"
        },
        {
            "bufferView" : 4,
            "componentType" : 5126,
            "count" : 5412,
            "max" : [
                -1,
                13.628665924072266,
                -9
            ],
            "min" : [
                -121,
                0,
                -119
            ],
            "type" : "VEC3"
        },
        {
            "bufferView" : 5,
            "componentType" : 5126,
            "count" : 5412,
            "type" : "VEC3"
        },
        {
            "bufferView" : 6,
            "componentType" : 5126,
            "count" : 5412,
            "type" : "VEC2"
        },
        {
            "bufferView" : 7,
            "componentType" : 5123,
            "count" : 8118,
            "type" : "SCALAR"
        },
        {
            "bufferView" : 8,
            "componentType" : 5126,
            "count" : 4,
            "max" : [
                1,
                0.015996359288692474,
                1
            ],
            "min" : [
                -1,
                0.015996359288692474,
                -1
            ],
            "type" : "VEC3"
        },
        {
            "bufferView" : 9,
            "componentType" : 5126,
            "count" : 4,
            "type" : "VEC3"
        },
        {
            "bufferView" : 10,
            "componentType" : 5126,
            "count" : 4,
            "type" : "VEC2"
        },
        {
            "bufferView" : 11,
            "componentType" : 5123,
            "count" : 6,
            "type" : "SCALAR"
        }
    ],
    "bufferViews" : [
        {
            "buffer" : 0,
            "byteLength" : 17472,
            "byteOffset" : 0
        },
        {
            "buffer" : 0,
            "byteLength" : 17472,
            "byteOffset" : 17472
        },
        {
            "buffer" : 0,
            "byteLength" : 11648,
            "byteOffset" : 34944
        },
        {
            "buffer" : 0,
            "byteLength" : 4368,
            "byteOffset" : 46592
        },
        {
            "buffer" : 0,
            "byteLength" : 64944,
            "byteOffset" : 50960
        },
        {
            "buffer" : 0,
            "byteLength" : 64944,
            "byteOffset" : 115904
        },
        {
            "buffer" : 0,
            "byteLength" : 43296,
            "byteOffset" : 180848
        },
        {
            "buffer" : 0,
            "byteLength" : 16236,
            "byteOffset" : 224144
        },
        {
            "buffer" : 0,
            "byteLength" : 48,
            "byteOffset" : 240380
        },
        {
            "buffer" : 0,
            "byteLength" : 48,
            "byteOffset" : 240428
        },
        {
            "buffer" : 0,
            "byteLength" : 32,
            "byteOffset" : 240476
        },
        {
            "buffer" : 0,
            "byteLength" : 12,
            "byteOffset" : 240508
        }
    ],
    "buffers" : [
        {
            "byteLength" : 240520,
            "uri" : "Part1.bin"
        }
    ]
}
