{
    "asset" : {
        "generator" : "Khronos glTF Blender I/O v1.1.46",
        "version" : "2.0"
    },
    "scene" : 0,
    "scenes" : [
        {
            "name" : "Scene",
            "nodes" : [
                0,
                1,
                2
            ]
        }
    ],
    "nodes" : [
        {
            "name" : "Light",
            "rotation" : [
                0.16907575726509094,
                0.7558803558349609,
                -0.27217137813568115,
                0.570947527885437
            ],
            "scale" : [
                0.3730226755142212,
                0.3730226755142212,
                0.3730226755142212
            ],
            "translation" : [
                8.934066772460938,
                9.268620491027832,
                0.5529221296310425
            ]
        },
        {
            "name" : "Camera",
            "rotation" : [
                0.483536034822464,
                0.33687159419059753,
                -0.20870360732078552,
                0.7804827094078064
            ],
            "scale" : [
                0.3730226755142212,
                0.3730226755142212,
                0.3730226755142212
            ],
            "translation" : [
                10.158568382263184,
                8.915907859802246,
                3.511456251144409
            ]
        },
        {
            "mesh" : 0,
            "name" : "map",
            "scale" : [
                0.3730226755142212,
                0.3730226755142212,
                0.3730226755142212
            ]
        }
    ],
    "materials" : [
        {
            "doubleSided" : true,
            "emissiveFactor" : [
                0,
                0,
                0
            ],
            "name" : "Material.002",
            "normalTexture" : {
                "index" : 0,
                "texCoord" : 0
            },
            "pbrMetallicRoughness" : {
                "baseColorTexture" : {
                    "index" : 1,
                    "texCoord" : 0
                },
                "metallicFactor" : 0,
                "roughnessFactor" : 0.5
            }
        },
        {
            "doubleSided" : true,
            "emissiveFactor" : [
                0,
                0,
                0
            ],
            "name" : "Material",
            "pbrMetallicRoughness" : {
                "baseColorTexture" : {
                    "index" : 2,
                    "texCoord" : 0
                },
                "metallicFactor" : 0,
                "roughnessFactor" : 0.5
            }
        },
        {
            "doubleSided" : true,
            "emissiveFactor" : [
                0,
                0,
                0
            ],
            "name" : "Material.001",
            "pbrMetallicRoughness" : {
                "baseColorFactor" : [
                    0,
                    0,
                    0,
                    1
                ],
                "metallicFactor" : 0,
                "roughnessFactor" : 0.5
            }
        }
    ],
    "meshes" : [
        {
            "name" : "Plane",
            "primitives" : [
                {
                    "attributes" : {
                        "POSITION" : 0,
                        "NORMAL" : 1,
                        "TEXCOORD_0" : 2
                    },
                    "indices" : 3,
                    "material" : 0
                },
                {
                    "attributes" : {
                        "POSITION" : 4,
                        "NORMAL" : 5,
                        "TEXCOORD_0" : 6
                    },
                    "indices" : 7,
                    "material" : 1
                },
                {
                    "attributes" : {
                        "POSITION" : 8,
                        "NORMAL" : 9,
                        "TEXCOORD_0" : 10
                    },
                    "indices" : 11,
                    "material" : 2
                }
            ]
        }
    ],
    "textures" : [
        {
            "source" : 0
        },
        {
            "source" : 1
        },
        {
            "source" : 2
        }
    ],
    "images" : [
        {
            "mimeType" : "image/png",
            "name" : "WallStoneNormal",
            "uri" : "WallStoneNormal.png"
        },
        {
            "mimeType" : "image/png",
            "name" : "WallStone",
            "uri" : "WallStone.png"
        },
        {
            "mimeType" : "image/png",
            "name" : "FloorStone",
            "uri" : "FloorStone.png"
        }
    ],
    "accessors" : [
        {
            "bufferView" : 0,
            "componentType" : 5126,
            "count" : 716,
            "max" : [
                61,
                36.23191452026367,
                119
            ],
            "min" : [
                -1,
                0,
                1
            ],
            "type" : "VEC3"
        },
        {
            "bufferView" : 1,
            "componentType" : 5126,
            "count" : 716,
            "type" : "VEC3"
        },
        {
            "bufferView" : 2,
            "componentType" : 5126,
            "count" : 716,
            "type" : "VEC2"
        },
        {
            "bufferView" : 3,
            "componentType" : 5123,
            "count" : 1074,
            "type" : "SCALAR"
        },
        {
            "bufferView" : 4,
            "componentType" : 5126,
            "count" : 936,
            "max" : [
                55,
                13.237665176391602,
                57
            ],
            "min" : [
                -1,
                0,
                5
            ],
            "type" : "VEC3"
        },
        {
            "bufferView" : 5,
            "componentType" : 5126,
            "count" : 936,
            "type" : "VEC3"
        },
        {
            "bufferView" : 6,
            "componentType" : 5126,
            "count" : 936,
            "type" : "VEC2"
        },
        {
            "bufferView" : 7,
            "componentType" : 5123,
            "count" : 1404,
            "type" : "SCALAR"
        },
        {
            "bufferView" : 8,
            "componentType" : 5126,
            "count" : 8,
            "max" : [
                55,
                13.237665176391602,
                5
            ],
            "min" : [
                51,
                0,
                5
            ],
            "type" : "VEC3"
        },
        {
            "bufferView" : 9,
            "componentType" : 5126,
            "count" : 8,
            "type" : "VEC3"
        },
        {
            "bufferView" : 10,
            "componentType" : 5126,
            "count" : 8,
            "type" : "VEC2"
        },
        {
            "bufferView" : 11,
            "componentType" : 5123,
            "count" : 12,
            "type" : "SCALAR"
        }
    ],
    "bufferViews" : [
        {
            "buffer" : 0,
            "byteLength" : 8592,
            "byteOffset" : 0
        },
        {
            "buffer" : 0,
            "byteLength" : 8592,
            "byteOffset" : 8592
        },
        {
            "buffer" : 0,
            "byteLength" : 5728,
            "byteOffset" : 17184
        },
        {
            "buffer" : 0,
            "byteLength" : 2148,
            "byteOffset" : 22912
        },
        {
            "buffer" : 0,
            "byteLength" : 11232,
            "byteOffset" : 25060
        },
        {
            "buffer" : 0,
            "byteLength" : 11232,
            "byteOffset" : 36292
        },
        {
            "buffer" : 0,
            "byteLength" : 7488,
            "byteOffset" : 47524
        },
        {
            "buffer" : 0,
            "byteLength" : 2808,
            "byteOffset" : 55012
        },
        {
            "buffer" : 0,
            "byteLength" : 96,
            "byteOffset" : 57820
        },
        {
            "buffer" : 0,
            "byteLength" : 96,
            "byteOffset" : 57916
        },
        {
            "buffer" : 0,
            "byteLength" : 64,
            "byteOffset" : 58012
        },
        {
            "buffer" : 0,
            "byteLength" : 24,
            "byteOffset" : 58076
        }
    ],
    "buffers" : [
        {
            "byteLength" : 58100,
            "uri" : "Part2.bin"
        }
    ]
}
